<?xml version="1.0" standalone="no"?><!DOCTYPE svg PUBLIC "-//W3C//DTD SVG 1.1//EN" "http://www.w3.org/Graphics/SVG/1.1/DTD/svg11.dtd" ><svg xmlns="http://www.w3.org/2000/svg"><metadata></metadata><defs><font id="2.000;ITFO;Satoshi-Light" horiz-adv-x="1107"><font-face font-family="Satoshi Light" font-weight="300" font-stretch="normal" units-per-em="1000" panose-1="0 0 0 0 0 0 0 0 0 0" ascent="1010" descent="-240" x-height="0" bbox="-58 -214 1042 872" underline-thickness="80" underline-position="-195" unicode-range="U+0020-2026" /><missing-glyph horiz-adv-x="500" d="M50 -203 l0 1063 l400 0 l0 -1063 l-400 0 ZM100 -153 l300 0 l0 963 l-300 0 l0 -963 Z" /><glyph glyph-name="space" unicode=" " d="" /><glyph glyph-name="exclam" unicode="!" d="M140 213 l-30 0 q-8 109 -8 327 l0 170 l46 0 l0 -170 q0 -218 -8 -327 ZM126 -14 q-23 0 -39.5 16 q-16.5 16 -16.5 39 q0 23 16.5 39 q16.5 16 39.5 16 q22 0 38 -16.5 q16 -16.5 16 -38.5 q0 -22 -16 -38.5 q-16 -16.5 -38 -16.5 Z" /><glyph glyph-name="quotedbl" unicode="&quot;" d="M107 671 l-15 -191 l-36 0 l-16 191 q-1 19 9.5 29 q10.5 10 24.5 10 q14 0 24 -10 q10 -10 9 -29 ZM227 671 l-15 -191 l-36 0 l-16 191 q-1 19 9.5 29 q10.5 10 24.5 10 q14 0 24 -10 q10 -10 9 -29 Z" /><glyph glyph-name="numbersign" unicode="#" d="M58 264 l109 0 l35 182 l-127 0 l8 44 l128 0 l43 220 l46 0 l-43 -220 l197 0 l43 220 l46 0 l-43 -220 l106 0 l-8 -44 l-107 0 l-36 -182 l110 0 l-8 -44 l-111 0 l-43 -220 l-46 0 l43 220 l-196 0 l-43 -220 l-46 0 l43 220 l-108 0 l8 44 ZM213 264 l196 0 l36 182 l-197 0 l-35 -182 Z" /><glyph glyph-name="dollar" unicode="$" d="M252 -100 l0 89 q-92 5 -149.5 52.5 q-57.5 47.5 -64.5 126.5 l51 0 q3 -57 47.5 -93 q44.5 -36 115.5 -41 l0 306 l-42 11 q-164 41 -164 180 q0 82 55.5 133 q55.5 51 150.5 57 l0 89 l42 0 l0 -88 q84 -5 137 -53 q53 -48 63 -129 l-50 0 q-7 62 -46 97.5 q-39 35.5 -104 39.5 l0 -300 l48 -12 q80 -20 122 -67 q42 -47 42 -115 q0 -84 -57.5 -136.5 q-57.5 -52.5 -154.5 -57.5 l0 -89 l-42 0 ZM216 397 l36 -9 l0 289 q-72 -6 -115 -45.5 q-43 -39.5 -43 -100.5 q0 -102 122 -134 ZM333 320 l-39 10 l0 -296 q75 5 119.5 45 q44.5 40 44.5 103 q0 107 -125 138 Z" /><glyph glyph-name="percent" unicode="%" d="M344 674.5 q48 -48.5 48 -122.5 q0 -74 -48 -122.5 q-48 -48.5 -121 -48.5 q-73 0 -121 48.5 q-48 48.5 -48 122.5 q0 74 48 122.5 q48 48.5 121 48.5 q73 0 121 -48.5 ZM739 710 l-539 -710 l-52 0 l538 710 l53 0 ZM313 459 q35 36 35 93 q0 57 -35 93 q-35 36 -90 36 q-55 0 -90 -36 q-35 -36 -35 -93 q0 -57 35 -93 q35 -36 90 -36 q55 0 90 36 ZM786 280.5 q48 -48.5 48 -122.5 q0 -74 -48 -122.5 q-48 -48.5 -121 -48.5 q-73 0 -121 48.5 q-48 48.5 -48 122.5 q0 74 48 122.5 q48 48.5 121 48.5 q73 0 121 -48.5 ZM755 65 q35 36 35 93 q0 57 -35 93 q-35 36 -90 36 q-55 0 -90 -36 q-35 -36 -35 -93 q0 -57 35 -93 q35 -36 90 -36 q55 0 90 36 Z" /><glyph glyph-name="ampersand" unicode="&amp;" d="M589 0 l-72 83 q-85 -96 -229 -96 q-111 0 -176.5 51.5 q-65.5 51.5 -65.5 138.5 q0 68 43 122 q43 54 145 112 q-53 62 -74.5 99.5 q-21.5 37.5 -21.5 73.5 q0 62 41.5 99.5 q41.5 37.5 109.5 37.5 q65 0 105 -36 q40 -36 40 -95 q0 -53 -31 -96.5 q-31 -43.5 -102 -91.5 l215 -250 q36 66 36 166 l45 0 q0 -116 -53 -200 l102 -118 l-57 0 ZM270 438 l4 -5 q114 71 114 157 q0 41 -27 65.5 q-27 24.5 -73 24.5 q-48 0 -76 -26 q-28 -26 -28 -70 q0 -27 17.5 -56.5 q17.5 -29.5 68.5 -89.5 ZM92 177 q0 -70 52 -109.5 q52 -39.5 143 -39.5 q135 0 204 86 l-230 266 q-94 -52 -131.5 -97.5 q-37.5 -45.5 -37.5 -105.5 Z" /><glyph glyph-name="quotesingle" unicode="&#39;" d="M107 671 l-15 -191 l-36 0 l-16 191 q-1 19 9.5 29 q10.5 10 24.5 10 q14 0 24 -10 q10 -10 9 -29 Z" /><glyph glyph-name="parenleft" unicode="(" d="M231 -143 l-48 0 q-59 89 -93.5 207.5 q-34.5 118.5 -34.5 238.5 q0 118 34.5 236.5 q34.5 118.5 93.5 206.5 l48 0 q-58 -82 -93 -199.5 q-35 -117.5 -35 -243.5 q0 -128 35 -246 q35 -118 93 -200 Z" /><glyph glyph-name="parenright" unicode=")" d="M48 -143 l-48 0 q58 82 93 200 q35 118 35 246 q0 126 -35 243.5 q-35 117.5 -93 199.5 l48 0 q59 -88 93.5 -206.5 q34.5 -118.5 34.5 -236.5 q0 -120 -34.5 -238.5 q-34.5 -118.5 -93.5 -207.5 Z" /><glyph glyph-name="asterisk" unicode="*" d="M93 570 l-61 22 l14 36 l59 -20 q50 -17 82 -38 q-9 39 -9 89 l0 64 l39 0 l0 -64 q0 -49 -8 -89 q37 22 80 38 l59 21 l16 -37 l-62 -22 q-43 -15 -85 -22 q25 -24 56 -68 l36 -52 l-32 -23 l-37 52 q-28 39 -43 78 q-14 -38 -42 -78 l-37 -52 l-33 23 l36 52 q24 35 57 68 q-43 7 -85 22 Z" /><glyph glyph-name="plus" unicode="+" d="M80 359 l228 0 l0 228 l44 0 l0 -228 l228 0 l0 -44 l-228 0 l0 -229 l-44 0 l0 229 l-228 0 l0 44 Z" /><glyph glyph-name="comma" unicode="," d="M180 29 q0 -40 -28 -71.5 q-28 -31.5 -68 -38.5 l0 32 q23 4 39 20.5 q16 16.5 16 35.5 q-9 -7 -26 -7 q-18 0 -30.5 12.5 q-12.5 12.5 -12.5 34.5 q0 22 14.5 36.5 q14.5 14.5 37.5 14.5 q23 0 40.5 -18.5 q17.5 -18.5 17.5 -50.5 Z" /><glyph glyph-name="hyphen" unicode="-" d="M65 240 l0 42 l276 0 l0 -42 l-276 0 Z" /><glyph glyph-name="period" unicode="." d="M163.5 5 q-16.5 -16 -38.5 -16 q-22 0 -38.5 16 q-16.5 16 -16.5 38 q0 23 16 39 q16 16 39 16 q23 0 39 -16 q16 -16 16 -39 q0 -22 -16.5 -38 Z" /><glyph glyph-name="slash" unicode="/" d="M46 0 l-46 0 l277 710 l47 0 l-278 -710 Z" /><glyph glyph-name="zero" unicode="0" d="M134 87.5 q-74 100.5 -74 267.5 q0 167 74 267.5 q74 100.5 203 100.5 q129 0 203 -100.5 q74 -100.5 74 -267.5 q0 -167 -74 -267.5 q-74 -100.5 -203 -100.5 q-129 0 -203 100.5 ZM168 590 q-61 -88 -61 -235 q0 -147 61 -235 q61 -88 169 -88 q108 0 169 88 q61 88 61 235 q0 147 -61 235 q-61 88 -169 88 q-108 0 -169 -88 Z" /><glyph glyph-name="one" unicode="1" d="M175 666 l-140 0 l0 44 l187 0 l0 -710 l-47 0 l0 666 Z" /><glyph glyph-name="two" unicode="2" d="M501 0 l-456 0 l0 40 l225 199 q110 97 145 150 q35 53 35 121 q0 77 -45 122 q-45 45 -122 45 q-79 0 -129 -54 q-50 -54 -53 -143 l-48 0 q4 110 67.5 176 q63.5 66 164.5 66 q94 0 153.5 -58.5 q59.5 -58.5 59.5 -150.5 q0 -79 -41 -142 q-41 -63 -159 -167 l-181 -160 l384 0 l0 -44 Z" /><glyph glyph-name="three" unicode="3" d="M251 394 l-44 0 l0 35 l232 237 l-357 0 l0 44 l422 0 l0 -40 l-231 -235 q109 0 176.5 -59.5 q67.5 -59.5 67.5 -156.5 q0 -103 -67 -167 q-67 -64 -175 -64 q-105 0 -166.5 60.5 q-61.5 60.5 -61.5 163.5 l48 0 q0 -83 48.5 -131 q48.5 -48 131.5 -48 q88 0 141 51 q53 51 53 137 q0 82 -57.5 127.5 q-57.5 45.5 -160.5 45.5 Z" /><glyph glyph-name="four" unicode="4" d="M99 201 l324 0 l0 461 l-324 -461 ZM554 157 l-83 0 l0 -157 l-48 0 l0 157 l-378 0 l0 44 l359 509 l67 0 l0 -509 l83 0 l0 -44 Z" /><glyph glyph-name="five" unicode="5" d="M288 -12 q-105 0 -166.5 60.5 q-61.5 60.5 -61.5 163.5 l48 0 q0 -83 48.5 -131 q48.5 -48 131.5 -48 q88 0 141 53.5 q53 53.5 53 139.5 q0 83 -52.5 138.5 q-52.5 55.5 -142.5 55.5 q-103 0 -179 -76 l-32 15 l84 351 l331 0 l0 -44 l-296 0 l-61 -254 q69 53 156 53 q109 0 174.5 -69.5 q65.5 -69.5 65.5 -170.5 q0 -104 -67.5 -170.5 q-67.5 -66.5 -174.5 -66.5 Z" /><glyph glyph-name="six" unicode="6" d="M132 457 l188 253 l57 0 l-198 -262 q59 36 121 36 q109 0 177.5 -71 q68.5 -71 68.5 -176 q0 -106 -71.5 -177.5 q-71.5 -71.5 -175.5 -71.5 q-104 0 -176.5 72 q-72.5 72 -72.5 177 q0 61 18 109.5 q18 48.5 64 110.5 ZM98 237 q0 -89 56.5 -146.5 q56.5 -57.5 144.5 -57.5 q87 0 143 57.5 q56 57.5 56 146.5 q0 88 -56 145 q-56 57 -143 57 q-88 0 -144.5 -57 q-56.5 -57 -56.5 -145 Z" /><glyph glyph-name="seven" unicode="7" d="M10 710 l470 0 l0 -44 l-288 -666 l-50 0 l290 666 l-422 0 l0 44 Z" /><glyph glyph-name="eight" unicode="8" d="M55 190 q0 66 38 115.5 q38 49.5 104 71.5 q-56 22 -86.5 65.5 q-30.5 43.5 -30.5 99.5 q0 80 61 130 q61 50 159 50 q97 0 157.5 -50 q60.5 -50 60.5 -130 q0 -58 -30.5 -101 q-30.5 -43 -85.5 -64 q65 -19 103.5 -69.5 q38.5 -50.5 38.5 -118.5 q0 -89 -68 -145 q-68 -56 -176 -56 q-109 0 -177 56.5 q-68 56.5 -68 145.5 ZM127 544 q0 -65 47.5 -105 q47.5 -40 125.5 -40 q78 0 124.5 39 q46.5 39 46.5 104 q0 62 -46.5 99 q-46.5 37 -124.5 37 q-78 0 -125.5 -36.5 q-47.5 -36.5 -47.5 -97.5 ZM102 195 q0 -73 55 -118 q55 -45 144 -45 q87 0 141.5 45 q54.5 45 54.5 117 q0 72 -54 115.5 q-54 43.5 -144 43.5 q-89 0 -143 -43.5 q-54 -43.5 -54 -114.5 Z" /><glyph glyph-name="nine" unicode="9" d="M464 253 l-188 -253 l-57 0 l198 262 q-59 -36 -121 -36 q-109 0 -177.5 71 q-68.5 71 -68.5 176 q0 106 71.5 177.5 q71.5 71.5 175.5 71.5 q104 0 176.5 -72 q72.5 -72 72.5 -177 q0 -61 -18 -109.5 q-18 -48.5 -64 -110.5 ZM498 473 q0 89 -56.5 146.5 q-56.5 57.5 -144.5 57.5 q-87 0 -143 -57.5 q-56 -57.5 -56 -146.5 q0 -88 56 -145 q56 -57 143 -57 q88 0 144.5 57 q56.5 57 56.5 145 Z" /><glyph glyph-name="colon" unicode=":" d="M173.5 397 q-16.5 -16 -38.5 -16 q-22 0 -38.5 16 q-16.5 16 -16.5 38 q0 23 16 39 q16 16 39 16 q23 0 39 -16 q16 -16 16 -39 q0 -22 -16.5 -38 ZM173.5 5 q-16.5 -16 -38.5 -16 q-22 0 -38.5 16 q-16.5 16 -16.5 38 q0 23 16 39 q16 16 39 16 q23 0 39 -16 q16 -16 16 -39 q0 -22 -16.5 -38 Z" /><glyph glyph-name="semicolon" unicode=";" d="M173.5 397 q-16.5 -16 -38.5 -16 q-22 0 -38.5 16 q-16.5 16 -16.5 38 q0 23 16 39 q16 16 39 16 q23 0 39 -16 q16 -16 16 -39 q0 -22 -16.5 -38 ZM190 29 q0 -40 -28 -71.5 q-28 -31.5 -68 -38.5 l0 32 q23 4 39 20.5 q16 16.5 16 35.5 q-9 -7 -26 -7 q-18 0 -30.5 12.5 q-12.5 12.5 -12.5 34.5 q0 22 14.5 36.5 q14.5 14.5 37.5 14.5 q23 0 40.5 -18.5 q17.5 -18.5 17.5 -50.5 Z" /><glyph glyph-name="less" unicode="&lt;" d="M580 87 l0 -47 l-500 180 l0 46 l500 180 l0 -47 l-442 -156 l442 -156 Z" /><glyph glyph-name="equal" unicode="=" d="M80 417 l500 0 l0 -44 l-500 0 l0 44 ZM80 215 l500 0 l0 -44 l-500 0 l0 44 Z" /><glyph glyph-name="greater" unicode="&gt;" d="M580 220 l-500 -180 l0 47 l442 156 l-442 156 l0 47 l500 -180 l0 -46 Z" /><glyph glyph-name="question" unicode="?" d="M247 154 l-45 0 l0 28 q0 52 27.5 87.5 q27.5 35.5 80.5 75.5 q35 27 54 44.5 q19 17.5 36.5 50.5 q17.5 33 17.5 70 q0 71 -46.5 119 q-46.5 48 -121.5 48 q-70 0 -119.5 -49 q-49.5 -49 -49.5 -118 l-46 0 q0 88 63 150 q63 62 152 62 q96 0 155 -61 q59 -61 59 -151 q0 -48 -21 -88 q-21 -40 -43 -60 q-22 -20 -61 -50 q-48 -36 -70 -64 q-22 -28 -22 -66 l0 -28 ZM229 -14 q-23 0 -39.5 16 q-16.5 16 -16.5 39 q0 23 16.5 39 q16.5 16 39.5 16 q22 0 38 -16.5 q16 -16.5 16 -38.5 q0 -22 -16 -38.5 q-16 -16.5 -38 -16.5 Z" /><glyph glyph-name="at" unicode="@" d="M253 218 q0 59 45 97 q45 38 123 44 l153 12 l0 17 q0 127 -130 127 q-61 0 -95.5 -27 q-34.5 -27 -34.5 -75 l-45 0 q0 64 48.5 103 q48.5 39 127.5 39 q82 0 127.5 -42.5 q45.5 -42.5 45.5 -118.5 l0 -206 q0 -62 67 -62 q56 0 90 55.5 q34 55.5 34 145.5 q0 156 -102.5 256.5 q-102.5 100.5 -261.5 100.5 q-152 0 -257.5 -106.5 q-105.5 -106.5 -105.5 -260.5 q0 -156 104.5 -263 q104.5 -107 258.5 -107 q136 0 235 84 l24 -29 q-110 -93 -259 -93 q-172 0 -288.5 117.5 q-116.5 117.5 -116.5 290.5 q0 171 117 288 q117 117 288 117 q178 0 292 -111 q114 -111 114 -284 q0 -101 -47.5 -169 q-47.5 -68 -118.5 -68 q-106 0 -111 94 q-49 -94 -170 -94 q-69 0 -110 35 q-41 35 -41 93 ZM297 218 q0 -42 29.5 -65 q29.5 -23 84.5 -23 q76 0 119.5 48.5 q43.5 48.5 43.5 133.5 l0 22 l-149 -12 q-128 -11 -128 -104 Z" /><glyph glyph-name="A" unicode="A" d="M63 0 l-48 0 l263 710 l71 0 l266 -710 l-49 0 l-75 199 l-354 0 l-74 -199 ZM307 659 l-154 -416 l322 0 l-156 416 q-1 2 -2.5 6 q-1.5 4 -2.5 7 q-1 3 -1 5 q-2 -8 -6 -18 Z" /><glyph glyph-name="B" unicode="B" d="M358 0 l-268 0 l0 710 l250 0 q101 0 159.5 -48 q58.5 -48 58.5 -132 q0 -126 -113 -171 q129 -43 129 -175 q0 -83 -59 -133.5 q-59 -50.5 -157 -50.5 ZM343 666 l-205 0 l0 -288 l216 0 q73 0 114 39 q41 39 41 109 q0 66 -43.5 103 q-43.5 37 -122.5 37 ZM361 334 l-223 0 l0 -290 l223 0 q77 0 120.5 39 q43.5 39 43.5 107 q0 67 -44 105.5 q-44 38.5 -120 38.5 Z" /><glyph glyph-name="C" unicode="C" d="M374 -11 q-146 0 -237.5 102 q-91.5 102 -91.5 264 q0 163 92.5 265 q92.5 102 240.5 102 q109 0 190 -62 q81 -62 104 -163 l-53 0 q-24 83 -90 131 q-66 48 -154 48 q-125 0 -203 -89 q-78 -89 -78 -232 q0 -143 78 -231.5 q78 -88.5 203 -88.5 q88 0 155.5 45.5 q67.5 45.5 92.5 122.5 l53 0 q-25 -96 -108.5 -155 q-83.5 -59 -193.5 -59 Z" /><glyph glyph-name="D" unicode="D" d="M289 0 l-199 0 l0 710 l199 0 q161 0 259.5 -97.5 q98.5 -97.5 98.5 -257.5 q0 -160 -98.5 -257.5 q-98.5 -97.5 -259.5 -97.5 ZM289 666 l-151 0 l0 -622 l151 0 q140 0 224.5 84.5 q84.5 84.5 84.5 226.5 q0 143 -83.5 227 q-83.5 84 -225.5 84 Z" /><glyph glyph-name="E" unicode="E" d="M508 0 l-418 0 l0 710 l417 0 l0 -44 l-369 0 l0 -288 l336 0 l0 -44 l-336 0 l0 -290 l370 0 l0 -44 Z" /><glyph glyph-name="F" unicode="F" d="M440 322 l-302 0 l0 -322 l-48 0 l0 710 l408 0 l0 -44 l-360 0 l0 -300 l302 0 l0 -44 Z" /><glyph glyph-name="G" unicode="G" d="M381 676 q-129 0 -208 -89 q-79 -89 -79 -234 q0 -146 79.5 -232.5 q79.5 -86.5 210.5 -86.5 q47 0 88.5 12 q41.5 12 79.5 38 q38 26 60.5 77 q22.5 51 22.5 121 l0 51 l-276 0 l0 44 l322 0 l0 -378 l-36 0 l-6 128 q-29 -61 -96.5 -100 q-67.5 -39 -156.5 -39 q-153 0 -247 100 q-94 100 -94 264 q0 164 93.5 267 q93.5 103 242.5 103 q108 0 186 -55.5 q78 -55.5 101 -147.5 l-53 0 q-24 76 -86 116.5 q-62 40.5 -148 40.5 Z" /><glyph glyph-name="H" unicode="H" d="M138 0 l-48 0 l0 710 l48 0 l0 -327 l413 0 l0 327 l48 0 l0 -710 l-48 0 l0 339 l-413 0 l0 -339 Z" /><glyph glyph-name="I" unicode="I" d="M138 710 l0 -710 l-48 0 l0 710 l48 0 Z" /><glyph glyph-name="J" unicode="J" d="M20 193 l0 22 l47 0 l0 -22 q0 -74 38 -116.5 q38 -42.5 108 -42.5 q72 0 109 42.5 q37 42.5 37 116.5 l0 517 l48 0 l0 -517 q0 -96 -54 -150.5 q-54 -54.5 -141 -54.5 q-89 0 -140.5 56 q-51.5 56 -51.5 149 Z" /><glyph glyph-name="K" unicode="K" d="M138 710 l0 -452 l365 452 l58 0 l-243 -300 l248 -410 l-56 0 l-224 371 l-148 -183 l0 -188 l-48 0 l0 710 l48 0 Z" /><glyph glyph-name="L" unicode="L" d="M138 710 l0 -666 l338 0 l0 -44 l-386 0 l0 710 l48 0 Z" /><glyph glyph-name="M" unicode="M" d="M138 0 l-48 0 l0 710 l48 0 l272 -652 l271 652 l49 0 l0 -710 l-48 0 l0 389 q0 145 5 223 l-253 -612 l-48 0 l-253 609 q5 -50 5 -220 l0 -389 Z" /><glyph glyph-name="N" unicode="N" d="M138 0 l-48 0 l0 710 l49 0 l416 -629 l0 629 l48 0 l0 -710 l-48 0 l-417 631 l0 -631 Z" /><glyph glyph-name="O" unicode="O" d="M622 619 q94 -103 94 -264 q0 -161 -94 -264 q-94 -103 -242 -103 q-148 0 -241.5 103 q-93.5 103 -93.5 264 q0 161 94 264 q94 103 241 103 q148 0 242 -103 ZM587 123.5 q80 89.5 80 231.5 q0 142 -80 231.5 q-80 89.5 -207 89.5 q-126 0 -206 -89.5 q-80 -89.5 -80 -231.5 q0 -142 80 -231.5 q80 -89.5 206 -89.5 q127 0 207 89.5 Z" /><glyph glyph-name="P" unicode="P" d="M355 267 l-217 0 l0 -267 l-48 0 l0 710 l265 0 q101 0 159.5 -60 q58.5 -60 58.5 -160 q0 -96 -60 -159.5 q-60 -63.5 -158 -63.5 ZM353 666 l-215 0 l0 -355 l209 0 q82 0 129.5 50 q47.5 50 47.5 131 q0 80 -46.5 127 q-46.5 47 -124.5 47 Z" /><glyph glyph-name="Q" unicode="Q" d="M651 -35 l-75 84 q-84 -61 -196 -61 q-148 0 -241.5 103 q-93.5 103 -93.5 264 q0 161 94 264 q94 103 241 103 q148 0 242 -103 q94 -103 94 -264 q0 -169 -104 -275 l73 -82 l-34 -33 ZM667 355 q0 142 -80 231.5 q-80 89.5 -207 89.5 q-126 0 -206 -89.5 q-80 -89.5 -80 -231.5 q0 -142 80 -231.5 q80 -89.5 206 -89.5 q94 0 164 51 l-91 102 l34 33 l93 -104 q87 90 87 239 Z" /><glyph glyph-name="R" unicode="R" d="M138 0 l-48 0 l0 710 l262 0 q101 0 160.5 -54 q59.5 -54 59.5 -145 q0 -78 -41 -130.5 q-41 -52.5 -112 -67.5 l159 -313 l-54 0 l-155 307 l-231 0 l0 -307 ZM138 666 l0 -315 l216 0 q80 0 124.5 42 q44.5 42 44.5 116 q0 75 -46 116 q-46 41 -125 41 l-214 0 Z" /><glyph glyph-name="S" unicode="S" d="M46 531 q0 87 63 139 q63 52 168 52 q91 0 148.5 -48 q57.5 -48 68.5 -134 l-50 0 q-8 66 -51 102 q-43 36 -116 36 q-83 0 -133 -40 q-50 -40 -50 -107 q0 -102 122 -134 l126 -32 q80 -20 122 -67 q42 -47 42 -115 q0 -89 -63.5 -142 q-63.5 -53 -170.5 -53 q-100 0 -163 48.5 q-63 48.5 -71 131.5 l51 0 q3 -61 53.5 -98 q50.5 -37 129.5 -37 q85 0 135.5 40.5 q50.5 40.5 50.5 108.5 q0 107 -125 138 l-123 31 q-164 41 -164 180 Z" /><glyph glyph-name="T" unicode="T" d="M10 666 l0 44 l494 0 l0 -44 l-223 0 l0 -666 l-48 0 l0 666 l-223 0 Z" /><glyph glyph-name="U" unicode="U" d="M85 241 l0 469 l48 0 l0 -468 q0 -100 53.5 -153.5 q53.5 -53.5 153.5 -53.5 q98 0 151 53.5 q53 53.5 53 153.5 l0 468 l48 0 l0 -469 q0 -119 -67 -186 q-67 -67 -185 -67 q-120 0 -187.5 67 q-67.5 67 -67.5 186 Z" /><glyph glyph-name="V" unicode="V" d="M283 0 l-273 710 l51 0 l205 -531 q26 -66 44 -121 q21 66 43 122 l204 530 l49 0 l-272 -710 l-51 0 Z" /><glyph glyph-name="W" unicode="W" d="M225 0 l-210 710 l50 0 l158 -538 q11 -41 26 -107 q11 43 31 107 l173 538 l48 0 l174 -538 q12 -37 30 -106 q13 62 26 106 l160 538 l49 0 l-212 -710 l-44 0 l-207 640 l-206 -640 l-46 0 Z" /><glyph glyph-name="X" unicode="X" d="M264 354 l-254 356 l57 0 l152 -212 q46 -64 71 -110 l224 322 l54 0 l-249 -354 l254 -356 l-57 0 l-160 223 q-38 51 -64 94 l-222 -317 l-56 0 l250 354 Z" /><glyph glyph-name="Y" unicode="Y" d="M251 304 l-241 406 l55 0 l190 -328 q11 -19 20 -38 q11 21 20 38 l188 328 l53 0 l-237 -406 l0 -304 l-48 0 l0 304 Z" /><glyph glyph-name="Z" unicode="Z" d="M531 0 l-486 0 l0 43 l434 623 l-432 0 l0 44 l489 0 l0 -43 l-434 -623 l429 0 l0 -44 Z" /><glyph glyph-name="bracketleft" unicode="[" d="M88 -5 l140 0 l0 -40 l-183 0 l0 800 l183 0 l0 -40 l-140 0 l0 -720 Z" /><glyph glyph-name="backslash" unicode="\" d="M47 710 l277 -710 l-46 0 l-278 710 l47 0 Z" /><glyph glyph-name="bracketright" unicode="]" d="M5 -45 l0 40 l140 0 l0 720 l-140 0 l0 40 l183 0 l0 -800 l-183 0 Z" /><glyph glyph-name="asciicircum" unicode="^" d="M126 400 l-46 0 l133 310 l46 0 l133 -310 l-46 0 l-110 258 l-110 -258 Z" /><glyph glyph-name="underscore" unicode="_" d="M60 -66 l0 46 l386 0 l0 -46 l-386 0 Z" /><glyph glyph-name="grave" unicode="`" d="M147 765 l-42 0 l-65 107 l55 0 l52 -107 Z" /><glyph glyph-name="a" unicode="a" d="M212 -12 q-76 0 -119 38 q-43 38 -43 101 q0 66 48 106 q48 40 132 47 l165 13 l0 18 q0 139 -140 139 q-67 0 -104.5 -29.5 q-37.5 -29.5 -37.5 -82.5 l-46 0 q0 70 52 112 q52 42 137 42 q83 0 134 -43 q51 -43 51 -131 l0 -318 l-37 0 l-9 90 q-25 -49 -73 -75.5 q-48 -26.5 -110 -26.5 ZM218 29 q83 0 130 55 q47 55 47 145 l0 26 l-161 -13 q-70 -6 -104 -36.5 q-34 -30.5 -34 -77.5 q0 -48 33 -73.5 q33 -25.5 89 -25.5 Z" /><glyph glyph-name="b" unicode="b" d="M113 0 l-37 0 l0 722 l46 0 l0 -346 q52 116 186 116 q103 0 162 -71 q59 -71 59 -181 q0 -110 -59 -181 q-59 -71 -162 -71 q-135 0 -188 120 l-7 -108 ZM123 240 q0 -94 48 -152 q48 -58 132 -58 q84 0 131.5 58 q47.5 58 47.5 152 q0 93 -47.5 151.5 q-47.5 58.5 -131.5 58.5 q-84 0 -132 -58.5 q-48 -58.5 -48 -151.5 Z" /><glyph glyph-name="c" unicode="c" d="M40 238 q0 114 62.5 184 q62.5 70 165.5 70 q77 0 131 -41.5 q54 -41.5 71 -110.5 l-47 0 q-15 52 -57.5 81.5 q-42.5 29.5 -97.5 29.5 q-81 0 -132 -58 q-51 -58 -51 -154 q0 -93 48.5 -151 q48.5 -58 128.5 -58 q57 0 101.5 30 q44.5 30 61.5 79 l47 0 q-20 -68 -77 -109.5 q-57 -41.5 -133 -41.5 q-99 0 -160.5 69 q-61.5 69 -61.5 181 Z" /><glyph glyph-name="d" unicode="d" d="M261 -12 q-103 0 -162 71 q-59 71 -59 181 q0 110 59 181 q59 71 162 71 q134 0 186 -116 l0 346 l46 0 l0 -722 l-37 0 l-7 108 q-53 -120 -188 -120 ZM134.5 88 q47.5 -58 131.5 -58 q84 0 132 58 q48 58 48 152 q0 93 -48 151.5 q-48 58.5 -132 58.5 q-84 0 -131.5 -58.5 q-47.5 -58.5 -47.5 -151.5 q0 -94 47.5 -152 Z" /><glyph glyph-name="e" unicode="e" d="M271 -12 q-104 0 -167.5 69 q-63.5 69 -63.5 182 q0 113 62.5 183 q62.5 70 162.5 70 q94 0 152.5 -61.5 q58.5 -61.5 58.5 -159.5 l0 -32 l-390 0 q3 -98 51.5 -153.5 q48.5 -55.5 133.5 -55.5 q129 0 158 108 l47 0 q-42 -150 -205 -150 ZM265 450 q-73 0 -121.5 -47 q-48.5 -47 -56.5 -126 l342 0 q0 78 -45 125.5 q-45 47.5 -119 47.5 Z" /><glyph glyph-name="f" unicode="f" d="M20 480 l75 0 l0 108 q0 69 32.5 101.5 q32.5 32.5 82.5 32.5 q28 0 49 -3 l0 -40 l-41 0 q-43 0 -60 -21.5 q-17 -21.5 -17 -69.5 l0 -108 l113 0 l0 -40 l-113 0 l0 -440 l-46 0 l0 440 l-75 0 l0 40 Z" /><glyph glyph-name="g" unicode="g" d="M40 255 q0 100 60.5 168.5 q60.5 68.5 163.5 68.5 q138 0 188 -124 l6 112 l37 0 l0 -470 q0 -101 -61.5 -162.5 q-61.5 -61.5 -161.5 -61.5 q-87 0 -145.5 46.5 q-58.5 46.5 -73.5 128.5 l45 0 q13 -63 59.5 -98 q46.5 -35 115.5 -35 q80 0 128.5 50 q48.5 50 48.5 132 l0 130 q-25 -58 -75.5 -90 q-50.5 -32 -115.5 -32 q-100 0 -159.5 69 q-59.5 69 -59.5 168 ZM134.5 394 q-47.5 -56 -47.5 -139 q0 -83 47 -139 q47 -56 128 -56 q84 0 132 54.5 q48 54.5 48 141.5 q0 86 -47 140 q-47 54 -131 54 q-82 0 -129.5 -56 Z" /><glyph glyph-name="h" unicode="h" d="M122 1 l-46 0 l0 721 l46 0 l0 -335 q24 48 69 76.5 q45 28.5 107 28.5 q93 0 137.5 -53 q44.5 -53 44.5 -147 l0 -292 l-46 0 l0 283 q0 90 -36.5 128.5 q-36.5 38.5 -102.5 38.5 q-82 0 -127.5 -54.5 q-45.5 -54.5 -45.5 -134.5 l0 -260 Z" /><glyph glyph-name="i" unicode="i" d="M128.5 639.5 q-12.5 -12.5 -29.5 -12.5 q-17 0 -29.5 12 q-12.5 12 -12.5 29 q0 17 12.5 30 q12.5 13 29.5 13 q17 0 29.5 -13 q12.5 -13 12.5 -30 q0 -16 -12.5 -28.5 ZM76 0 l0 480 l46 0 l0 -480 l-46 0 Z" /><glyph glyph-name="j" unicode="j" d="M128.5 639.5 q-12.5 -12.5 -29.5 -12.5 q-17 0 -29.5 12 q-12.5 12 -12.5 29 q0 17 12.5 30 q12.5 13 29.5 13 q17 0 29.5 -13 q12.5 -13 12.5 -30 q0 -16 -12.5 -28.5 ZM-58 -204 l10 44 q29 -7 50 -7 q74 0 74 93 l0 554 l46 0 l0 -554 q0 -65 -31 -101.5 q-31 -36.5 -87 -36.5 q-33 0 -62 8 Z" /><glyph glyph-name="k" unicode="k" d="M126 0 l-46 0 l0 722 l46 0 l0 -511 l261 269 l59 0 l-186 -192 l188 -288 l-53 0 l-166 257 l-103 -107 l0 -150 Z" /><glyph glyph-name="l" unicode="l" d="M126 0 l-46 0 l0 722 l46 0 l0 -722 Z" /><glyph glyph-name="m" unicode="m" d="M122 0 l-46 0 l0 480 l37 0 l7 -74 q19 41 57.5 63.5 q38.5 22.5 89.5 22.5 q57 0 99 -29 q42 -29 58 -79 q16 50 58 79 q42 29 101 29 q76 0 123 -47.5 q47 -47.5 47 -130.5 l0 -314 l-44 0 l0 308 q0 66 -35 104 q-35 38 -95 38 q-65 0 -103 -42.5 q-38 -42.5 -38 -100.5 l0 -307 l-45 0 l0 309 q0 66 -35 103.5 q-35 37.5 -95 37.5 q-65 0 -103 -42 q-38 -42 -38 -100 l0 -308 Z" /><glyph glyph-name="n" unicode="n" d="M122 0 l-46 0 l0 480 l37 0 l10 -93 q24 50 69.5 77.5 q45.5 27.5 100.5 27.5 q187 0 187 -200 l0 -292 l-46 0 l0 283 q0 91 -36.5 129 q-36.5 38 -105.5 38 q-80 0 -125 -55 q-45 -55 -45 -147 l0 -248 Z" /><glyph glyph-name="o" unicode="o" d="M107.5 59.5 q-67.5 71.5 -67.5 180.5 q0 109 67.5 180.5 q67.5 71.5 170.5 71.5 q103 0 170.5 -71.5 q67.5 -71.5 67.5 -180.5 q0 -109 -67.5 -180.5 q-67.5 -71.5 -170.5 -71.5 q-103 0 -170.5 71.5 ZM140.5 391 q-53.5 -59 -53.5 -151 q0 -92 53.5 -151 q53.5 -59 137.5 -59 q84 0 137.5 59 q53.5 59 53.5 151 q0 92 -53.5 151 q-53.5 59 -137.5 59 q-84 0 -137.5 -59 Z" /><glyph glyph-name="p" unicode="p" d="M76 -203 l0 683 l37 0 l7 -108 q53 120 188 120 q103 0 162 -71 q59 -71 59 -181 q0 -110 -59 -181 q-59 -71 -162 -71 q-134 0 -186 116 l0 -307 l-46 0 ZM123 240 q0 -93 48 -151.5 q48 -58.5 132 -58.5 q84 0 131.5 58.5 q47.5 58.5 47.5 151.5 q0 94 -47.5 152 q-47.5 58 -131.5 58 q-84 0 -132 -58 q-48 -58 -48 -152 Z" /><glyph glyph-name="q" unicode="q" d="M99 59 q-59 71 -59 181 q0 110 59 181 q59 71 162 71 q135 0 188 -120 l7 108 l37 0 l0 -683 l-46 0 l0 307 q-52 -116 -186 -116 q-103 0 -162 71 ZM87 240 q0 -93 47.5 -151.5 q47.5 -58.5 131.5 -58.5 q84 0 132 58.5 q48 58.5 48 151.5 q0 94 -48 152 q-48 58 -132 58 q-84 0 -131.5 -58 q-47.5 -58 -47.5 -152 Z" /><glyph glyph-name="r" unicode="r" d="M305 487 l0 -40 l-36 0 q-66 0 -106.5 -43.5 q-40.5 -43.5 -40.5 -111.5 l0 -292 l-46 0 l0 480 l43 0 l4 -77 q14 41 51.5 65 q37.5 24 88.5 24 q22 0 42 -5 Z" /><glyph glyph-name="s" unicode="s" d="M33 130 l45 0 q0 -46 32 -73 q32 -27 88 -27 q61 0 96 25.5 q35 25.5 35 69.5 q0 35 -19.5 55 q-19.5 20 -65.5 32 l-81 21 q-121 31 -121 126 q0 60 45.5 96.5 q45.5 36.5 119.5 36.5 q74 0 118 -37.5 q44 -37.5 46 -102.5 l-45 0 q-2 46 -33.5 72 q-31.5 26 -85.5 26 q-58 0 -88.5 -23.5 q-30.5 -23.5 -30.5 -67.5 q0 -63 86 -85 l80 -21 q63 -17 92 -47.5 q29 -30.5 29 -80.5 q0 -62 -48 -99.5 q-48 -37.5 -127 -37.5 q-77 0 -122 38.5 q-45 38.5 -45 103.5 Z" /><glyph glyph-name="t" unicode="t" d="M163 0 l-46 0 l0 440 l-97 0 l0 40 l97 0 l0 152 l46 0 l0 -152 l97 0 l0 -40 l-97 0 l0 -440 Z" /><glyph glyph-name="u" unicode="u" d="M418 480 l46 0 l0 -480 l-37 0 l-9 89 q-20 -45 -67 -73 q-47 -28 -107 -28 q-84 0 -129 53 q-45 53 -45 143 l0 297 l47 0 l0 -285 q0 -166 138 -166 q76 0 119.5 51 q43.5 51 43.5 143 l0 256 Z" /><glyph glyph-name="v" unicode="v" d="M209 0 l-199 480 l49 0 l143 -349 q20 -50 31 -84 q8 28 31 84 l143 349 l48 0 l-199 -480 l-47 0 Z" /><glyph glyph-name="w" unicode="w" d="M175 0 l-160 480 l47 0 l108 -326 q15 -45 29 -95 q16 70 28 95 l108 326 l47 0 l108 -326 q17 -48 29 -94 q13 47 28 94 l109 326 l47 0 l-161 -480 l-47 0 l-114 343 q-14 40 -22 77 q-10 -39 -23 -77 l-114 -343 l-47 0 Z" /><glyph glyph-name="x" unicode="x" d="M66 0 l-56 0 l174 242 l-173 238 l56 0 l149 -206 l149 206 l55 0 l-174 -240 l174 -240 l-56 0 l-150 207 l-148 -207 Z" /><glyph glyph-name="y" unicode="y" d="M24 -203 l0 37 l45 0 q20 0 31.5 1.5 q11.5 1.5 29 7 q17.5 5.5 30 20.5 q12.5 15 21.5 39 l24 65 l-195 513 l48 0 l169 -450 l162 450 l47 0 l-213 -591 q-36 -98 -134 -98 q-35 0 -65 6 Z" /><glyph glyph-name="z" unicode="z" d="M390 0 l-350 0 l0 36 l295 404 l-295 0 l0 40 l350 0 l0 -37 l-294 -403 l294 0 l0 -40 Z" /><glyph glyph-name="braceleft" unicode="{" d="M45 334 l0 43 q80 0 80 61 l0 234 q0 37 23 60 q23 23 64 23 l50 0 l0 -40 l-51 0 q-20 0 -31.5 -12 q-11.5 -12 -11.5 -31 l0 -234 q0 -65 -55 -82 q55 -18 55 -83 l0 -235 q0 -19 11.5 -31 q11.5 -12 31.5 -12 l51 0 l0 -40 l-50 0 q-41 0 -64 23 q-23 23 -23 60 l0 235 q0 61 -80 61 Z" /><glyph glyph-name="bar" unicode="|" d="M130 -84 l0 878 l40 0 l0 -878 l-40 0 Z" /><glyph glyph-name="braceright" unicode="}" d="M55 -45 l-50 0 l0 40 l51 0 q20 0 31.5 12 q11.5 12 11.5 31 l0 235 q0 65 55 83 q-55 17 -55 82 l0 234 q0 19 -11.5 31 q-11.5 12 -31.5 12 l-51 0 l0 40 l50 0 q41 0 64 -23 q23 -23 23 -60 l0 -234 q0 -61 80 -61 l0 -43 q-80 0 -80 -61 l0 -235 q0 -37 -23 -60 q-23 -23 -64 -23 Z" /><glyph glyph-name="asciitilde" unicode="~" d="M537 357 l43 0 q0 -65 -32 -103.5 q-32 -38.5 -86 -38.5 q-42 0 -92 26.5 q-50 26.5 -95.5 52.5 q-45.5 26 -77.5 26 q-37 0 -54.5 -21.5 q-17.5 -21.5 -19.5 -73.5 l-43 0 q0 64 32 101.5 q32 37.5 85 37.5 q46 0 135 -52.5 q89 -52.5 131 -52.5 q36 0 54 23 q18 23 20 75 Z" /><glyph glyph-name="yen" unicode="¥" d="M245 332 l-225 378 l53 0 l212 -367 l208 367 l52 0 l-221 -378 l168 0 l0 -42 l-184 0 l0 -80 l184 0 l0 -42 l-184 0 l0 -168 l-46 0 l0 168 l-185 0 l0 42 l185 0 l0 80 l-185 0 l0 42 l168 0 Z" /><glyph glyph-name="copyright" unicode="©" d="M407 -14 q-156 0 -261.5 106 q-105.5 106 -105.5 263 q0 155 106 261 q106 106 261 106 q156 0 262 -105.5 q106 -105.5 106 -261.5 q0 -157 -105.5 -263 q-105.5 -106 -262.5 -106 ZM407 24 q140 0 233 94.5 q93 94.5 93 236.5 q0 141 -93 235 q-93 94 -233 94 q-139 0 -232 -94.5 q-93 -94.5 -93 -234.5 q0 -142 93 -236.5 q93 -94.5 232 -94.5 ZM226 352 q0 91 53 148 q53 57 138 57 q61 0 105 -33.5 q44 -33.5 58 -89.5 l-47 0 q-23 82 -116 82 q-65 0 -106 -45.5 q-41 -45.5 -41 -117.5 q0 -71 39.5 -116 q39.5 -45 102.5 -45 q95 0 123 81 l46 0 q-16 -55 -62 -88.5 q-46 -33.5 -107 -33.5 q-82 0 -134 56.5 q-52 56.5 -52 144.5 Z" /><glyph glyph-name="periodcentered" unicode="·" d="M180 193 q-23 -23 -55 -23 q-32 0 -55 23 q-23 23 -23 54 q0 32 23 55 q23 23 55 23 q32 0 55 -23 q23 -23 23 -55 q0 -31 -23 -54 Z" /><glyph glyph-name="threequarters" unicode="¾" d="M22 486 l41 0 q0 -32 19 -50.5 q19 -18.5 52 -18.5 q33 0 51.5 17 q18.5 17 18.5 46 q0 74 -92 74 l-20 0 l0 28 l95 90 l-149 0 l0 38 l200 0 l0 -39 l-91 -85 q44 -3 71 -31 q27 -28 27 -70 q0 -49 -30 -77.5 q-30 -28.5 -82 -28.5 q-49 0 -80 30 q-31 30 -31 77 ZM567 710 l-455 -710 l-48 0 l454 710 l49 0 ZM500 67 l-170 0 l0 37 l161 221 l48 0 l0 -221 l40 0 l0 -37 l-40 0 l0 -67 l-39 0 l0 67 ZM374 104 l126 0 l0 173 l-126 -173 Z" /><glyph glyph-name="aring" unicode="å" d="M259 536 q-43 0 -71 28 q-28 28 -28 72 q0 43 28.5 71 q28.5 28 70.5 28 q42 0 70.5 -28.5 q28.5 -28.5 28.5 -70.5 q0 -42 -28.5 -71 q-28.5 -29 -70.5 -29 ZM218 592 q16 -17 41 -17 q25 0 41 17 q16 17 16 44 q0 26 -16 43.5 q-16 17.5 -41 17.5 q-25 0 -41 -17 q-16 -17 -16 -44 q0 -27 16 -44 ZM212 -12 q-76 0 -119 38 q-43 38 -43 101 q0 66 48 106 q48 40 132 47 l165 13 l0 18 q0 139 -140 139 q-67 0 -104.5 -29.5 q-37.5 -29.5 -37.5 -82.5 l-46 0 q0 70 52 112 q52 42 137 42 q83 0 134 -43 q51 -43 51 -131 l0 -318 l-37 0 l-9 90 q-25 -49 -73 -75.5 q-48 -26.5 -110 -26.5 ZM218 29 q83 0 130 55 q47 55 47 145 l0 26 l-161 -13 q-70 -6 -104 -36.5 q-34 -30.5 -34 -77.5 q0 -48 33 -73.5 q33 -25.5 89 -25.5 Z" /><glyph glyph-name="ae" unicode="æ" d="M50 130 q0 68 46.5 103 q46.5 35 127.5 37 l171 4 l0 37 q0 66 -38 102.5 q-38 36.5 -102 36.5 q-67 0 -104.5 -29.5 q-37.5 -29.5 -37.5 -82.5 l-46 0 q0 70 52 112 q52 42 137 42 q63 0 110 -31.5 q47 -31.5 61 -82.5 q28 54 78 84 q50 30 114 30 q94 0 152.5 -61.5 q58.5 -61.5 58.5 -159.5 l0 -32 l-391 0 q3 -97 52 -153 q49 -56 134 -56 q129 0 158 108 l47 0 q-42 -150 -205 -150 q-73 0 -126.5 35 q-53.5 35 -80.5 98 q-20 -59 -75 -96 q-55 -37 -129 -37 q-77 0 -120.5 38.5 q-43.5 38.5 -43.5 103.5 ZM619 450 q-72 0 -121.5 -47.5 q-49.5 -47.5 -57.5 -125.5 l343 0 q0 78 -45 125.5 q-45 47.5 -119 47.5 ZM96 133 q0 -52 34 -78 q34 -26 94 -26 q77 0 124 47.5 q47 47.5 47 124.5 l0 35 l-171 -4 q-128 -3 -128 -99 Z" /><glyph glyph-name="ccedilla" unicode="ç" d="M40 238 q0 114 62.5 184 q62.5 70 165.5 70 q77 0 131 -41.5 q54 -41.5 71 -110.5 l-47 0 q-15 52 -57.5 81.5 q-42.5 29.5 -97.5 29.5 q-81 0 -132 -58 q-51 -58 -51 -154 q0 -93 48.5 -151 q48.5 -58 128.5 -58 q57 0 101.5 30 q44.5 30 61.5 79 l47 0 q-19 -65 -71 -105.5 q-52 -40.5 -122 -44.5 l-15 -33 q17 5 28 5 q28 0 46 -17 q18 -17 18 -45 q0 -33 -23 -51 q-23 -18 -56 -18 q-37 0 -57 14 l0 36 q26 -15 52 -15 q19 0 31.5 8 q12.5 8 12.5 24 q0 32 -39 32 q-20 0 -49 -13 l-8 22 l24 51 q-92 7 -148 74.5 q-56 67.5 -56 174.5 Z" /><glyph glyph-name="endash" unicode="&#x2013;" d="M65 240 l0 42 l776 0 l0 -42 l-776 0 Z" /><glyph glyph-name="emdash" unicode="&#x2014;" d="M65 240 l0 42 l977 0 l0 -42 l-977 0 Z" /><glyph glyph-name="quoteleft" unicode="&#x2018;" d="M157.5 629.5 q12.5 -12.5 12.5 -34.5 q0 -22 -14.5 -36.5 q-14.5 -14.5 -37.5 -14.5 q-23 0 -40.5 18.5 q-17.5 18.5 -17.5 50.5 q0 40 28 71.5 q28 31.5 68 38.5 l0 -32 q-23 -4 -39 -20.5 q-16 -16.5 -16 -35.5 q9 7 26 7 q18 0 30.5 -12.5 Z" /><glyph glyph-name="quoteright" unicode="&#x2019;" d="M170 654 q0 -40 -28 -71.5 q-28 -31.5 -68 -38.5 l0 32 q23 4 39 20.5 q16 16.5 16 35.5 q-9 -7 -26 -7 q-18 0 -30.5 12.5 q-12.5 12.5 -12.5 34.5 q0 22 14.5 36.5 q14.5 14.5 37.5 14.5 q23 0 40.5 -18.5 q17.5 -18.5 17.5 -50.5 Z" /><glyph glyph-name="quotedblleft" unicode="&#x201c;" d="M157.5 629.5 q12.5 -12.5 12.5 -34.5 q0 -22 -14.5 -36.5 q-14.5 -14.5 -37.5 -14.5 q-23 0 -40.5 18.5 q-17.5 18.5 -17.5 50.5 q0 40 28 71.5 q28 31.5 68 38.5 l0 -32 q-23 -4 -39 -20.5 q-16 -16.5 -16 -35.5 q9 7 26 7 q18 0 30.5 -12.5 ZM303.5 629.5 q12.5 -12.5 12.5 -34.5 q0 -22 -14.5 -36.5 q-14.5 -14.5 -37.5 -14.5 q-23 0 -40.5 18.5 q-17.5 18.5 -17.5 50.5 q0 40 28 71.5 q28 31.5 68 38.5 l0 -32 q-23 -4 -39 -20.5 q-16 -16.5 -16 -35.5 q9 7 26 7 q18 0 30.5 -12.5 Z" /><glyph glyph-name="quotedblright" unicode="&#x201d;" d="M170 654 q0 -40 -28 -71.5 q-28 -31.5 -68 -38.5 l0 32 q23 4 39 20.5 q16 16.5 16 35.5 q-9 -7 -26 -7 q-18 0 -30.5 12.5 q-12.5 12.5 -12.5 34.5 q0 22 14.5 36.5 q14.5 14.5 37.5 14.5 q23 0 40.5 -18.5 q17.5 -18.5 17.5 -50.5 ZM316 654 q0 -40 -28 -71.5 q-28 -31.5 -68 -38.5 l0 32 q23 4 39 20.5 q16 16.5 16 35.5 q-9 -7 -26 -7 q-18 0 -30.5 12.5 q-12.5 12.5 -12.5 34.5 q0 22 14.5 36.5 q14.5 14.5 37.5 14.5 q23 0 40.5 -18.5 q17.5 -18.5 17.5 -50.5 Z" /><glyph glyph-name="bullet" unicode="&#x2022;" d="M176 133 q-53 0 -91 37.5 q-38 37.5 -38 89.5 q0 52 38 90 q38 38 91 38 q52 0 90 -38 q38 -38 38 -90 q0 -51 -38 -89 q-38 -38 -90 -38 Z" /><glyph glyph-name="ellipsis" unicode="&#x2026;" d="M163.5 5 q-16.5 -16 -38.5 -16 q-22 0 -38.5 16 q-16.5 16 -16.5 38 q0 23 16 39 q16 16 39 16 q23 0 39 -16 q16 -16 16 -39 q0 -22 -16.5 -38 ZM363.5 5 q-16.5 -16 -38.5 -16 q-22 0 -38.5 16 q-16.5 16 -16.5 38 q0 23 16 39 q16 16 39 16 q23 0 39 -16 q16 -16 16 -39 q0 -22 -16.5 -38 ZM563.5 5 q-16.5 -16 -38.5 -16 q-22 0 -38.5 16 q-16.5 16 -16.5 38 q0 23 16 39 q16 16 39 16 q23 0 39 -16 q16 -16 16 -39 q0 -22 -16.5 -38 Z" /></font>
</defs>
</svg>
