<?xml version="1.0" standalone="no"?><!DOCTYPE svg PUBLIC "-//W3C//DTD SVG 1.1//EN" "http://www.w3.org/Graphics/SVG/1.1/DTD/svg11.dtd" ><svg xmlns="http://www.w3.org/2000/svg"><metadata></metadata><defs><font id="2.000;ITFO;Satoshi-Regular" horiz-adv-x="1138"><font-face font-family="false" font-weight="400" font-stretch="normal" units-per-em="1000" panose-1="0 0 0 0 0 0 0 0 0 0" ascent="1010" descent="-240" x-height="0" bbox="-57 -223 1072 886" underline-thickness="80" underline-position="-195" unicode-range="U+0020-2026" /><missing-glyph horiz-adv-x="500" d="M50 -211 l0 1073 l400 0 l0 -1073 l-400 0 ZM100 -161 l300 0 l0 973 l-300 0 l0 -973 Z" /><glyph glyph-name="space" unicode=" " d="" /><glyph glyph-name="exclam" unicode="!" d="M160 215 l-50 0 q-12 107 -12 332 l0 169 l75 0 l0 -169 q0 -217 -13 -332 ZM136 -14 q-26 0 -44.5 18.5 q-18.5 18.5 -18.5 44.5 q0 26 18.5 44 q18.5 18 44.5 18 q25 0 43.5 -18.5 q18.5 -18.5 18.5 -43.5 q0 -25 -18.5 -44 q-18.5 -19 -43.5 -19 Z" /><glyph glyph-name="quotedbl" unicode="&quot;" d="M130 667 l-19 -199 l-45 0 l-20 199 q-3 24 10.5 37.5 q13.5 13.5 32.5 13.5 q18 0 31 -13.5 q13 -13.5 10 -37.5 ZM271 667 l-19 -199 l-45 0 l-20 199 q-3 24 10.5 37.5 q13.5 13.5 32.5 13.5 q18 0 31 -13.5 q13 -13.5 10 -37.5 Z" /><glyph glyph-name="numbersign" unicode="#" d="M60 276 l104 0 l33 164 l-122 0 l12 65 l122 0 l42 211 l68 0 l-41 -211 l175 0 l42 211 l69 0 l-42 -211 l106 0 l-13 -65 l-105 0 l-33 -164 l111 0 l-12 -65 l-111 0 l-42 -211 l-69 0 l42 211 l-176 0 l-41 -211 l-69 0 l42 211 l-105 0 l13 65 ZM233 276 l175 0 l33 164 l-176 0 l-32 -164 Z" /><glyph glyph-name="dollar" unicode="$" d="M254 -99 l0 88 q-95 5 -154 56 q-59 51 -65 133 l74 0 q3 -52 41.5 -85.5 q38.5 -33.5 103.5 -38.5 l0 278 l-39 10 q-171 41 -171 188 q0 83 57 136.5 q57 53.5 153 61.5 l0 87 l53 0 l0 -87 q87 -6 141 -56.5 q54 -50.5 61 -134.5 l-72 0 q-11 115 -130 127 l0 -275 l44 -11 q170 -42 170 -187 q0 -86 -57.5 -140 q-57.5 -54 -156.5 -62 l0 -88 l-53 0 ZM228 408 l26 -6 l0 261 q-64 -7 -101.5 -42 q-37.5 -35 -37.5 -90 q0 -95 113 -123 ZM336 312 l-29 7 l0 -265 q66 7 104.5 42.5 q38.5 35.5 38.5 90.5 q0 98 -114 125 Z" /><glyph glyph-name="percent" unicode="%" d="M349.5 679.5 q49.5 -50.5 49.5 -127.5 q0 -77 -49.5 -127 q-49.5 -50 -125.5 -50 q-77 0 -126.5 50 q-49.5 50 -49.5 127 q0 77 50 127.5 q50 50.5 126 50.5 q76 0 125.5 -50.5 ZM762 716 l-544 -716 l-72 0 l543 716 l73 0 ZM339 552 q0 53 -32 86.5 q-32 33.5 -83 33.5 q-52 0 -84 -33.5 q-32 -33.5 -32 -86.5 q0 -53 32.5 -86.5 q32.5 -33.5 83.5 -33.5 q50 0 82.5 34 q32.5 34 32.5 86 ZM811.5 291.5 q49.5 -50.5 49.5 -127.5 q0 -77 -49.5 -127 q-49.5 -50 -125.5 -50 q-77 0 -126.5 50 q-49.5 50 -49.5 127 q0 77 50 127.5 q50 50.5 126 50.5 q76 0 125.5 -50.5 ZM801 164 q0 53 -32 86.5 q-32 33.5 -83 33.5 q-52 0 -84 -33.5 q-32 -33.5 -32 -86.5 q0 -52 32.5 -85.5 q32.5 -33.5 83.5 -33.5 q50 0 82.5 33.5 q32.5 33.5 32.5 85.5 Z" /><glyph glyph-name="ampersand" unicode="&amp;" d="M587 0 l-64 74 q-87 -87 -228 -87 q-113 0 -181 53 q-68 53 -68 142 q0 68 43 121.5 q43 53.5 140 106.5 q-51 59 -71 96 q-20 37 -20 76 q0 65 45 105.5 q45 40.5 117 40.5 q69 0 112 -38.5 q43 -38.5 43 -101.5 q0 -54 -30.5 -98 q-30.5 -44 -101.5 -92 l195 -225 q31 65 31 154 l67 0 q0 -119 -54 -204 l107 -123 l-82 0 ZM286 441 l1 -1 q102 64 102 146 q0 39 -24 61.5 q-24 22.5 -66 22.5 q-43 0 -68.5 -23.5 q-25.5 -23.5 -25.5 -64.5 q0 -27 16.5 -56.5 q16.5 -29.5 64.5 -84.5 ZM117 186 q0 -65 48.5 -102 q48.5 -37 133.5 -37 q119 0 184 73 l-218 249 q-81 -45 -114.5 -86.5 q-33.5 -41.5 -33.5 -96.5 Z" /><glyph glyph-name="quotesingle" unicode="&#39;" d="M130 667 l-19 -199 l-45 0 l-20 199 q-3 24 10.5 37.5 q13.5 13.5 32.5 13.5 q18 0 31 -13.5 q13 -13.5 10 -37.5 Z" /><glyph glyph-name="parenleft" unicode="(" d="M254 -157 l-63 0 q-64 88 -101.5 209 q-37.5 121 -37.5 248 q0 123 37 245 q37 122 102 211 l63 0 q-60 -84 -95.5 -204.5 q-35.5 -120.5 -35.5 -251.5 q0 -130 35.5 -251.5 q35.5 -121.5 95.5 -205.5 Z" /><glyph glyph-name="parenright" unicode=")" d="M63 -157 l-63 0 q60 84 96 205.5 q36 121.5 36 251.5 q0 131 -36 251.5 q-36 120.5 -96 204.5 l63 0 q65 -89 102 -210.5 q37 -121.5 37 -245.5 q0 -127 -37.5 -248 q-37.5 -121 -101.5 -209 Z" /><glyph glyph-name="asterisk" unicode="*" d="M92 569 l-63 22 l17 44 l61 -21 q46 -15 80 -37 q-9 37 -9 86 l0 67 l47 0 l0 -67 q0 -43 -9 -86 q41 24 78 37 l61 22 l19 -45 l-64 -22 q-45 -16 -84 -21 q25 -23 56 -66 l37 -54 l-39 -27 l-38 53 q-26 38 -42 76 q-10 -34 -40 -76 l-39 -53 l-39 27 l37 54 q23 34 57 66 q-44 6 -84 21 Z" /><glyph glyph-name="plus" unicode="+" d="M80 368 l219 0 l0 219 l62 0 l0 -219 l219 0 l0 -62 l-219 0 l0 -220 l-62 0 l0 220 l-219 0 l0 62 Z" /><glyph glyph-name="comma" unicode="," d="M194 34 q0 -46 -31.5 -82 q-31.5 -36 -78.5 -43 l0 37 q27 4 44.5 21.5 q17.5 17.5 17.5 38.5 q-10 -7 -26 -7 q-22 0 -37 14.5 q-15 14.5 -15 39.5 q0 26 16.5 43 q16.5 17 42.5 17 q28 0 47.5 -21.5 q19.5 -21.5 19.5 -57.5 Z" /><glyph glyph-name="hyphen" unicode="-" d="M64 232 l0 62 l290 0 l0 -62 l-290 0 Z" /><glyph glyph-name="period" unicode="." d="M175.5 7 q-18.5 -18 -44.5 -18 q-26 0 -44.5 18 q-18.5 18 -18.5 43 q0 26 19 44.5 q19 18.5 44 18.5 q25 0 44 -18.5 q19 -18.5 19 -44.5 q0 -25 -18.5 -43 Z" /><glyph glyph-name="slash" unicode="/" d="M68 0 l-68 0 l279 716 l70 0 l-281 -716 Z" /><glyph glyph-name="zero" unicode="0" d="M55 358 q0 168 77.5 270 q77.5 102 209.5 102 q132 0 209 -102 q77 -102 77 -270 q0 -169 -76.5 -270 q-76.5 -101 -209.5 -101 q-134 0 -210.5 101 q-76.5 101 -76.5 270 ZM126 358 q0 -141 57 -223.5 q57 -82.5 159 -82.5 q102 0 159 82.5 q57 82.5 57 223.5 q0 142 -57 224 q-57 82 -159 82 q-102 0 -159 -82 q-57 -82 -57 -224 Z" /><glyph glyph-name="one" unicode="1" d="M181 651 l-146 0 l0 65 l215 0 l0 -716 l-69 0 l0 651 Z" /><glyph glyph-name="two" unicode="2" d="M517 0 l-472 0 l0 57 l229 200 q99 87 132.5 137 q33.5 50 33.5 113 q0 73 -41 114.5 q-41 41.5 -112 41.5 q-74 0 -119.5 -50 q-45.5 -50 -47.5 -133 l-72 0 q3 113 68.5 181 q65.5 68 171.5 68 q101 0 163 -60 q62 -60 62 -158 q0 -77 -40.5 -140 q-40.5 -63 -149.5 -158 l-167 -146 l361 0 l0 -67 Z" /><glyph glyph-name="three" unicode="3" d="M253 384 l-57 0 l0 50 l221 218 l-343 0 l0 64 l434 0 l0 -58 l-214 -213 q102 -5 166 -65.5 q64 -60.5 64 -156.5 q0 -106 -69.5 -170.5 q-69.5 -64.5 -179.5 -64.5 q-107 0 -171.5 62 q-64.5 62 -64.5 168 l71 0 q0 -77 44.5 -121 q44.5 -44 120.5 -44 q80 0 128 47 q48 47 48 125 q0 74 -51.5 116.5 q-51.5 42.5 -146.5 42.5 Z" /><glyph glyph-name="four" unicode="4" d="M570 152 l-84 0 l0 -152 l-70 0 l0 152 l-376 0 l0 64 l350 500 l96 0 l0 -500 l84 0 l0 -64 ZM118 216 l298 0 l0 426 l-298 -426 Z" /><glyph glyph-name="five" unicode="5" d="M290 -12 q-108 0 -172 62.5 q-64 62.5 -64 168.5 l72 0 q0 -77 44 -121 q44 -44 121 -44 q81 0 129.5 49 q48.5 49 48.5 129 q0 77 -48 128 q-48 51 -130 51 q-99 0 -165 -73 l-57 18 l86 360 l346 0 l0 -66 l-294 0 l-54 -225 q62 50 148 50 q109 0 175 -69 q66 -69 66 -172 q0 -108 -70 -177 q-70 -69 -182 -69 Z" /><glyph glyph-name="six" unicode="6" d="M136 475 l179 241 l84 0 l-188 -249 q48 24 98 24 q110 0 179 -71 q69 -71 69 -178 q0 -110 -73 -182 q-73 -72 -181 -72 q-108 0 -182.5 73.5 q-74.5 73.5 -74.5 180.5 q0 62 19.5 113 q19.5 51 70.5 120 ZM170.5 375.5 q-51.5 -52.5 -51.5 -134.5 q0 -82 51.5 -135 q51.5 -53 132.5 -53 q79 0 130.5 53 q51.5 53 51.5 135 q0 82 -51 134.5 q-51 52.5 -131 52.5 q-81 0 -132.5 -52.5 Z" /><glyph glyph-name="seven" unicode="7" d="M9 716 l487 0 l0 -66 l-282 -650 l-74 0 l283 650 l-414 0 l0 66 Z" /><glyph glyph-name="eight" unicode="8" d="M51 195 q0 66 37 115.5 q37 49.5 101 71.5 q-54 22 -83.5 64 q-29.5 42 -29.5 98 q0 82 64 133.5 q64 51.5 167 51.5 q102 0 164.5 -51.5 q62.5 -51.5 62.5 -134.5 q0 -56 -29 -98.5 q-29 -42.5 -82 -62.5 q63 -20 100.5 -70.5 q37.5 -50.5 37.5 -117.5 q0 -92 -70.5 -149 q-70.5 -57 -184.5 -57 q-114 0 -184.5 57.5 q-70.5 57.5 -70.5 149.5 ZM144 542 q0 -59 44.5 -95.5 q44.5 -36.5 117.5 -36.5 q73 0 116.5 35.5 q43.5 35.5 43.5 94.5 q0 58 -43.5 91.5 q-43.5 33.5 -116.5 33.5 q-74 0 -118 -33.5 q-44 -33.5 -44 -89.5 ZM122 201 q0 -67 51 -107.5 q51 -40.5 134 -40.5 q82 0 132.5 40.5 q50.5 40.5 50.5 107.5 q0 66 -50 105.5 q-50 39.5 -135 39.5 q-83 0 -133 -39.5 q-50 -39.5 -50 -105.5 Z" /><glyph glyph-name="nine" unicode="9" d="M467 242 l-179 -242 l-84 0 l188 250 q-44 -24 -98 -24 q-110 0 -179 71 q-69 71 -69 178 q0 109 73 181.5 q73 72.5 181 72.5 q108 0 182.5 -73.5 q74.5 -73.5 74.5 -181.5 q0 -63 -19.5 -113.5 q-19.5 -50.5 -70.5 -118.5 ZM485 475 q0 82 -52 135 q-52 53 -133 53 q-79 0 -130.5 -53 q-51.5 -53 -51.5 -135 q0 -81 51.5 -133.5 q51.5 -52.5 130.5 -52.5 q81 0 133 52.5 q52 52.5 52 133.5 Z" /><glyph glyph-name="colon" unicode=":" d="M185 390.5 q-19 -18.5 -44 -18.5 q-25 0 -44 18.5 q-19 18.5 -19 43.5 q0 25 18.5 43.5 q18.5 18.5 44.5 18.5 q26 0 44.5 -18.5 q18.5 -18.5 18.5 -43.5 q0 -25 -19 -43.5 ZM185.5 7 q-18.5 -18 -44.5 -18 q-26 0 -44.5 18 q-18.5 18 -18.5 43 q0 26 19 44.5 q19 18.5 44 18.5 q25 0 44 -18.5 q19 -18.5 19 -44.5 q0 -25 -18.5 -43 Z" /><glyph glyph-name="semicolon" unicode=";" d="M185 390.5 q-19 -18.5 -44 -18.5 q-25 0 -44 18.5 q-19 18.5 -19 43.5 q0 25 18.5 43.5 q18.5 18.5 44.5 18.5 q26 0 44.5 -18.5 q18.5 -18.5 18.5 -43.5 q0 -25 -19 -43.5 ZM204 34 q0 -46 -31.5 -82 q-31.5 -36 -78.5 -43 l0 37 q27 4 44.5 21.5 q17.5 17.5 17.5 38.5 q-10 -7 -26 -7 q-22 0 -37 14.5 q-15 14.5 -15 39.5 q0 26 16.5 43 q16.5 17 42.5 17 q28 0 47.5 -21.5 q19.5 -21.5 19.5 -57.5 Z" /><glyph glyph-name="less" unicode="&lt;" d="M580 99 l0 -68 l-500 179 l0 70 l500 179 l0 -69 l-423 -145 l423 -146 Z" /><glyph glyph-name="equal" unicode="=" d="M80 430 l500 0 l0 -62 l-500 0 l0 62 ZM80 224 l500 0 l0 -62 l-500 0 l0 62 Z" /><glyph glyph-name="greater" unicode="&gt;" d="M580 210 l-500 -179 l0 68 l423 146 l-423 145 l0 69 l500 -179 l0 -70 Z" /><glyph glyph-name="question" unicode="?" d="M265 164 l-65 0 l0 26 q0 55 28 91.5 q28 36.5 81 76.5 q33 25 51 42.5 q18 17.5 34 47.5 q16 30 16 64 q0 65 -41.5 108 q-41.5 43 -109.5 43 q-65 0 -110 -45.5 q-45 -45.5 -45 -110.5 l-70 0 q0 94 65 158 q65 64 160 64 q101 0 161.5 -61 q60.5 -61 60.5 -154 q0 -37 -10 -67 q-10 -30 -31.5 -55 q-21.5 -25 -38 -39.5 q-16.5 -14.5 -45.5 -36.5 q-47 -34 -69 -61.5 q-22 -27.5 -22 -64.5 l0 -26 ZM237 -14 q-26 0 -44.5 18.5 q-18.5 18.5 -18.5 44.5 q0 26 18.5 44 q18.5 18 44.5 18 q25 0 43.5 -18.5 q18.5 -18.5 18.5 -43.5 q0 -26 -18.5 -44.5 q-18.5 -18.5 -43.5 -18.5 Z" /><glyph glyph-name="at" unicode="@" d="M256 220 q0 60 44 97.5 q44 37.5 124 44.5 l147 11 l0 15 q0 115 -119 115 q-57 0 -89 -25 q-32 -25 -32 -69 l-60 0 q0 66 50.5 106.5 q50.5 40.5 133.5 40.5 q85 0 132.5 -44 q47.5 -44 47.5 -125 l0 -191 q0 -60 62 -60 q51 0 82.5 54 q31.5 54 31.5 141 q0 152 -100.5 250 q-100.5 98 -256.5 98 q-151 0 -254.5 -104.5 q-103.5 -104.5 -103.5 -257.5 q0 -155 103 -260 q103 -105 255 -105 q130 0 227 79 l28 -41 q-111 -88 -255 -88 q-176 0 -294 119 q-118 119 -118 296 q0 175 118.5 293.5 q118.5 118.5 293.5 118.5 q179 0 295 -112 q116 -112 116 -286 q0 -106 -48.5 -174 q-48.5 -68 -124.5 -68 q-107 0 -116 91 q-21 -43 -65 -67 q-44 -24 -101 -24 q-71 0 -112.5 35 q-41.5 35 -41.5 96 ZM320 221 q0 -38 27 -58.5 q27 -20.5 77 -20.5 q68 0 107.5 42.5 q39.5 42.5 39.5 117.5 l0 22 l-132 -10 q-119 -11 -119 -93 Z" /><glyph glyph-name="A" unicode="A" d="M87 0 l-73 0 l263 716 l89 0 l266 -716 l-75 0 l-70 190 l-330 0 l-70 -190 ZM312 615 l-133 -362 l285 0 l-134 362 q-1 4 -3.5 10 q-2.5 6 -4 11 q-1.5 5 -1.5 8 q-2 -11 -9 -29 Z" /><glyph glyph-name="B" unicode="B" d="M87 0 l0 716 l262 0 q104 0 163.5 -49.5 q59.5 -49.5 59.5 -135.5 q0 -127 -111 -170 q125 -41 125 -173 q0 -86 -60 -137 q-60 -51 -162 -51 l-277 0 ZM348 652 l-189 0 l0 -262 l198 0 q67 0 104 35.5 q37 35.5 37 99.5 q0 60 -39 93.5 q-39 33.5 -111 33.5 ZM364 327 l-205 0 l0 -262 l205 0 q70 0 109.5 35 q39.5 35 39.5 97 q0 61 -39.5 95.5 q-39.5 34.5 -109.5 34.5 Z" /><glyph glyph-name="C" unicode="C" d="M379 -11 q-150 0 -243 102 q-93 102 -93 267 q0 165 94 267.5 q94 102.5 246 102.5 q116 0 199 -64.5 q83 -64.5 105 -170.5 l-77 0 q-22 77 -84 121.5 q-62 44.5 -146 44.5 q-118 0 -190 -82.5 q-72 -82.5 -72 -218.5 q0 -135 72 -217.5 q72 -82.5 190 -82.5 q85 0 148 42.5 q63 42.5 86 114.5 l77 0 q-25 -101 -111 -163.5 q-86 -62.5 -201 -62.5 Z" /><glyph glyph-name="D" unicode="D" d="M305 0 l-218 0 l0 716 l216 0 q162 0 261 -98.5 q99 -98.5 99 -259.5 q0 -161 -98.5 -259.5 q-98.5 -98.5 -259.5 -98.5 ZM300 650 l-141 0 l0 -584 l143 0 q131 0 209 79 q78 79 78 213 q0 134 -78 213 q-78 79 -211 79 Z" /><glyph glyph-name="E" unicode="E" d="M516 0 l-429 0 l0 716 l428 0 l0 -66 l-356 0 l0 -258 l323 0 l0 -65 l-323 0 l0 -261 l357 0 l0 -66 Z" /><glyph glyph-name="F" unicode="F" d="M452 315 l-293 0 l0 -315 l-72 0 l0 716 l422 0 l0 -66 l-350 0 l0 -270 l293 0 l0 -65 Z" /><glyph glyph-name="G" unicode="G" d="M387 660 q-123 0 -196 -83.5 q-73 -83.5 -73 -221.5 q0 -138 74.5 -218.5 q74.5 -80.5 196.5 -80.5 q47 0 88 12 q41 12 75 38 q34 26 54 72 q20 46 20 108 l0 37 l-259 0 l0 64 l327 0 l0 -388 l-57 0 l-7 114 q-30 -55 -95 -90 q-65 -35 -149 -35 q-153 0 -248 101 q-95 101 -95 266 q0 165 96 269 q96 104 249 104 q113 0 194 -59 q81 -59 102 -157 l-78 0 q-22 72 -80 110 q-58 38 -139 38 Z" /><glyph glyph-name="H" unicode="H" d="M159 0 l-72 0 l0 716 l72 0 l0 -319 l387 0 l0 319 l71 0 l0 -716 l-71 0 l0 330 l-387 0 l0 -330 Z" /><glyph glyph-name="I" unicode="I" d="M159 716 l0 -716 l-72 0 l0 716 l72 0 Z" /><glyph glyph-name="J" unicode="J" d="M20 197 l0 28 l70 0 l0 -28 q0 -65 34.5 -103 q34.5 -38 98.5 -38 q66 0 99.5 38 q33.5 38 33.5 104 l0 518 l72 0 l0 -520 q0 -96 -56.5 -152 q-56.5 -56 -148.5 -56 q-95 0 -149 57 q-54 57 -54 152 Z" /><glyph glyph-name="K" unicode="K" d="M159 716 l0 -431 l345 431 l86 0 l-243 -303 l247 -413 l-84 0 l-210 353 l-141 -175 l0 -178 l-72 0 l0 716 l72 0 Z" /><glyph glyph-name="L" unicode="L" d="M159 716 l0 -650 l329 0 l0 -66 l-401 0 l0 716 l72 0 Z" /><glyph glyph-name="M" unicode="M" d="M158 0 l-71 0 l0 716 l71 0 l261 -631 l261 631 l72 0 l0 -716 l-71 0 l0 340 q0 156 6 229 l-233 -569 l-69 0 l-233 566 q6 -40 6 -215 l0 -351 Z" /><glyph glyph-name="N" unicode="N" d="M159 0 l-72 0 l0 716 l73 0 l394 -596 l0 596 l71 0 l0 -716 l-71 0 l-395 596 l0 -596 Z" /><glyph glyph-name="O" unicode="O" d="M725 358 q0 -163 -95.5 -266.5 q-95.5 -103.5 -245.5 -103.5 q-151 0 -246 103.5 q-95 103.5 -95 266.5 q0 163 95.5 267 q95.5 104 245.5 104 q151 0 246 -103.5 q95 -103.5 95 -267.5 ZM576.5 140.5 q74.5 83.5 74.5 217.5 q0 134 -74 217.5 q-74 83.5 -193 83.5 q-119 0 -192.5 -83.5 q-73.5 -83.5 -73.5 -217.5 q0 -134 73.5 -217.5 q73.5 -83.5 192.5 -83.5 q118 0 192.5 83.5 Z" /><glyph glyph-name="P" unicode="P" d="M360 263 l-201 0 l0 -263 l-72 0 l0 716 l273 0 q103 0 164 -61.5 q61 -61.5 61 -163.5 q0 -99 -62 -163.5 q-62 -64.5 -163 -64.5 ZM350 651 l-191 0 l0 -323 l187 0 q77 0 120.5 44.5 q43.5 44.5 43.5 119.5 q0 74 -43 116.5 q-43 42.5 -117 42.5 Z" /><glyph glyph-name="Q" unicode="Q" d="M652 -41 l-76 86 q-83 -57 -192 -57 q-151 0 -246 103.5 q-95 103.5 -95 266.5 q0 163 95.5 267 q95.5 104 245.5 104 q151 0 246 -103.5 q95 -103.5 95 -267.5 q0 -166 -99 -270 l75 -84 l-49 -45 ZM651 358 q0 134 -74 217.5 q-74 83.5 -193 83.5 q-119 0 -192.5 -83.5 q-73.5 -83.5 -73.5 -217.5 q0 -134 73.5 -217.5 q73.5 -83.5 192.5 -83.5 q81 0 144 41 l-93 105 l48 45 l95 -106 q73 84 73 216 Z" /><glyph glyph-name="R" unicode="R" d="M159 0 l-72 0 l0 716 l267 0 q108 0 170.5 -55.5 q62.5 -55.5 62.5 -151.5 q0 -77 -38.5 -129 q-38.5 -52 -107.5 -71 l153 -309 l-80 0 l-146 297 l-209 0 l0 -297 ZM159 651 l0 -289 l197 0 q74 0 115.5 38.5 q41.5 38.5 41.5 106.5 q0 69 -42.5 106.5 q-42.5 37.5 -116.5 37.5 l-195 0 Z" /><glyph glyph-name="S" unicode="S" d="M44 530 q0 90 66 144.5 q66 54.5 174 54.5 q97 0 157 -51 q60 -51 68 -141 l-73 0 q-6 61 -46 94 q-40 33 -107 33 q-76 0 -121.5 -36 q-45.5 -36 -45.5 -97 q0 -94 112 -122 l123 -30 q170 -41 170 -188 q0 -93 -66.5 -148 q-66.5 -55 -177.5 -55 q-104 0 -169.5 51 q-65.5 51 -72.5 139 l74 0 q3 -56 49 -90 q46 -34 119 -34 q79 0 125.5 36 q46.5 36 46.5 97 q0 98 -113 124 l-121 30 q-171 41 -171 189 Z" /><glyph glyph-name="T" unicode="T" d="M12 650 l0 66 l513 0 l0 -66 l-221 0 l0 -650 l-72 0 l0 650 l-220 0 Z" /><glyph glyph-name="U" unicode="U" d="M82 249 l0 467 l72 0 l0 -464 q0 -94 50 -144 q50 -50 144 -50 q92 0 141.5 50.5 q49.5 50.5 49.5 143.5 l0 464 l72 0 l0 -467 q0 -121 -70.5 -191 q-70.5 -70 -192.5 -70 q-125 0 -195.5 69.5 q-70.5 69.5 -70.5 191.5 Z" /><glyph glyph-name="V" unicode="V" d="M284 0 l-274 716 l77 0 l191 -498 q24 -63 45 -128 q21 72 44 129 l190 497 l74 0 l-272 -716 l-75 0 Z" /><glyph glyph-name="W" unicode="W" d="M228 0 l-213 716 l75 0 l145 -492 q16 -57 28 -118 q11 49 33 118 l156 492 l75 0 l156 -492 q17 -57 32 -118 q14 69 28 117 l148 493 l73 0 l-215 -716 l-68 0 l-192 608 l-192 -608 l-69 0 Z" /><glyph glyph-name="X" unicode="X" d="M264 357 l-250 359 l85 0 l133 -188 q45 -64 74 -118 l208 306 l83 0 l-246 -357 l250 -359 l-86 0 l-136 192 q-45 64 -71 110 l-209 -302 l-84 0 l249 357 Z" /><glyph glyph-name="Y" unicode="Y" d="M253 299 l-243 417 l81 0 l177 -309 q12 -23 21 -43 q9 18 22 43 l175 309 l79 0 l-240 -417 l0 -299 l-72 0 l0 299 Z" /><glyph glyph-name="Z" unicode="Z" d="M539 0 l-498 0 l0 66 l412 584 l-409 0 l0 66 l497 0 l0 -64 l-414 -586 l412 0 l0 -66 Z" /><glyph glyph-name="bracketleft" unicode="[" d="M115 -3 l135 0 l0 -56 l-198 0 l0 838 l198 0 l0 -56 l-135 0 l0 -726 Z" /><glyph glyph-name="backslash" unicode="\" d="M69 716 l280 -716 l-69 0 l-280 716 l69 0 Z" /><glyph glyph-name="bracketright" unicode="]" d="M5 -59 l0 56 l135 0 l0 726 l-135 0 l0 56 l198 0 l0 -838 l-198 0 Z" /><glyph glyph-name="asciicircum" unicode="^" d="M139 400 l-63 0 l133 316 l68 0 l133 -316 l-64 0 l-103 250 l-104 -250 Z" /><glyph glyph-name="underscore" unicode="_" d="M60 -78 l0 59 l398 0 l0 -59 l-398 0 Z" /><glyph glyph-name="grave" unicode="`" d="M173 766 l-56 0 l-75 120 l73 0 l58 -120 Z" /><glyph glyph-name="a" unicode="a" d="M211 -12 q-76 0 -120 39 q-44 39 -44 104 q0 66 48 106.5 q48 40.5 133 47.5 l160 13 l0 16 q0 125 -128 125 q-63 0 -98.5 -27 q-35.5 -27 -35.5 -76 l-63 0 q0 73 54.5 117 q54.5 44 144.5 44 q88 0 141 -46 q53 -46 53 -138 l0 -313 l-58 0 l-9 85 q-23 -46 -70 -71.5 q-47 -25.5 -108 -25.5 ZM227 44 q75 0 118 48 q43 48 43 128 l0 26 l-143 -11 q-128 -11 -128 -102 q0 -43 29.5 -66 q29.5 -23 80.5 -23 Z" /><glyph glyph-name="b" unicode="b" d="M132 0 l-60 0 l0 729 l69 0 l0 -339 q51 107 182 107 q103 0 163 -72 q60 -72 60 -184 q0 -111 -60.5 -182 q-60.5 -71 -164.5 -71 q-132 0 -182 111 l-7 -99 ZM142 243 q0 -86 45 -139 q45 -53 123 -53 q77 0 121.5 53 q44.5 53 44.5 139 q0 85 -44.5 138.5 q-44.5 53.5 -121.5 53.5 q-78 0 -123 -53.5 q-45 -53.5 -45 -138.5 Z" /><glyph glyph-name="c" unicode="c" d="M101.5 57.5 q-63.5 69.5 -63.5 183.5 q0 114 64.5 185 q64.5 71 169.5 71 q84 0 141.5 -45 q57.5 -45 71.5 -120 l-69 0 q-13 49 -52 76.5 q-39 27.5 -91 27.5 q-74 0 -120.5 -53 q-46.5 -53 -46.5 -141 q0 -86 44.5 -139 q44.5 -53 117.5 -53 q54 0 94.5 27.5 q40.5 27.5 54.5 74.5 l70 0 q-17 -74 -77 -119 q-60 -45 -142 -45 q-103 0 -166.5 69.5 Z" /><glyph glyph-name="d" unicode="d" d="M262 -12 q-104 0 -164 71 q-60 71 -60 182 q0 113 61 184.5 q61 71.5 166 71.5 q127 0 178 -105 l0 337 l69 0 l0 -729 l-60 0 l-7 99 q-25 -55 -73 -83 q-48 -28 -110 -28 ZM274 51 q78 0 123 53 q45 53 45 139 q0 85 -45 138.5 q-45 53.5 -123 53.5 q-77 0 -121.5 -53.5 q-44.5 -53.5 -44.5 -138.5 q0 -86 44.5 -139 q44.5 -53 121.5 -53 Z" /><glyph glyph-name="e" unicode="e" d="M275 -12 q-106 0 -171.5 70 q-65.5 70 -65.5 184 q0 113 64.5 184 q64.5 71 167.5 71 q98 0 159 -63.5 q61 -63.5 61 -166.5 l0 -34 l-385 0 q4 -89 48.5 -137.5 q44.5 -48.5 122.5 -48.5 q120 0 148 98 l66 0 q-20 -77 -75 -117 q-55 -40 -140 -40 ZM379.5 395.5 q-41.5 42.5 -109.5 42.5 q-68 0 -111 -41.5 q-43 -41.5 -52 -113.5 l314 0 q0 70 -41.5 112.5 Z" /><glyph glyph-name="f" unicode="f" d="M18 484 l74 0 l0 94 q0 77 37 114 q37 37 97 37 q32 0 53 -4 l0 -59 l-41 0 q-44 0 -60.5 -21.5 q-16.5 -21.5 -16.5 -66.5 l0 -94 l114 0 l0 -58 l-114 0 l0 -426 l-69 0 l0 426 l-74 0 l0 58 Z" /><glyph glyph-name="g" unicode="g" d="M99.5 84.5 q-60.5 69.5 -60.5 171.5 q0 102 62 171.5 q62 69.5 165 69.5 q131 0 179 -110 l7 97 l60 0 l0 -469 q0 -108 -64 -173 q-64 -65 -170 -65 q-93 0 -154.5 49.5 q-61.5 49.5 -75.5 137.5 l69 0 q11 -59 54 -91.5 q43 -32.5 108 -32.5 q74 0 119.5 46 q45.5 46 45.5 122 l0 115 q-25 -51 -73 -79.5 q-48 -28.5 -110 -28.5 q-101 0 -161.5 69.5 ZM108 257 q0 -77 44.5 -128.5 q44.5 -51.5 118.5 -51.5 q77 0 122 50 q45 50 45 130 q0 79 -44 129 q-44 50 -122 50 q-76 0 -120 -51.5 q-44 -51.5 -44 -127.5 Z" /><glyph glyph-name="h" unicode="h" d="M141 1 l-69 0 l0 728 l69 0 l0 -329 q52 97 171 97 q93 0 138.5 -53 q45.5 -53 45.5 -148 l0 -296 l-69 0 l0 281 q0 153 -128 153 q-75 0 -116.5 -48.5 q-41.5 -48.5 -41.5 -121.5 l0 -263 Z" /><glyph glyph-name="i" unicode="i" d="M142.5 632 q-15.5 -15 -36.5 -15 q-21 0 -36 15 q-15 15 -15 36 q0 21 15 36.5 q15 15.5 36 15.5 q21 0 36.5 -15.5 q15.5 -15.5 15.5 -36.5 q0 -21 -15.5 -36 ZM72 0 l0 484 l69 0 l0 -484 l-69 0 Z" /><glyph glyph-name="j" unicode="j" d="M107 617 q-22 0 -37 15 q-15 15 -15 36 q0 21 15 36.5 q15 15.5 37 15.5 q20 0 35.5 -15.5 q15.5 -15.5 15.5 -36.5 q0 -21 -15.5 -36 q-15.5 -15 -35.5 -15 ZM-57 -212 l13 63 q28 -7 47 -7 q69 0 69 87 l0 553 l69 0 l0 -557 q0 -69 -35 -108.5 q-35 -39.5 -98 -39.5 q-33 0 -65 9 Z" /><glyph glyph-name="k" unicode="k" d="M144 0 l-69 0 l0 729 l69 0 l0 -495 l240 250 l87 0 l-186 -193 l187 -291 l-80 0 l-154 242 l-94 -97 l0 -145 Z" /><glyph glyph-name="l" unicode="l" d="M144 0 l-69 0 l0 729 l69 0 l0 -729 Z" /><glyph glyph-name="m" unicode="m" d="M141 0 l-69 0 l0 484 l60 0 l8 -69 q18 38 56.5 60 q38.5 22 89.5 22 q56 0 97.5 -27.5 q41.5 -27.5 58.5 -75.5 q17 48 59 75.5 q42 27.5 100 27.5 q79 0 126.5 -48.5 q47.5 -48.5 47.5 -131.5 l0 -317 l-67 0 l0 303 q0 62 -32 97 q-32 35 -88 35 q-59 0 -94 -39 q-35 -39 -35 -97 l0 -299 l-68 0 l0 304 q0 61 -32.5 95.5 q-32.5 34.5 -87.5 34.5 q-59 0 -94.5 -38.5 q-35.5 -38.5 -35.5 -95.5 l0 -300 Z" /><glyph glyph-name="n" unicode="n" d="M141 0 l-69 0 l0 484 l60 0 l10 -84 q24 46 68.5 71.5 q44.5 25.5 97.5 25.5 q188 0 188 -201 l0 -296 l-69 0 l0 281 q0 153 -131 153 q-73 0 -114 -49 q-41 -49 -41 -132 l0 -253 Z" /><glyph glyph-name="o" unicode="o" d="M38 242 q0 111 69.5 183 q69.5 72 176.5 72 q107 0 176.5 -72 q69.5 -72 69.5 -183 q0 -110 -69.5 -182 q-69.5 -72 -176.5 -72 q-107 0 -176.5 72 q-69.5 72 -69.5 182 ZM108 243 q0 -86 49 -139.5 q49 -53.5 127 -53.5 q77 0 126.5 54 q49.5 54 49.5 139 q0 84 -49.5 138 q-49.5 54 -126.5 54 q-78 0 -127 -54 q-49 -54 -49 -138 Z" /><glyph glyph-name="p" unicode="p" d="M72 -211 l0 695 l60 0 l7 -98 q25 55 73 83 q48 28 110 28 q103 0 163.5 -70.5 q60.5 -70.5 60.5 -182.5 q0 -113 -59.5 -184.5 q-59.5 -71.5 -164.5 -71.5 q-130 0 -181 105 l0 -304 l-69 0 ZM142 242 q0 -85 45 -138.5 q45 -53.5 123 -53.5 q77 0 121.5 53.5 q44.5 53.5 44.5 138.5 q0 86 -44.5 139 q-44.5 53 -121.5 53 q-78 0 -123 -53 q-45 -53 -45 -139 Z" /><glyph glyph-name="q" unicode="q" d="M38 244 q0 112 60.5 182.5 q60.5 70.5 163.5 70.5 q131 0 183 -111 l7 98 l60 0 l0 -695 l-69 0 l0 304 q-51 -105 -181 -105 q-105 0 -164.5 71.5 q-59.5 71.5 -59.5 184.5 ZM108 242 q0 -85 44.5 -138.5 q44.5 -53.5 121.5 -53.5 q78 0 123 53.5 q45 53.5 45 138.5 q0 86 -45 139 q-45 53 -123 53 q-77 0 -121.5 -53 q-44.5 -53 -44.5 -139 Z" /><glyph glyph-name="r" unicode="r" d="M325 490 l0 -62 l-38 0 q-67 0 -106.5 -41.5 q-39.5 -41.5 -39.5 -110.5 l0 -276 l-69 0 l0 484 l65 0 l5 -75 q14 40 51 63 q37 23 87 23 q24 0 45 -5 Z" /><glyph glyph-name="s" unicode="s" d="M31 136 l66 0 q0 -42 29.5 -66.5 q29.5 -24.5 80.5 -24.5 q56 0 87.5 22.5 q31.5 22.5 31.5 61.5 q0 31 -17.5 49 q-17.5 18 -59.5 28 l-83 21 q-125 31 -125 131 q0 63 48 101 q48 38 127 38 q77 0 123 -39.5 q46 -39.5 48 -106.5 l-67 0 q-2 42 -29.5 65.5 q-27.5 23.5 -76.5 23.5 q-51 0 -78.5 -21 q-27.5 -21 -27.5 -60 q0 -57 79 -76 l83 -21 q63 -16 92.5 -47 q29.5 -31 29.5 -83 q0 -65 -50.5 -104.5 q-50.5 -39.5 -133.5 -39.5 q-82 0 -129.5 40 q-47.5 40 -47.5 108 Z" /><glyph glyph-name="t" unicode="t" d="M183 0 l-68 0 l0 426 l-97 0 l0 58 l97 0 l0 153 l68 0 l0 -153 l97 0 l0 -58 l-97 0 l0 -426 Z" /><glyph glyph-name="u" unicode="u" d="M412 484 l69 0 l0 -484 l-60 0 l-9 82 q-20 -42 -66.5 -68 q-46.5 -26 -103.5 -26 q-84 0 -130 53 q-46 53 -46 143 l0 301 l70 0 l0 -279 q0 -156 128 -156 q70 0 109 45.5 q39 45.5 39 131.5 l0 257 Z" /><glyph glyph-name="v" unicode="v" d="M207 0 l-198 484 l74 0 l125 -312 q28 -76 35 -100 q9 31 36 100 l127 312 l71 0 l-201 -484 l-69 0 Z" /><glyph glyph-name="w" unicode="w" d="M174 0 l-160 484 l71 0 l95 -292 q13 -38 30 -104 q7 33 29 104 l96 292 l71 0 l95 -292 q14 -42 30 -104 q16 65 29 104 l96 292 l72 0 l-164 -484 l-67 0 l-100 304 q-17 50 -26 95 q-14 -52 -28 -95 l-100 -304 l-69 0 Z" /><glyph glyph-name="x" unicode="x" d="M91 0 l-81 0 l173 242 l-172 242 l81 0 l137 -194 l136 194 l80 0 l-172 -243 l171 -241 l-82 0 l-136 194 l-135 -194 Z" /><glyph glyph-name="y" unicode="y" d="M23 -211 l0 57 l53 0 q20 0 32 1.5 q12 1.5 28 8 q16 6.5 27.5 21 q11.5 14.5 20.5 37.5 l21 57 l-196 513 l73 0 l156 -422 l153 422 l71 0 l-222 -595 q-39 -107 -144 -107 q-42 0 -73 7 Z" /><glyph glyph-name="z" unicode="z" d="M404 0 l-365 0 l0 55 l280 371 l-280 0 l0 58 l365 0 l0 -56 l-281 -370 l281 0 l0 -58 Z" /><glyph glyph-name="braceleft" unicode="{" d="M45 331 l0 59 q87 0 87 69 l0 226 q0 43 26.5 68.5 q26.5 25.5 72.5 25.5 l56 0 l0 -56 l-50 0 q-19 0 -30.5 -12 q-11.5 -12 -11.5 -32 l0 -224 q0 -75 -65 -94 q65 -22 65 -96 l0 -224 q0 -20 11.5 -32 q11.5 -12 30.5 -12 l50 0 l0 -56 l-56 0 q-46 0 -72.5 25.5 q-26.5 25.5 -26.5 68.5 l0 226 q0 70 -87 70 Z" /><glyph glyph-name="bar" unicode="|" d="M127 -85 l0 878 l57 0 l0 -878 l-57 0 Z" /><glyph glyph-name="braceright" unicode="}" d="M61 -59 l-56 0 l0 56 l49 0 q20 0 31.5 12 q11.5 12 11.5 32 l0 224 q0 74 64 96 q-64 19 -64 94 l0 224 q0 20 -11.5 32 q-11.5 12 -31.5 12 l-49 0 l0 56 l56 0 q45 0 72 -26 q27 -26 27 -68 l0 -226 q0 -69 87 -69 l0 -59 q-87 0 -87 -70 l0 -226 q0 -42 -27 -68 q-27 -26 -72 -26 Z" /><glyph glyph-name="asciitilde" unicode="~" d="M522 368 l58 0 q0 -69 -33.5 -110.5 q-33.5 -41.5 -90.5 -41.5 q-42 0 -89 24 q-47 24 -89 48.5 q-42 24.5 -72 24.5 q-34 0 -50 -20.5 q-16 -20.5 -18 -66.5 l-58 0 q0 66 33.5 107 q33.5 41 90.5 41 q46 0 129 -48.5 q83 -48.5 121 -48.5 q34 0 50 21.5 q16 21.5 18 69.5 Z" /><glyph glyph-name="yen" unicode="¥" d="M241 344 l-221 372 l81 0 l197 -348 l195 348 l80 0 l-218 -372 l156 0 l0 -57 l-179 0 l0 -73 l179 0 l0 -56 l-179 0 l0 -158 l-68 0 l0 158 l-180 0 l0 56 l180 0 l0 73 l-180 0 l0 57 l157 0 Z" /><glyph glyph-name="copyright" unicode="©" d="M408 -14 q-156 0 -262 107 q-106 107 -106 265 q0 157 106.5 264 q106.5 107 261.5 107 q156 0 262.5 -107 q106.5 -107 106.5 -264 q0 -158 -106 -265 q-106 -107 -263 -107 ZM408 35 q136 0 226 92.5 q90 92.5 90 230.5 q0 138 -90.5 230 q-90.5 92 -225.5 92 q-134 0 -224.5 -92.5 q-90.5 -92.5 -90.5 -229.5 q0 -138 90 -230.5 q90 -92.5 225 -92.5 ZM225 356 q0 90 53 146.5 q53 56.5 138 56.5 q65 0 110.5 -35.5 q45.5 -35.5 57.5 -94.5 l-61 0 q-21 76 -106 76 q-59 0 -96 -41.5 q-37 -41.5 -37 -106.5 q0 -66 35.5 -106.5 q35.5 -40.5 92.5 -40.5 q88 0 113 75 l60 0 q-13 -58 -60.5 -93.5 q-47.5 -35.5 -112.5 -35.5 q-83 0 -135 56 q-52 56 -52 144 Z" /><glyph glyph-name="periodcentered" unicode="·" d="M198.5 196.5 q-25.5 -25.5 -60.5 -25.5 q-35 0 -61 25.5 q-26 25.5 -26 59.5 q0 36 25.5 61.5 q25.5 25.5 61.5 25.5 q35 0 60.5 -25.5 q25.5 -25.5 25.5 -61.5 q0 -34 -25.5 -59.5 Z" /><glyph glyph-name="threequarters" unicode="¾" d="M21 487 l51 0 q0 -30 17.5 -48 q17.5 -18 48.5 -18 q31 0 48.5 16.5 q17.5 16.5 17.5 44.5 q0 33 -22 51 q-22 18 -63 18 l-27 0 l0 34 l91 85 l-146 0 l0 46 l210 0 l0 -45 l-89 -82 q43 -5 69.5 -32.5 q26.5 -27.5 26.5 -70.5 q0 -51 -32 -81 q-32 -30 -85 -30 q-51 0 -83.5 31 q-32.5 31 -32.5 81 ZM596 710 l-460 -710 l-63 0 l459 710 l64 0 ZM530 67 l-172 0 l0 44 l160 224 l60 0 l0 -223 l42 0 l0 -45 l-42 0 l0 -67 l-48 0 l0 67 ZM413 112 l117 0 l0 164 l-117 -164 Z" /><glyph glyph-name="aring" unicode="å" d="M266 537 q-47 0 -77.5 31 q-30.5 31 -30.5 78 q0 46 31 76.5 q31 30.5 77 30.5 q46 0 77 -31 q31 -31 31 -76 q0 -46 -31 -77.5 q-31 -31.5 -77 -31.5 ZM266 585 q25 0 41 17 q16 17 16 44 q0 26 -16 43.5 q-16 17.5 -41 17.5 q-26 0 -42 -17 q-16 -17 -16 -44 q0 -27 16 -44 q16 -17 42 -17 ZM211 -12 q-76 0 -120 39 q-44 39 -44 104 q0 66 48 106.5 q48 40.5 133 47.5 l160 13 l0 16 q0 125 -128 125 q-63 0 -98.5 -27 q-35.5 -27 -35.5 -76 l-63 0 q0 73 54.5 117 q54.5 44 144.5 44 q88 0 141 -46 q53 -46 53 -138 l0 -313 l-58 0 l-9 85 q-23 -46 -70 -71.5 q-47 -25.5 -108 -25.5 ZM227 44 q75 0 118 48 q43 48 43 128 l0 26 l-143 -11 q-128 -11 -128 -102 q0 -43 29.5 -66 q29.5 -23 80.5 -23 Z" /><glyph glyph-name="ae" unicode="æ" d="M47 134 q0 69 47.5 105 q47.5 36 129.5 38 l164 4 l0 33 q0 60 -34.5 92.5 q-34.5 32.5 -94.5 32.5 q-63 0 -98 -27.5 q-35 -27.5 -35 -75.5 l-63 0 q0 73 54 117 q54 44 143 44 q61 0 106 -27 q45 -27 64 -73 q62 100 187 100 q99 0 159.5 -63.5 q60.5 -63.5 60.5 -166.5 l0 -34 l-386 0 q5 -87 49.5 -136.5 q44.5 -49.5 122.5 -49.5 q122 0 148 98 l67 0 q-20 -77 -75 -117 q-55 -40 -141 -40 q-71 0 -124 32.5 q-53 32.5 -81 91.5 q-22 -56 -76 -90 q-54 -34 -126 -34 q-79 0 -123.5 39.5 q-44.5 39.5 -44.5 106.5 ZM617 438 q-68 0 -112 -42.5 q-44 -42.5 -52 -113.5 l315 0 q0 70 -41 113 q-41 43 -110 43 ZM117 137 q0 -46 30.5 -69.5 q30.5 -23.5 84.5 -23.5 q71 0 113.5 42.5 q42.5 42.5 42.5 111.5 l0 33 l-153 -4 q-118 -3 -118 -90 Z" /><glyph glyph-name="ccedilla" unicode="ç" d="M38 241 q0 114 64.5 185 q64.5 71 169.5 71 q84 0 141.5 -45 q57.5 -45 71.5 -120 l-69 0 q-13 49 -52 76.5 q-39 27.5 -91 27.5 q-74 0 -120.5 -53 q-46.5 -53 -46.5 -141 q0 -86 44.5 -139 q44.5 -53 117.5 -53 q54 0 94.5 27.5 q40.5 27.5 54.5 74.5 l70 0 q-16 -70 -70.5 -114 q-54.5 -44 -130.5 -49 l-16 -34 q18 5 30 5 q30 0 49.5 -17.5 q19.5 -17.5 19.5 -48.5 q0 -37 -26 -57 q-26 -20 -63 -20 q-39 0 -62 15 l0 42 q29 -16 56 -16 q20 0 33.5 9 q13.5 9 13.5 25 q0 33 -40 33 q-22 0 -49 -12 l-10 25 l24 51 q-94 8 -151 76 q-57 68 -57 176 Z" /><glyph glyph-name="endash" unicode="&#x2013;" d="M66 232 l0 61 l795 0 l0 -61 l-795 0 Z" /><glyph glyph-name="emdash" unicode="&#x2014;" d="M66 232 l0 61 l1006 0 l0 -61 l-1006 0 Z" /><glyph glyph-name="quoteleft" unicode="&#x2018;" d="M170 624.5 q14 -14.5 14 -39.5 q0 -25 -16 -41.5 q-16 -16.5 -42 -16.5 q-27 0 -46 21 q-19 21 -19 57 q0 46 31 81.5 q31 35.5 77 43.5 l0 -37 q-26 -5 -43.5 -22 q-17.5 -17 -17.5 -39 q10 7 27 7 q21 0 35 -14.5 Z" /><glyph glyph-name="quoteright" unicode="&#x2019;" d="M184 652 q0 -47 -30.5 -82.5 q-30.5 -35.5 -77.5 -42.5 l0 37 q26 5 43.5 22 q17.5 17 17.5 38 q-9 -6 -27 -6 q-20 0 -34.5 14 q-14.5 14 -14.5 39 q0 26 16.5 42.5 q16.5 16.5 42.5 16.5 q27 0 45.5 -21.5 q18.5 -21.5 18.5 -56.5 Z" /><glyph glyph-name="quotedblleft" unicode="&#x201c;" d="M170 624.5 q14 -14.5 14 -39.5 q0 -25 -16 -41.5 q-16 -16.5 -42 -16.5 q-27 0 -46 21 q-19 21 -19 57 q0 46 31 81.5 q31 35.5 77 43.5 l0 -37 q-26 -5 -43.5 -22 q-17.5 -17 -17.5 -39 q10 7 27 7 q21 0 35 -14.5 ZM332 624.5 q14 -14.5 14 -39.5 q0 -25 -16.5 -41.5 q-16.5 -16.5 -42.5 -16.5 q-27 0 -46 21 q-19 21 -19 57 q0 46 31 81.5 q31 35.5 78 43.5 l0 -37 q-26 -5 -43.5 -22 q-17.5 -17 -17.5 -38 q9 6 27 6 q21 0 35 -14.5 Z" /><glyph glyph-name="quotedblright" unicode="&#x201d;" d="M184 652 q0 -47 -30.5 -82.5 q-30.5 -35.5 -77.5 -42.5 l0 37 q26 5 43.5 22 q17.5 17 17.5 38 q-9 -6 -27 -6 q-20 0 -34.5 14 q-14.5 14 -14.5 39 q0 26 16.5 42.5 q16.5 16.5 42.5 16.5 q27 0 45.5 -21.5 q18.5 -21.5 18.5 -56.5 ZM346 652 q0 -47 -31 -82.5 q-31 -35.5 -77 -42.5 l0 37 q26 5 43.5 22 q17.5 17 17.5 39 q-11 -7 -27 -7 q-21 0 -35.5 14.5 q-14.5 14.5 -14.5 38.5 q0 26 16.5 42.5 q16.5 16.5 42.5 16.5 q27 0 46 -21 q19 -21 19 -57 Z" /><glyph glyph-name="bullet" unicode="&#x2022;" d="M189 127 q-56 0 -97 40.5 q-41 40.5 -41 95.5 q0 56 40.5 96.5 q40.5 40.5 97.5 40.5 q55 0 95.5 -40.5 q40.5 -40.5 40.5 -96.5 q0 -55 -40.5 -95.5 q-40.5 -40.5 -95.5 -40.5 Z" /><glyph glyph-name="ellipsis" unicode="&#x2026;" d="M175.5 7 q-18.5 -18 -44.5 -18 q-26 0 -44.5 18 q-18.5 18 -18.5 43 q0 26 19 44.5 q19 18.5 44 18.5 q25 0 44 -18.5 q19 -18.5 19 -44.5 q0 -25 -18.5 -43 ZM390.5 7 q-18.5 -18 -44.5 -18 q-26 0 -44.5 18 q-18.5 18 -18.5 43 q0 26 18.5 44.5 q18.5 18.5 44.5 18.5 q26 0 44.5 -18.5 q18.5 -18.5 18.5 -44.5 q0 -25 -18.5 -43 ZM560 -11 q-25 0 -43.5 18 q-18.5 18 -18.5 43 q0 26 18.5 44.5 q18.5 18.5 43.5 18.5 q26 0 44.5 -18.5 q18.5 -18.5 18.5 -44.5 q0 -25 -18.5 -43 q-18.5 -18 -44.5 -18 Z" /></font>
</defs>
</svg>
