<?xml version="1.0" standalone="no"?><!DOCTYPE svg PUBLIC "-//W3C//DTD SVG 1.1//EN" "http://www.w3.org/Graphics/SVG/1.1/DTD/svg11.dtd" ><svg xmlns="http://www.w3.org/2000/svg"><metadata></metadata><defs><font id="2.000;ITFO;Satoshi-BoldItalic" horiz-adv-x="1187"><font-face font-family="false" font-weight="700" font-stretch="normal" units-per-em="1000" panose-1="0 0 0 0 0 0 0 0 0 0" ascent="1010" descent="-240" x-height="0" bbox="-124 -242 1130 915" underline-thickness="80" underline-position="-195" unicode-range="U+0020-2026" /><missing-glyph horiz-adv-x="500" d="M50 -229 l0 1096 l400 0 l0 -1096 l-400 0 ZM100 -179 l300 0 l0 996 l-300 0 l0 -996 Z" /><glyph glyph-name="space" unicode=" " d="" /><glyph glyph-name="exclam" unicode="!" d="M199 219 l-94 0 q0 127 34 343 l26 169 l138 0 l-26 -169 q-35 -214 -78 -343 ZM115 -12 q-30 0 -48 18 q-18 18 -18 48 q0 36 27 63.5 q27 27.5 64 27.5 q31 0 49 -18.5 q18 -18.5 18 -48.5 q0 -36 -27.5 -63 q-27.5 -27 -64.5 -27 Z" /><glyph glyph-name="quotedbl" unicode="&quot;" d="M245 658 l-63 -216 l-62 0 l4 216 q1 37 19.5 57.5 q18.5 20.5 50.5 20.5 q32 0 46.5 -22.5 q14.5 -22.5 4.5 -55.5 ZM435 658 l-63 -216 l-62 0 l4 216 q1 37 19.5 57.5 q18.5 20.5 50.5 20.5 q32 0 46.5 -22.5 q14.5 -22.5 4.5 -55.5 Z" /><glyph glyph-name="numbersign" unicode="#" d="M72 302 l94 0 l44 126 l-109 0 l41 111 l107 0 l67 192 l116 0 l-67 -192 l127 0 l67 192 l117 0 l-67 -192 l101 0 l-41 -111 l-99 0 l-44 -126 l111 0 l-39 -111 l-111 0 l-67 -191 l-116 0 l67 191 l-128 0 l-67 -191 l-116 0 l67 191 l-95 0 l40 111 ZM282 302 l127 0 l44 126 l-127 0 l-44 -126 Z" /><glyph glyph-name="dollar" unicode="$" d="M206 -95 l12 87 q-89 14 -140.5 68 q-51.5 54 -56.5 141 l124 0 q8 -78 89 -98 l29 212 l-25 8 q-162 50 -162 191 q0 102 68 164.5 q68 62.5 179 65.5 l11 82 l75 0 l-12 -89 q79 -17 128.5 -73 q49.5 -56 53.5 -134 l-123 0 q-8 73 -75 96 l-30 -215 l38 -12 q153 -47 153 -185 q0 -99 -68.5 -161 q-68.5 -62 -181.5 -66 l-11 -82 l-75 0 ZM198 530 q0 -70 81 -97 l28 200 q-51 -5 -80 -32 q-29 -27 -29 -71 ZM345 290 l-10 3 l-27 -194 q53 6 83 33.5 q30 27.5 30 70.5 q0 34 -17.5 54 q-17.5 20 -58.5 33 Z" /><glyph glyph-name="percent" unicode="%" d="M461 576 q0 -85 -61 -146.5 q-61 -61.5 -144 -61.5 q-80 0 -126.5 45.5 q-46.5 45.5 -46.5 123.5 q0 85 61 146.5 q61 61.5 144 61.5 q80 0 126.5 -45.5 q46.5 -45.5 46.5 -123.5 ZM877 731 l-651 -731 l-125 0 l651 731 l125 0 ZM366 570 q0 42 -21.5 64.5 q-21.5 22.5 -60.5 22.5 q-44 0 -74.5 -33.5 q-30.5 -33.5 -30.5 -81.5 q0 -41 21 -63.5 q21 -22.5 60 -22.5 q43 0 74.5 33.5 q31.5 33.5 31.5 80.5 ZM896 195 q0 -85 -61 -146.5 q-61 -61.5 -145 -61.5 q-79 0 -125.5 45.5 q-46.5 45.5 -46.5 123.5 q0 85 60.5 146 q60.5 61 144.5 61 q80 0 126.5 -45 q46.5 -45 46.5 -123 ZM801 189 q0 42 -21.5 64.5 q-21.5 22.5 -60.5 22.5 q-44 0 -75 -33.5 q-31 -33.5 -31 -81.5 q0 -42 21 -64.5 q21 -22.5 60 -22.5 q44 0 75.5 34 q31.5 34 31.5 81 Z" /><glyph glyph-name="ampersand" unicode="&amp;" d="M534 0 l-39 55 q-94 -68 -221 -68 q-106 0 -172.5 53 q-66.5 53 -66.5 138 q0 79 48 133.5 q48 54.5 160 100.5 q-57 86 -57 146 q0 80 56.5 132.5 q56.5 52.5 142.5 52.5 q75 0 119.5 -39.5 q44.5 -39.5 44.5 -105.5 q0 -60 -38 -110 q-38 -50 -123 -100 l119 -168 q29 57 41 130 l116 0 q-21 -131 -92 -222 l90 -128 l-128 0 ZM297 565 q0 -49 45 -111 q97 51 97 137 q0 26 -16.5 41.5 q-16.5 15.5 -45.5 15.5 q-35 0 -57.5 -23 q-22.5 -23 -22.5 -60 ZM162 196 q0 -50 35.5 -78.5 q35.5 -28.5 97.5 -28.5 q82 0 143 47 l-145 206 q-131 -56 -131 -146 Z" /><glyph glyph-name="quotesingle" unicode="&#39;" d="M245 658 l-63 -216 l-62 0 l4 216 q1 37 19.5 57.5 q18.5 20.5 50.5 20.5 q32 0 46.5 -22.5 q14.5 -22.5 4.5 -55.5 Z" /><glyph glyph-name="parenleft" unicode="(" d="M230 -191 l-93 0 q-96 138 -96 352 q0 171 65.5 339 q65.5 168 176.5 278 l100 0 q-101 -116 -163 -287 q-62 -171 -62 -334 q0 -101 19 -194.5 q19 -93.5 53 -153.5 Z" /><glyph glyph-name="parenright" unicode=")" d="M32 -191 l-100 0 q101 116 163 287 q62 171 62 334 q0 100 -19.5 193.5 q-19.5 93.5 -52.5 154.5 l93 0 q96 -138 96 -352 q0 -171 -65.5 -339 q-65.5 -168 -176.5 -278 Z" /><glyph glyph-name="asterisk" unicode="*" d="M142 569 l-62 24 l30 55 l61 -22 q38 -13 66 -34 q-4 37 4 82 l11 71 l63 0 l-11 -71 q-6 -43 -20 -82 q47 26 77 36 l68 22 l14 -60 l-70 -24 q-32 -11 -83 -18 q24 -23 45 -63 l29 -57 l-53 -36 l-31 58 q-22 38 -29 71 q-16 -34 -50 -73 l-48 -56 l-51 36 l49 59 q22 29 65 61 q-30 4 -74 21 Z" /><glyph glyph-name="plus" unicode="+" d="M108 385 l194 0 l32 202 l100 0 l-32 -202 l195 0 l-16 -96 l-194 0 l-32 -203 l-100 0 l32 203 l-196 0 l17 96 Z" /><glyph glyph-name="comma" unicode="," d="M191 66 q0 -65 -48.5 -118 q-48.5 -53 -115.5 -61 l8 47 q35 7 59.5 26.5 q24.5 19.5 27.5 43.5 q-12 -6 -27 -6 q-26 0 -43 16 q-17 16 -17 41 q0 36 26 63 q26 27 61 27 q31 0 50 -22 q19 -22 19 -57 Z" /><glyph glyph-name="hyphen" unicode="-" d="M57 215 l16 105 l315 0 l-17 -105 l-314 0 Z" /><glyph glyph-name="period" unicode="." d="M101 -12 q-30 0 -48 18 q-18 18 -18 48 q0 36 27 63.5 q27 27.5 64 27.5 q31 0 49 -18.5 q18 -18.5 18 -48.5 q0 -36 -27.5 -63 q-27.5 -27 -64.5 -27 Z" /><glyph glyph-name="slash" unicode="/" d="M85 0 l-124 0 l387 731 l125 0 l-388 -731 Z" /><glyph glyph-name="zero" unicode="0" d="M56 284 q0 198 100.5 329 q100.5 131 252.5 131 q125 0 196 -79.5 q71 -79.5 71 -217.5 q0 -197 -101 -328.5 q-101 -131.5 -252 -131.5 q-126 0 -196.5 79.5 q-70.5 79.5 -70.5 217.5 ZM178 288 q0 -92 39 -141.5 q39 -49.5 114 -49.5 q95 0 158.5 99.5 q63.5 99.5 63.5 246.5 q0 92 -39 141.5 q-39 49.5 -113 49.5 q-96 0 -159.5 -99 q-63.5 -99 -63.5 -247 Z" /><glyph glyph-name="one" unicode="1" d="M248 622 l-155 0 l18 109 l275 0 l-115 -731 l-121 0 l98 622 Z" /><glyph glyph-name="two" unicode="2" d="M501 0 l-495 0 l15 93 l285 208 q80 59 113 109 q33 50 33 114 q0 51 -30.5 81.5 q-30.5 30.5 -82.5 30.5 q-59 0 -96 -41 q-37 -41 -45 -115 l-124 0 q16 125 88.5 195 q72.5 70 186.5 70 q105 0 168 -59 q63 -59 63 -157 q0 -85 -51 -161 q-51 -76 -159 -153 l-137 -99 l286 0 l-18 -116 Z" /><glyph glyph-name="three" unicode="3" d="M267 364 l-82 0 l13 80 l210 178 l-296 0 l18 109 l453 0 l-15 -100 l-210 -178 q77 -17 124 -75.5 q47 -58.5 47 -140.5 q0 -111 -73 -180.5 q-73 -69.5 -189 -69.5 q-116 0 -183.5 66.5 q-67.5 66.5 -67.5 179.5 l123 0 q0 -63 34 -99.5 q34 -36.5 92 -36.5 q62 0 99 37.5 q37 37.5 37 101.5 q0 60 -35.5 94 q-35.5 34 -98.5 34 Z" /><glyph glyph-name="four" unicode="4" d="M581 140 l-87 0 l-22 -140 l-117 0 l22 140 l-367 0 l18 109 l403 482 l157 0 l-76 -482 l87 0 l-18 -109 ZM166 249 l229 0 l53 339 l-282 -339 Z" /><glyph glyph-name="five" unicode="5" d="M292 -13 q-117 0 -185.5 66.5 q-68.5 66.5 -68.5 179.5 l123 0 q0 -63 34.5 -99.5 q34.5 -36.5 94.5 -36.5 q62 0 101 42 q39 42 39 110 q0 65 -35 104 q-35 39 -93 39 q-81 0 -129 -67 l-106 24 l150 382 l371 0 l-18 -115 l-283 0 l-61 -153 q46 33 110 33 q100 0 162 -65.5 q62 -65.5 62 -171.5 q0 -118 -76 -195 q-76 -77 -192 -77 Z" /><glyph glyph-name="six" unicode="6" d="M188 525 l185 206 l152 0 l-210 -231 q24 6 46 6 q99 0 162 -61 q63 -61 63 -157 q0 -129 -86.5 -215 q-86.5 -86 -216.5 -86 q-107 0 -177 67 q-70 67 -70 167 q0 82 39.5 152.5 q39.5 70.5 112.5 151.5 ZM166 232 q0 -58 36.5 -95 q36.5 -37 95.5 -37 q67 0 112.5 49 q45.5 49 45.5 122 q0 60 -34.5 95.5 q-34.5 35.5 -93.5 35.5 q-69 0 -115.5 -49 q-46.5 -49 -46.5 -121 Z" /><glyph glyph-name="seven" unicode="7" d="M83 731 l520 0 l-18 -115 l-351 -616 l-137 0 l353 616 l-385 0 l18 115 Z" /><glyph glyph-name="eight" unicode="8" d="M32 199 q0 71 43 126 q43 55 113 75 q-76 43 -76 132 q0 95 74 154 q74 59 189 59 q104 0 170 -52 q66 -52 66 -132 q0 -64 -35 -110.5 q-35 -46.5 -94 -67.5 q47 -20 74 -61.5 q27 -41.5 27 -96.5 q0 -106 -80 -171.5 q-80 -65.5 -208 -65.5 q-118 0 -190.5 58.5 q-72.5 58.5 -72.5 152.5 ZM225 530 q0 -46 36.5 -71 q36.5 -25 98.5 -25 q60 0 96.5 29 q36.5 29 36.5 79 q0 42 -36 69 q-36 27 -93 27 q-62 0 -100.5 -29.5 q-38.5 -29.5 -38.5 -78.5 ZM154 208 q0 -49 41 -80.5 q41 -31.5 106 -31.5 q73 0 117 34 q44 34 44 93 q0 50 -41.5 80 q-41.5 30 -110.5 30 q-70 0 -113 -34 q-43 -34 -43 -91 Z" /><glyph glyph-name="nine" unicode="9" d="M470 206 l-185 -206 l-152 0 l210 232 q-22 -7 -46 -7 q-99 0 -162 61.5 q-63 61.5 -63 157.5 q0 128 86 214 q86 86 216 86 q107 0 177.5 -67 q70.5 -67 70.5 -167 q0 -81 -39.5 -152 q-39.5 -71 -112.5 -152 ZM492 499 q0 58 -36.5 95 q-36.5 37 -95.5 37 q-68 0 -113.5 -49 q-45.5 -49 -45.5 -122 q0 -59 35 -95 q35 -36 94 -36 q68 0 115 49 q47 49 47 121 Z" /><glyph glyph-name="colon" unicode=":" d="M169 352 q-31 0 -49 18 q-18 18 -18 48 q0 36 27.5 63.5 q27.5 27.5 64.5 27.5 q30 0 48.5 -18.5 q18.5 -18.5 18.5 -48.5 q0 -36 -27.5 -63 q-27.5 -27 -64.5 -27 ZM111 -12 q-30 0 -48 18 q-18 18 -18 48 q0 36 27 63.5 q27 27.5 64 27.5 q31 0 49 -18.5 q18 -18.5 18 -48.5 q0 -36 -27.5 -63 q-27.5 -27 -64.5 -27 Z" /><glyph glyph-name="semicolon" unicode=";" d="M169 352 q-30 0 -48 18 q-18 18 -18 48 q0 36 27 63.5 q27 27.5 64 27.5 q31 0 49 -18.5 q18 -18.5 18 -48.5 q0 -36 -27.5 -63 q-27.5 -27 -64.5 -27 ZM198 66 q0 -65 -48.5 -118 q-48.5 -53 -115.5 -61 l8 47 q35 7 59.5 26.5 q24.5 19.5 27.5 43.5 q-12 -6 -27 -6 q-26 0 -43 16 q-17 16 -17 41 q0 36 26 63 q26 27 61 27 q31 0 50 -22 q19 -22 19 -57 Z" /><glyph glyph-name="less" unicode="&lt;" d="M555 122 l-18 -111 l-461 176 l19 125 l517 176 l-18 -121 l-392 -122 l353 -123 Z" /><glyph glyph-name="equal" unicode="=" d="M119 458 l488 0 l-15 -97 l-489 0 l16 97 ZM85 241 l489 0 l-16 -97 l-489 0 l16 97 Z" /><glyph glyph-name="greater" unicode="&gt;" d="M566 187 l-518 -176 l19 120 l392 123 l-354 123 l19 111 l461 -177 l-19 -124 Z" /><glyph glyph-name="question" unicode="?" d="M290 186 l-107 0 l4 22 q16 107 134 188 q61 42 85 73.5 q24 31.5 24 71.5 q0 43 -27.5 68 q-27.5 25 -74.5 25 q-56 0 -91 -35.5 q-35 -35.5 -42 -97.5 l-123 0 q16 113 88 178.5 q72 65.5 180 65.5 q96 0 156.5 -55 q60.5 -55 60.5 -143 q0 -124 -148 -215 q-60 -36 -85 -63.5 q-25 -27.5 -30 -60.5 l-4 -22 ZM209 -12 q-28 0 -47.5 19 q-19.5 19 -19.5 47 q0 35 28.5 63 q28.5 28 63.5 28 q28 0 47.5 -19.5 q19.5 -19.5 19.5 -47.5 q0 -34 -28.5 -62 q-28.5 -28 -63.5 -28 Z" /><glyph glyph-name="at" unicode="@" d="M254 213 q0 67 48.5 107 q48.5 40 139.5 47 l138 11 l1 10 q3 43 -20.5 65 q-23.5 22 -69.5 22 q-93 0 -104 -75 l-91 0 q12 75 66.5 117.5 q54.5 42.5 141.5 42.5 q93 0 141 -51 q48 -51 35 -138 l-25 -157 q-9 -57 41 -57 q50 0 88 68.5 q38 68.5 38 159.5 q0 129 -80 207 q-80 78 -212 78 q-173 0 -285.5 -115 q-112.5 -115 -112.5 -292 q0 -135 81 -218.5 q81 -83.5 212 -83.5 q116 0 219 66 l25 -66 q-114 -74 -254 -74 q-159 0 -260.5 105 q-101.5 105 -101.5 270 q0 211 135.5 346.5 q135.5 135.5 346.5 135.5 q161 0 263.5 -101 q102.5 -101 102.5 -258 q0 -136 -59 -218 q-59 -82 -157 -82 q-52 0 -83.5 23 q-31.5 23 -34.5 63 q-47 -86 -162 -86 q-67 0 -109 36 q-42 36 -42 92 ZM363 222 q0 -54 69 -54 q52 0 87 30 q35 30 43 82 l3 24 l-95 -8 q-57 -5 -82 -22.5 q-25 -17.5 -25 -51.5 Z" /><glyph glyph-name="A" unicode="A" d="M105 0 l-134 0 l375 731 l127 0 l143 -731 l-125 0 l-31 171 l-269 0 l-86 -171 ZM366 521 l-123 -245 l198 0 l-45 245 q-7 35 -7 54 q-11 -29 -23 -54 Z" /><glyph glyph-name="B" unicode="B" d="M42 0 l116 731 l284 0 q88 0 141.5 -48.5 q53.5 -48.5 53.5 -128.5 q0 -68 -34.5 -119 q-34.5 -51 -95.5 -75 q91 -35 91 -139 q0 -103 -71 -162 q-71 -59 -195 -59 l-290 0 ZM412 622 l-149 0 l-32 -204 l155 0 q58 0 92 31.5 q34 31.5 34 84.5 q0 41 -26.5 64.5 q-26.5 23.5 -73.5 23.5 ZM367 312 l-153 0 l-32 -203 l155 0 q64 0 99.5 29.5 q35.5 29.5 35.5 82.5 q0 44 -27 67.5 q-27 23.5 -78 23.5 Z" /><glyph glyph-name="C" unicode="C" d="M367 -12 q-144 0 -227.5 89 q-83.5 89 -83.5 233 q0 189 112 311 q112 122 284 122 q128 0 206.5 -71 q78.5 -71 83.5 -186 l-130 0 q-10 66 -56.5 101.5 q-46.5 35.5 -117.5 35.5 q-113 0 -182.5 -86 q-69.5 -86 -69.5 -220 q0 -95 49.5 -151.5 q49.5 -56.5 135.5 -56.5 q151 0 208 135 l135 0 q-43 -126 -131.5 -191 q-88.5 -65 -215.5 -65 Z" /><glyph glyph-name="D" unicode="D" d="M298 0 l-256 0 l116 731 l239 0 q139 0 227 -92.5 q88 -92.5 88 -234.5 q0 -181 -116 -292.5 q-116 -111.5 -298 -111.5 ZM375 617 l-112 0 l-80 -502 l123 0 q124 0 199.5 78 q75.5 78 75.5 211 q0 96 -55.5 154.5 q-55.5 58.5 -150.5 58.5 Z" /><glyph glyph-name="E" unicode="E" d="M487 0 l-445 0 l116 731 l444 0 l-18 -115 l-321 0 l-31 -193 l287 0 l-17 -110 l-288 0 l-31 -198 l322 0 l-18 -115 Z" /><glyph glyph-name="F" unicode="F" d="M481 300 l-269 0 l-47 -300 l-123 0 l116 731 l441 0 l-17 -114 l-320 0 l-32 -205 l268 0 l-17 -112 Z" /><glyph glyph-name="G" unicode="G" d="M438 625 q-111 0 -181.5 -86.5 q-70.5 -86.5 -70.5 -221.5 q0 -98 53 -155 q53 -57 145 -57 q93 0 151.5 50 q58.5 50 72.5 140 l1 5 l-219 0 l18 110 l332 0 l-65 -410 l-103 0 l6 82 q-31 -43 -88.5 -68.5 q-57.5 -25.5 -122.5 -25.5 q-142 0 -226.5 88 q-84.5 88 -84.5 234 q0 188 112 310.5 q112 122.5 284 122.5 q125 0 203.5 -66.5 q78.5 -66.5 86.5 -179.5 l-132 0 q-11 62 -55 95 q-44 33 -117 33 Z" /><glyph glyph-name="H" unicode="H" d="M165 0 l-123 0 l116 731 l122 0 l-48 -305 l321 0 l48 305 l123 0 l-115 -731 l-123 0 l49 312 l-320 0 l-50 -312 Z" /><glyph glyph-name="I" unicode="I" d="M280 731 l-115 -731 l-123 0 l116 731 l122 0 Z" /><glyph glyph-name="J" unicode="J" d="M16 207 l4 42 l119 0 l-4 -42 q-6 -49 17.5 -76.5 q23.5 -27.5 71.5 -27.5 q49 0 76 25.5 q27 25.5 36 81.5 l83 521 l122 0 l-84 -528 q-33 -216 -237 -216 q-104 0 -159.5 60 q-55.5 60 -44.5 160 Z" /><glyph glyph-name="K" unicode="K" d="M280 731 l-59 -377 l346 377 l152 0 l-286 -310 l173 -421 l-135 0 l-130 321 l-151 -165 l-25 -156 l-123 0 l116 731 l122 0 Z" /><glyph glyph-name="L" unicode="L" d="M280 731 l-97 -616 l301 0 l-18 -115 l-424 0 l116 731 l122 0 Z" /><glyph glyph-name="M" unicode="M" d="M162 0 l-120 0 l116 731 l115 0 l139 -586 l325 586 l127 0 l-116 -731 l-120 0 l42 268 q22 138 40 207 l-258 -475 l-115 0 l-109 474 q0 -60 -23 -206 l-43 -268 Z" /><glyph glyph-name="N" unicode="N" d="M165 0 l-123 0 l116 731 l122 0 l255 -523 l82 523 l123 0 l-116 -731 l-122 0 l-255 523 l-82 -523 Z" /><glyph glyph-name="O" unicode="O" d="M758 423 q0 -183 -113 -309 q-113 -126 -278 -126 q-140 0 -226.5 88 q-86.5 88 -86.5 231 q0 184 112.5 310 q112.5 126 278.5 126 q140 0 226.5 -88.5 q86.5 -88.5 86.5 -231.5 ZM627 412 q0 98 -51.5 154.5 q-51.5 56.5 -141.5 56.5 q-105 0 -177 -88 q-72 -88 -72 -216 q0 -97 52 -154 q52 -57 141 -57 q105 0 177 88 q72 88 72 216 Z" /><glyph glyph-name="P" unicode="P" d="M362 253 l-157 0 l-40 -253 l-123 0 l116 731 l263 0 q99 0 158.5 -57.5 q59.5 -57.5 59.5 -153.5 q0 -119 -76.5 -193 q-76.5 -74 -200.5 -74 ZM390 620 l-127 0 l-41 -256 l132 0 q74 0 116 38 q42 38 42 107 q0 52 -32 81.5 q-32 29.5 -90 29.5 Z" /><glyph glyph-name="Q" unicode="Q" d="M596 -54 l-59 83 q-80 -41 -170 -41 q-140 0 -226.5 88 q-86.5 88 -86.5 231 q0 184 112.5 310 q112.5 126 278.5 126 q140 0 226.5 -88.5 q86.5 -88.5 86.5 -231.5 q0 -99 -36 -185.5 q-36 -86.5 -99 -146.5 l57 -81 l-84 -64 ZM627 412 q0 98 -51.5 154.5 q-51.5 56.5 -141.5 56.5 q-105 0 -177 -88 q-72 -88 -72 -216 q0 -97 52 -154 q52 -57 141 -57 q45 0 89 19 l-80 111 l84 65 l80 -112 q76 89 76 221 Z" /><glyph glyph-name="R" unicode="R" d="M165 0 l-123 0 l116 731 l269 0 q103 0 163.5 -55 q60.5 -55 60.5 -148 q0 -77 -44.5 -137 q-44.5 -60 -124.5 -91 l96 -300 l-127 0 l-87 275 l-156 0 l-43 -275 ZM263 620 l-37 -236 l148 0 q69 0 109 36 q40 36 40 98 q0 49 -30.5 75.5 q-30.5 26.5 -84.5 26.5 l-145 0 Z" /><glyph glyph-name="S" unicode="S" d="M76 514 q0 104 70.5 167 q70.5 63 185.5 63 q104 0 173.5 -60 q69.5 -60 73.5 -154 l-123 0 q-5 49 -39.5 76.5 q-34.5 27.5 -89.5 27.5 q-60 0 -94.5 -27.5 q-34.5 -27.5 -34.5 -76.5 q0 -71 85 -98 l106 -33 q153 -49 153 -185 q0 -102 -72.5 -164.5 q-72.5 -62.5 -190.5 -62.5 q-116 0 -184 56.5 q-68 56.5 -74 157.5 l124 0 q5 -49 41 -76 q36 -27 97 -27 q63 0 100.5 28.5 q37.5 28.5 37.5 76.5 q0 34 -17.5 54 q-17.5 20 -58.5 33 l-107 33 q-162 50 -162 191 Z" /><glyph glyph-name="T" unicode="T" d="M76 617 l18 114 l541 0 l-18 -114 l-209 0 l-98 -617 l-122 0 l98 617 l-210 0 Z" /><glyph glyph-name="U" unicode="U" d="M80 272 l73 459 l123 0 l-72 -458 q-13 -78 23 -122 q36 -44 112 -44 q76 0 123.5 43 q47.5 43 60.5 123 l73 458 l123 0 l-75 -466 q-21 -132 -102.5 -204.5 q-81.5 -72.5 -212.5 -72.5 q-125 0 -196.5 80 q-71.5 80 -52.5 204 Z" /><glyph glyph-name="V" unicode="V" d="M240 0 l-154 731 l126 0 l89 -427 q15 -70 23 -145 q33 77 69 144 l223 428 l134 0 l-382 -731 l-128 0 Z" /><glyph glyph-name="W" unicode="W" d="M189 0 l-98 731 l122 0 l51 -395 q11 -74 12 -143 q22 69 57 143 l177 395 l139 0 l51 -395 q8 -65 11 -142 q19 57 56 141 l179 396 l128 0 l-333 -731 l-118 0 l-68 551 l-244 -551 l-122 0 Z" /><glyph glyph-name="X" unicode="X" d="M277 365 l-174 366 l133 0 l68 -137 q26 -52 61 -146 l211 283 l149 0 l-292 -366 l178 -365 l-139 0 l-62 126 q-23 48 -66 156 l-214 -282 l-153 0 l300 365 Z" /><glyph glyph-name="Y" unicode="Y" d="M258 289 l-171 442 l130 0 l101 -270 q12 -31 16 -53 q13 26 31 53 l186 270 l141 0 l-311 -442 l-46 -289 l-123 0 l46 289 Z" /><glyph glyph-name="Z" unicode="Z" d="M507 0 l-515 0 l18 116 l433 500 l-345 0 l17 115 l502 0 l-17 -111 l-438 -505 l363 0 l-18 -115 Z" /><glyph glyph-name="bracketleft" unicode="[" d="M135 -2 l120 0 l-14 -91 l-227 0 l146 929 l227 0 l-14 -92 l-121 0 l-117 -746 Z" /><glyph glyph-name="backslash" unicode="\" d="M191 731 l166 -731 l-113 0 l-167 731 l114 0 Z" /><glyph glyph-name="bracketright" unicode="]" d="M-48 -93 l14 91 l121 0 l117 746 l-120 0 l14 92 l227 0 l-146 -929 l-227 0 Z" /><glyph glyph-name="asciicircum" unicode="^" d="M197 400 l-107 0 l183 331 l114 0 l79 -331 l-97 0 l-49 233 l-123 -233 Z" /><glyph glyph-name="underscore" unicode="_" d="M4 -106 l14 89 l415 0 l-14 -89 l-415 0 Z" /><glyph glyph-name="grave" unicode="`" d="M309 769 l-82 0 l-71 146 l105 0 l48 -146 Z" /><glyph glyph-name="a" unicode="a" d="M172 -13 q-67 0 -108 37.5 q-41 37.5 -41 97.5 q0 76 53.5 121 q53.5 45 151.5 53 l147 13 l1 11 q7 46 -16.5 71 q-23.5 25 -74.5 25 q-100 0 -112 -84 l-105 0 q13 84 72.5 130 q59.5 46 156.5 46 q103 0 155 -56 q52 -56 37 -151 l-48 -301 l-103 0 l3 74 q-21 -40 -67 -63.5 q-46 -23.5 -102 -23.5 ZM217 77 q57 0 95.5 33.5 q38.5 33.5 46.5 90.5 l4 27 l-104 -9 q-117 -9 -117 -84 q0 -27 20 -42.5 q20 -15.5 55 -15.5 Z" /><glyph glyph-name="b" unicode="b" d="M133 0 l-109 0 l118 744 l117 0 l-51 -324 q61 87 168 87 q87 0 143.5 -62 q56.5 -62 56.5 -161 q0 -129 -73.5 -212.5 q-73.5 -83.5 -185.5 -83.5 q-56 0 -100.5 25 q-44.5 25 -63.5 66 l-20 -79 ZM179 217 q0 -58 31.5 -91.5 q31.5 -33.5 86.5 -33.5 q68 0 115 53.5 q47 53.5 47 131.5 q0 57 -32 92 q-32 35 -86 35 q-68 0 -115 -54 q-47 -54 -47 -133 Z" /><glyph glyph-name="c" unicode="c" d="M30 209 q0 127 79.5 212.5 q79.5 85.5 196.5 85.5 q98 0 154 -50.5 q56 -50.5 59 -141.5 l-119 0 q-3 42 -29.5 65 q-26.5 23 -71.5 23 q-64 0 -106.5 -53.5 q-42.5 -53.5 -42.5 -133.5 q0 -58 29 -91 q29 -33 81 -33 q41 0 73.5 24 q32.5 24 47.5 65 l120 0 q-23 -88 -90.5 -140.5 q-67.5 -52.5 -156.5 -52.5 q-104 0 -164 59 q-60 59 -60 162 Z" /><glyph glyph-name="d" unicode="d" d="M232 -12 q-87 0 -143.5 62 q-56.5 62 -56.5 161 q0 130 73.5 213 q73.5 83 185.5 83 q56 0 101 -24.5 q45 -24.5 63 -65.5 l51 327 l117 0 l-118 -744 l-109 0 l4 76 q-60 -88 -168 -88 ZM267 92 q68 0 115 54 q47 54 47 133 q0 58 -31.5 91.5 q-31.5 33.5 -86.5 33.5 q-68 0 -115 -54 q-47 -54 -47 -132 q0 -57 32 -91.5 q32 -34.5 86 -34.5 Z" /><glyph glyph-name="e" unicode="e" d="M254 -12 q-104 0 -164 59 q-60 59 -60 162 q0 127 79.5 212.5 q79.5 85.5 196.5 85.5 q109 0 166 -69 q57 -69 40 -181 l-6 -37 l-363 -1 l0 -3 q0 -63 30 -97 q30 -34 87 -34 q89 0 122 74 l116 0 q-25 -77 -92.5 -124 q-67.5 -47 -151.5 -47 ZM299 411 q-48 0 -87 -32 q-39 -32 -56 -84 l245 0 q8 52 -20 84 q-28 32 -82 32 Z" /><glyph glyph-name="f" unicode="f" d="M53 494 l70 0 l10 62 q30 188 202 188 q37 0 60 -5 l-16 -101 q-7 0 -20.5 0.5 q-13.5 0.5 -20.5 0.5 q-40 0 -61 -20 q-21 -20 -28 -63 l-10 -62 l116 0 l-16 -98 l-115 0 l-63 -396 l-116 0 l63 396 l-71 0 l16 98 Z" /><glyph glyph-name="g" unicode="g" d="M32 218 q0 121 77.5 205 q77.5 84 189.5 84 q51 0 91 -22 q40 -22 58 -59 l19 68 l109 0 l-74 -469 q-42 -267 -271 -267 q-106 0 -171.5 58.5 q-65.5 58.5 -66.5 153.5 l116 0 q3 -49 36 -77 q33 -28 88 -28 q126 0 149 138 l13 83 q-57 -76 -160 -76 q-89 0 -146 58.5 q-57 58.5 -57 149.5 ZM151 228 q0 -53 31 -85.5 q31 -32.5 81 -32.5 q68 0 114 51.5 q46 51.5 46 127.5 q0 53 -30.5 84 q-30.5 31 -83.5 31 q-67 0 -112.5 -51 q-45.5 -51 -45.5 -125 Z" /><glyph glyph-name="h" unicode="h" d="M141 0 l-117 0 l118 744 l117 0 l-50 -317 q62 82 155 82 q83 0 130.5 -59.5 q47.5 -59.5 33.5 -146.5 l-48 -303 l-117 0 l44 275 q10 60 -14 94 q-24 34 -75 34 q-54 0 -89.5 -36.5 q-35.5 -36.5 -46.5 -101.5 l-41 -265 Z" /><glyph glyph-name="i" unicode="i" d="M176 594 q-27 0 -44 17.5 q-17 17.5 -17 43.5 q0 33 25 58.5 q25 25.5 59 25.5 q26 0 43.5 -17.5 q17.5 -17.5 17.5 -43.5 q0 -32 -25.5 -58 q-25.5 -26 -58.5 -26 ZM24 0 l78 494 l117 0 l-78 -494 l-117 0 Z" /><glyph glyph-name="j" unicode="j" d="M175 594 q-27 0 -44 17.5 q-17 17.5 -17 43.5 q0 33 25 58.5 q25 25.5 58 25.5 q27 0 44 -17.5 q17 -17.5 17 -43.5 q0 -32 -25.5 -58 q-25.5 -26 -57.5 -26 ZM-124 -230 l30 104 q18 -6 41 -6 q28 0 44 18 q16 18 22 57 l87 551 l117 0 l-89 -564 q-27 -172 -173 -172 q-42 0 -79 12 Z" /><glyph glyph-name="k" unicode="k" d="M143 0 l-117 0 l117 744 l118 0 l-72 -456 l220 206 l149 0 l-219 -205 l130 -289 l-126 0 l-95 211 l-84 -77 l-21 -134 Z" /><glyph glyph-name="l" unicode="l" d="M143 0 l-117 0 l117 744 l118 0 l-118 -744 Z" /><glyph glyph-name="m" unicode="m" d="M141 0 l-117 0 l78 494 l108 0 l-1 -60 q55 74 151 74 q105 0 135 -93 q26 44 70 68.5 q44 24.5 97 24.5 q81 0 127 -53 q46 -53 33 -133 l-50 -322 l-117 0 l45 292 q8 51 -13.5 81 q-21.5 30 -67.5 30 q-48 0 -78.5 -31.5 q-30.5 -31.5 -39.5 -90.5 l-45 -281 l-117 0 l46 293 q8 49 -14 79 q-22 30 -66 30 q-48 0 -79 -31 q-31 -31 -40 -89 l-45 -282 Z" /><glyph glyph-name="n" unicode="n" d="M141 0 l-117 0 l78 494 l108 0 l0 -67 q62 82 155 82 q83 0 130.5 -59.5 q47.5 -59.5 33.5 -146.5 l-48 -303 l-117 0 l43 275 q10 60 -13.5 94 q-23.5 34 -75.5 34 q-53 0 -89 -36.5 q-36 -36.5 -46 -101.5 l-42 -265 Z" /><glyph glyph-name="o" unicode="o" d="M30 212 q0 124 84.5 209.5 q84.5 85.5 205.5 85.5 q106 0 171 -62 q65 -62 65 -162 q0 -124 -84 -209.5 q-84 -85.5 -206 -85.5 q-106 0 -171 62 q-65 62 -65 162 ZM150 221 q0 -59 33 -94 q33 -35 90 -35 q68 0 115.5 53 q47.5 53 47.5 129 q0 59 -33 94.5 q-33 35.5 -89 35.5 q-68 0 -116 -53.5 q-48 -53.5 -48 -129.5 Z" /><glyph glyph-name="p" unicode="p" d="M-12 -229 l114 723 l109 0 l-4 -74 q62 87 168 87 q88 0 144.5 -62 q56.5 -62 56.5 -161 q0 -129 -74 -212.5 q-74 -83.5 -186 -83.5 q-56 0 -100.5 25 q-44.5 25 -63.5 66 l-47 -308 l-117 0 ZM178 217 q0 -58 32 -91.5 q32 -33.5 87 -33.5 q68 0 114.5 53.5 q46.5 53.5 46.5 131.5 q0 57 -31.5 92 q-31.5 35 -85.5 35 q-68 0 -115.5 -54 q-47.5 -54 -47.5 -133 Z" /><glyph glyph-name="q" unicode="q" d="M32 211 q0 130 73.5 213 q73.5 83 185.5 83 q56 0 101 -24.5 q45 -24.5 63 -65.5 l21 77 l108 0 l-114 -723 l-117 0 l47 305 q-60 -88 -168 -88 q-87 0 -143.5 62 q-56.5 62 -56.5 161 ZM149 218 q0 -57 32 -91.5 q32 -34.5 86 -34.5 q68 0 115 54 q47 54 47 133 q0 58 -31.5 91.5 q-31.5 33.5 -86.5 33.5 q-68 0 -115 -54 q-47 -54 -47 -132 Z" /><glyph glyph-name="r" unicode="r" d="M404 497 l-18 -110 l-44 0 q-65 0 -108 -36.5 q-43 -36.5 -54 -106.5 l-39 -244 l-117 0 l78 494 l109 0 l-4 -76 q21 40 58.5 62.5 q37.5 22.5 84.5 22.5 q28 0 54 -6 Z" /><glyph glyph-name="s" unicode="s" d="M7 148 l113 0 q1 -33 24.5 -51.5 q23.5 -18.5 62.5 -18.5 q40 0 64.5 16.5 q24.5 16.5 24.5 44.5 q0 21 -11 33 q-11 12 -38 21 l-84 28 q-109 35 -109 129 q0 72 53 114.5 q53 42.5 144 42.5 q81 0 130 -43.5 q49 -43.5 49 -114.5 l-113 0 q-2 70 -75 70 q-36 0 -56 -15 q-20 -15 -20 -42 q0 -41 56 -60 l83 -27 q104 -35 104 -123 q0 -76 -56 -119.5 q-56 -43.5 -154 -43.5 q-86 0 -139 43.5 q-53 43.5 -53 115.5 Z" /><glyph glyph-name="t" unicode="t" d="M186 0 l-117 0 l62 396 l-94 0 l16 98 l94 0 l24 153 l117 0 l-24 -153 l94 0 l-16 -98 l-94 0 l-62 -396 Z" /><glyph glyph-name="u" unicode="u" d="M429 494 l118 0 l-78 -494 l-109 0 l1 67 q-33 -42 -68.5 -61 q-35.5 -19 -84.5 -19 q-82 0 -127.5 59.5 q-45.5 59.5 -31.5 146.5 l48 301 l117 0 l-44 -273 q-10 -60 13.5 -94 q23.5 -34 71.5 -34 q53 0 88 35.5 q35 35.5 45 100.5 l41 265 Z" /><glyph glyph-name="v" unicode="v" d="M159 0 l-114 494 l118 0 l49 -234 q13 -66 23 -134 q39 87 64 134 l127 234 l130 0 l-281 -494 l-116 0 Z" /><glyph glyph-name="w" unicode="w" d="M130 0 l-80 494 l118 0 l30 -218 q7 -48 12 -126 q23 63 52 126 l101 218 l120 0 l30 -218 q4 -28 12 -126 q37 94 52 126 l101 218 l128 0 l-245 -494 l-108 0 l-35 220 q-13 103 -15 142 q-21 -55 -59 -144 l-98 -218 l-116 0 Z" /><glyph glyph-name="x" unicode="x" d="M112 0 l-141 0 l207 242 l-129 252 l128 0 l84 -171 l129 171 l139 0 l-206 -251 l124 -243 l-128 0 l-80 166 l-127 -166 Z" /><glyph glyph-name="y" unicode="y" d="M-56 -228 l16 99 l70 0 q67 0 102 69 l24 47 l-111 507 l118 0 l68 -364 l190 364 l127 0 l-331 -604 q-36 -63 -79.5 -96 q-43.5 -33 -106.5 -33 q-48 0 -87 11 Z" /><glyph glyph-name="z" unicode="z" d="M387 0 l-388 0 l15 97 l287 299 l-240 0 l16 98 l389 0 l-16 -98 l-290 -298 l243 0 l-16 -98 Z" /><glyph glyph-name="braceleft" unicode="{" d="M57 324 l16 94 q98 0 112 88 l33 211 q19 119 143 119 l66 0 l-14 -92 l-44 0 q-39 0 -48 -48 l-31 -204 q-9 -52 -31.5 -82.5 q-22.5 -30.5 -66.5 -46.5 q71 -24 59 -114 l-32 -204 q-6 -47 33 -47 l44 0 l-15 -91 l-66 0 q-53 0 -83.5 34 q-30.5 34 -22.5 85 l33 209 q14 89 -85 89 Z" /><glyph glyph-name="bar" unicode="|" d="M68 -88 l139 878 l91 0 l-139 -878 l-91 0 Z" /><glyph glyph-name="braceright" unicode="}" d="M19 -93 l-66 0 l14 91 l44 0 q40 0 47 48 l32 204 q8 53 31 83 q23 30 67 46 q-73 26 -59 114 l31 204 q4 22 -5 34.5 q-9 12.5 -27 12.5 l-44 0 l14 92 l66 0 q53 0 83.5 -34.5 q30.5 -34.5 22.5 -85.5 l-32 -209 q-14 -88 84 -88 l-15 -95 q-98 0 -112 -88 l-33 -210 q-18 -119 -143 -119 Z" /><glyph glyph-name="asciitilde" unicode="~" d="M505 390 l92 0 q-29 -170 -154 -170 q-40 0 -78 20 q-38 20 -70 39.5 q-32 19.5 -59 19.5 q-51 0 -64 -70 l-92 0 q13 80 52.5 123 q39.5 43 101.5 43 q48 0 111 -39.5 q63 -39.5 96 -39.5 q26 0 41 17.5 q15 17.5 23 56.5 Z" /><glyph glyph-name="yen" unicode="¥" d="M245 135 l-164 0 l14 88 l164 0 l9 59 l-164 0 l14 89 l129 0 l-150 360 l133 0 l114 -314 l210 314 l144 0 l-263 -360 l127 0 l-14 -89 l-163 0 l-9 -59 l163 0 l-14 -88 l-163 0 l-22 -135 l-116 0 l21 135 Z" /><glyph glyph-name="copyright" unicode="©" d="M388 -13 q-146 0 -239.5 94 q-93.5 94 -93.5 241 q0 173 119 298 q119 125 284 125 q146 0 239.5 -93.5 q93.5 -93.5 93.5 -241.5 q0 -172 -119.5 -297.5 q-119.5 -125.5 -283.5 -125.5 ZM394 60 q133 0 227 101 q94 101 94 244 q0 119 -72.5 193 q-72.5 74 -190.5 74 q-133 0 -227 -101 q-94 -101 -94 -243 q0 -120 72.5 -194 q72.5 -74 190.5 -74 ZM239 339 q0 97 58 159 q58 62 149 62 q70 0 113 -39.5 q43 -39.5 48 -106.5 l-91 0 q-6 66 -75 66 q-48 0 -79.5 -38.5 q-31.5 -38.5 -31.5 -98.5 q0 -43 23 -69 q23 -26 60 -26 q71 0 94 69 l90 0 q-17 -65 -70 -106.5 q-53 -41.5 -119 -41.5 q-75 0 -122 47 q-47 47 -47 123 Z" /><glyph glyph-name="periodcentered" unicode="·" d="M152 172 q-40 0 -65 24.5 q-25 24.5 -25 64.5 q0 49 36.5 85.5 q36.5 36.5 86.5 36.5 q40 0 65 -24.5 q25 -24.5 25 -64.5 q0 -50 -36.5 -86 q-36.5 -36 -86.5 -36 Z" /><glyph glyph-name="threequarters" unicode="¾" d="M58 490 l69 0 q0 -28 15.5 -44 q15.5 -16 41.5 -16 q25 0 39.5 14.5 q14.5 14.5 14.5 39.5 q0 28 -18.5 44 q-18.5 16 -50.5 16 l-32 0 l7 46 l94 77 l-136 0 l10 64 l225 0 l-9 -59 l-96 -79 q35 -11 56 -39.5 q21 -28.5 21 -64.5 q0 -54 -35.5 -88.5 q-35.5 -34.5 -92.5 -34.5 q-55 0 -89 34 q-34 34 -34 90 ZM721 710 l-576 -710 l-95 0 l575 710 l96 0 ZM548 68 l-170 0 l9 57 l180 233 l93 0 l-35 -228 l45 0 l-10 -62 l-46 0 l-11 -68 l-66 0 l11 68 ZM469 130 l89 0 l22 146 l-111 -146 Z" /><glyph glyph-name="aring" unicode="å" d="M328 541 q-50 0 -81 30 q-31 30 -31 77 q0 62 40 103.5 q40 41.5 100 41.5 q49 0 81 -31 q32 -31 32 -79 q0 -61 -40.5 -101.5 q-40.5 -40.5 -100.5 -40.5 ZM334 606 q29 0 47.5 20 q18.5 20 18.5 51 q0 23 -13.5 37 q-13.5 14 -36.5 14 q-28 0 -46.5 -20 q-18.5 -20 -18.5 -51 q0 -23 13.5 -37 q13.5 -14 35.5 -14 ZM172 -13 q-67 0 -108 37.5 q-41 37.5 -41 97.5 q0 76 53.5 121 q53.5 45 151.5 53 l147 13 l1 11 q7 46 -16.5 71 q-23.5 25 -74.5 25 q-100 0 -112 -84 l-105 0 q13 84 72.5 130 q59.5 46 156.5 46 q103 0 155 -56 q52 -56 37 -151 l-48 -301 l-103 0 l3 74 q-21 -40 -67 -63.5 q-46 -23.5 -102 -23.5 ZM217 77 q57 0 95.5 33.5 q38.5 33.5 46.5 90.5 l4 27 l-104 -9 q-117 -9 -117 -84 q0 -27 20 -42.5 q20 -15.5 55 -15.5 Z" /><glyph glyph-name="ae" unicode="æ" d="M23 122 q0 147 204 164 l146 12 l4 22 q7 46 -17 71 q-24 25 -75 25 q-100 0 -112 -84 l-105 0 q13 84 72.5 130 q59.5 46 156.5 46 q115 0 159 -71 q72 70 176 70 q110 0 166.5 -69 q56.5 -69 39.5 -181 l-6 -37 l-363 -1 l0 -3 q0 -63 30 -97 q30 -34 87 -34 q42 0 74 19.5 q32 19.5 48 54.5 l116 0 q-25 -77 -92 -124 q-67 -47 -152 -47 q-141 0 -191 108 q-66 -109 -208 -109 q-73 0 -115.5 37 q-42.5 37 -42.5 98 ZM625 411 q-48 0 -87 -32 q-39 -32 -56 -84 l245 0 q8 53 -19.5 84.5 q-27.5 31.5 -82.5 31.5 ZM142 135 q0 -28 20 -43 q20 -15 55 -15 q57 0 95 33.5 q38 33.5 47 90.5 l3 17 l-104 -9 q-62 -5 -89 -22 q-27 -17 -27 -52 Z" /><glyph glyph-name="ccedilla" unicode="ç" d="M30 209 q0 127 79.5 212.5 q79.5 85.5 196.5 85.5 q98 0 154 -50.5 q56 -50.5 59 -141.5 l-119 0 q-3 42 -29.5 65 q-26.5 23 -71.5 23 q-64 0 -106.5 -53.5 q-42.5 -53.5 -42.5 -133.5 q0 -58 29 -91 q29 -33 81 -33 q41 0 73.5 24 q32.5 24 47.5 65 l120 0 q-22 -86 -88 -138.5 q-66 -52.5 -153 -54.5 l-21 -33 q11 4 28 4 q28 0 49.5 -18.5 q21.5 -18.5 21.5 -50.5 q0 -46 -33 -74 q-33 -28 -88 -28 q-45 0 -74 18 l9 55 q33 -18 62 -18 q27 0 42.5 11 q15.5 11 15.5 30 q0 31 -37 31 q-23 0 -49 -9 l-7 33 l33 52 q-85 11 -133.5 69 q-48.5 58 -48.5 149 Z" /><glyph glyph-name="endash" unicode="&#x2013;" d="M63 214 l16 104 l822 0 l-16 -104 l-822 0 Z" /><glyph glyph-name="emdash" unicode="&#x2014;" d="M63 214 l16 104 l1051 0 l-17 -104 l-1050 0 Z" /><glyph glyph-name="quoteleft" unicode="&#x2018;" d="M265 579 q0 -36 -24.5 -62 q-24.5 -26 -59.5 -26 q-30 0 -48 20.5 q-18 20.5 -18 53.5 q0 66 47.5 118.5 q47.5 52.5 112.5 60.5 l-8 -47 q-33 -6 -55.5 -25 q-22.5 -19 -26.5 -44 q12 6 27 6 q24 0 38.5 -15 q14.5 -15 14.5 -40 Z" /><glyph glyph-name="quoteright" unicode="&#x2019;" d="M279 670 q0 -65 -46.5 -118 q-46.5 -53 -112.5 -61 l7 48 q32 6 54 24 q22 18 28 45 q-12 -6 -27 -6 q-24 0 -38.5 14.5 q-14.5 14.5 -14.5 39.5 q0 37 25 62.5 q25 25.5 60 25.5 q30 0 47.5 -20 q17.5 -20 17.5 -54 Z" /><glyph glyph-name="quotedblleft" unicode="&#x201c;" d="M265 579 q0 -36 -24.5 -62 q-24.5 -26 -59.5 -26 q-30 0 -48 20.5 q-18 20.5 -18 53.5 q0 66 47.5 118.5 q47.5 52.5 112.5 60.5 l-8 -47 q-33 -6 -55.5 -25 q-22.5 -19 -26.5 -44 q12 6 27 6 q24 0 38.5 -15 q14.5 -15 14.5 -40 ZM461 579 q0 -36 -24.5 -62 q-24.5 -26 -59.5 -26 q-30 0 -48 20.5 q-18 20.5 -18 53.5 q0 66 47.5 118.5 q47.5 52.5 112.5 60.5 l-8 -47 q-33 -6 -55.5 -25 q-22.5 -19 -26.5 -44 q12 6 27 6 q24 0 38.5 -15 q14.5 -15 14.5 -40 Z" /><glyph glyph-name="quotedblright" unicode="&#x201d;" d="M279 670 q0 -65 -46.5 -118 q-46.5 -53 -112.5 -61 l7 48 q32 6 54 24 q22 18 28 45 q-12 -6 -27 -6 q-24 0 -38.5 14.5 q-14.5 14.5 -14.5 39.5 q0 37 25 62.5 q25 25.5 60 25.5 q30 0 47.5 -20 q17.5 -20 17.5 -54 ZM475 670 q0 -65 -46.5 -118 q-46.5 -53 -112.5 -61 l7 48 q32 6 54 24 q22 18 28 45 q-12 -6 -27 -6 q-24 0 -38.5 14.5 q-14.5 14.5 -14.5 39.5 q0 37 25 62.5 q25 25.5 60 25.5 q30 0 47.5 -20 q17.5 -20 17.5 -54 Z" /><glyph glyph-name="bullet" unicode="&#x2022;" d="M194 114 q-59 0 -96.5 37 q-37.5 37 -37.5 95 q0 73 54 126.5 q54 53.5 128 53.5 q58 0 94 -38 q36 -38 36 -97 q0 -71 -53 -124 q-53 -53 -125 -53 Z" /><glyph glyph-name="ellipsis" unicode="&#x2026;" d="M101 -12 q-30 0 -48 18 q-18 18 -18 48 q0 36 27 63.5 q27 27.5 64 27.5 q31 0 49 -18.5 q18 -18.5 18 -48.5 q0 -36 -27.5 -63 q-27.5 -27 -64.5 -27 ZM350 -12 q-30 0 -48 18 q-18 18 -18 48 q0 36 27 63.5 q27 27.5 64 27.5 q31 0 49 -18.5 q18 -18.5 18 -48.5 q0 -36 -27.5 -63 q-27.5 -27 -64.5 -27 ZM599 -12 q-30 0 -48 18 q-18 18 -18 48 q0 36 27 63.5 q27 27.5 64 27.5 q31 0 49 -18.5 q18 -18.5 18 -48.5 q0 -36 -27.5 -63 q-27.5 -27 -64.5 -27 Z" /></font>
</defs>
</svg>
