<?xml version="1.0" standalone="no"?><!DOCTYPE svg PUBLIC "-//W3C//DTD SVG 1.1//EN" "http://www.w3.org/Graphics/SVG/1.1/DTD/svg11.dtd" ><svg xmlns="http://www.w3.org/2000/svg"><metadata></metadata><defs><font id="2.000;ITFO;Satoshi-Medium" horiz-adv-x="1173"><font-face font-family="Satoshi Medium" font-weight="500" font-stretch="normal" units-per-em="1000" panose-1="0 0 0 0 0 0 0 0 0 0" ascent="1010" descent="-240" x-height="0" bbox="-56 -232 1105 901" underline-thickness="80" underline-position="-195" unicode-range="U+0020-2026" /><missing-glyph horiz-adv-x="500" d="M50 -219 l0 1083 l400 0 l0 -1083 l-400 0 ZM100 -169 l300 0 l0 983 l-300 0 l0 -983 Z" /><glyph glyph-name="space" unicode=" " d="" /><glyph glyph-name="exclam" unicode="!" d="M183 217 l-73 0 q-17 127 -17 338 l0 168 l108 0 l0 -168 q0 -205 -18 -338 ZM147 -14 q-30 0 -51 21 q-21 21 -21 50 q0 29 21 50 q21 21 51 21 q29 0 50 -21 q21 -21 21 -50 q0 -29 -21 -50 q-21 -21 -50 -21 Z" /><glyph glyph-name="quotedbl" unicode="&quot;" d="M156 662 l-24 -207 l-54 0 l-26 207 q-4 31 12.5 47.5 q16.5 16.5 41.5 16.5 q22 0 38 -16.5 q16 -16.5 12 -47.5 ZM320 662 l-24 -207 l-54 0 l-26 207 q-4 31 12.5 47.5 q16.5 16.5 41.5 16.5 q22 0 38 -16.5 q16 -16.5 12 -47.5 Z" /><glyph glyph-name="numbersign" unicode="#" d="M62 289 l100 0 l28 145 l-116 0 l18 88 l116 0 l39 201 l93 0 l-39 -201 l153 0 l39 201 l94 0 l-39 -201 l103 0 l-17 -88 l-104 0 l-28 -145 l112 0 l-17 -88 l-113 0 l-39 -201 l-93 0 l39 201 l-154 0 l-39 -201 l-93 0 l39 201 l-100 0 l18 88 ZM255 289 l153 0 l29 145 l-154 0 l-28 -145 Z" /><glyph glyph-name="dollar" unicode="$" d="M257 -97 l0 86 q-100 6 -160.5 59.5 q-60.5 53.5 -64.5 140.5 l100 0 q1 -48 34.5 -78 q33.5 -30 90.5 -36 l0 249 l-36 8 q-179 41 -179 196 q0 85 58.5 141.5 q58.5 56.5 156.5 64.5 l0 87 l64 0 l0 -86 q91 -8 145.5 -61 q54.5 -53 59.5 -140 l-97 0 q-3 48 -31 77.5 q-28 29.5 -77 36.5 l0 -248 l39 -9 q178 -40 178 -190 q0 -89 -58.5 -145.5 q-58.5 -56.5 -158.5 -65.5 l0 -87 l-64 0 ZM241 419 l16 -4 l0 233 q-56 -8 -87.5 -38.5 q-31.5 -30.5 -31.5 -78.5 q0 -87 103 -112 ZM340 304 l-19 4 l0 -231 q56 8 88.5 38.5 q32.5 30.5 32.5 77.5 q0 87 -102 111 Z" /><glyph glyph-name="percent" unicode="%" d="M407 552 q0 -80 -51.5 -132 q-51.5 -52 -131.5 -52 q-79 0 -130.5 52 q-51.5 52 -51.5 132 q0 81 51 133 q51 52 131 52 q80 0 131.5 -52 q51.5 -52 51.5 -133 ZM788 722 l-549 -722 l-96 0 l549 722 l96 0 ZM330 552 q0 49 -29.5 79.5 q-29.5 30.5 -76.5 30.5 q-47 0 -76 -30.5 q-29 -30.5 -29 -79.5 q0 -48 29.5 -78.5 q29.5 -30.5 75.5 -30.5 q47 0 76.5 30.5 q29.5 30.5 29.5 78.5 ZM891 171 q0 -80 -51.5 -132 q-51.5 -52 -131.5 -52 q-80 0 -131.5 52 q-51.5 52 -51.5 132 q0 81 51.5 132.5 q51.5 51.5 131.5 51.5 q80 0 131.5 -51.5 q51.5 -51.5 51.5 -132.5 ZM813 171 q0 49 -29 79.5 q-29 30.5 -76 30.5 q-47 0 -76 -30.5 q-29 -30.5 -29 -79.5 q0 -48 29.5 -78.5 q29.5 -30.5 75.5 -30.5 q46 0 75.5 30.5 q29.5 30.5 29.5 78.5 Z" /><glyph glyph-name="ampersand" unicode="&amp;" d="M584 0 l-57 65 q-87 -78 -224 -78 q-116 0 -186.5 55 q-70.5 55 -70.5 146 q0 131 177 222 q-47 54 -66 91.5 q-19 37.5 -19 77.5 q0 68 48.5 112 q48.5 44 124.5 44 q74 0 120.5 -41.5 q46.5 -41.5 46.5 -108.5 q0 -54 -30.5 -99 q-30.5 -45 -99.5 -92 l173 -197 q25 61 25 141 l91 0 q0 -122 -55 -210 l112 -128 l-110 0 ZM227 580 q0 -28 15.5 -56 q15.5 -28 57.5 -76 q90 55 90 135 q0 35 -21.5 55.5 q-21.5 20.5 -58.5 20.5 q-38 0 -60.5 -21.5 q-22.5 -21.5 -22.5 -57.5 ZM144 195 q0 -59 44.5 -93 q44.5 -34 123.5 -34 q100 0 161 59 l-203 230 q-67 -37 -96.5 -75 q-29.5 -38 -29.5 -87 Z" /><glyph glyph-name="quotesingle" unicode="&#39;" d="M156 662 l-24 -207 l-54 0 l-26 207 q-4 31 12.5 47.5 q16.5 16.5 41.5 16.5 q22 0 38 -16.5 q16 -16.5 12 -47.5 Z" /><glyph glyph-name="parenleft" unicode="(" d="M279 -173 l-78 0 q-70 88 -111.5 212.5 q-41.5 124.5 -41.5 257.5 q0 129 40 254 q40 125 113 215 l78 0 q-61 -85 -98 -209 q-37 -124 -37 -260 q0 -133 35.5 -257.5 q35.5 -124.5 99.5 -212.5 Z" /><glyph glyph-name="parenright" unicode=")" d="M79 -173 l-79 0 q64 88 99.5 212.5 q35.5 124.5 35.5 257.5 q0 137 -36.5 260.5 q-36.5 123.5 -98.5 208.5 l79 0 q72 -90 112 -215 q40 -125 40 -254 q0 -133 -41 -257.5 q-41 -124.5 -111 -212.5 Z" /><glyph glyph-name="asterisk" unicode="*" d="M92 567 l-65 23 l20 52 l62 -21 q43 -14 77 -37 q-9 38 -9 84 l0 69 l56 0 l0 -69 q0 -43 -9 -84 q40 25 76 37 l63 22 l21 -53 l-66 -23 q-36 -13 -82 -19 q32 -27 55 -64 l39 -56 l-46 -32 l-39 55 q-24 34 -41 74 q-13 -39 -39 -74 l-40 -55 l-47 32 l39 56 q24 35 57 64 q-49 7 -82 19 Z" /><glyph glyph-name="plus" unicode="+" d="M80 377 l210 0 l0 210 l80 0 l0 -210 l210 0 l0 -80 l-210 0 l0 -211 l-80 0 l0 211 l-210 0 l0 80 Z" /><glyph glyph-name="comma" unicode="," d="M209 39 q0 -54 -36 -94 q-36 -40 -89 -47 l0 42 q31 5 50.5 23.5 q19.5 18.5 19.5 41.5 q-10 -6 -27 -6 q-25 0 -43 17 q-18 17 -18 44 q0 30 18.5 49.5 q18.5 19.5 48.5 19.5 q32 0 54 -25 q22 -25 22 -65 Z" /><glyph glyph-name="hyphen" unicode="-" d="M63 223 l0 84 l305 0 l0 -84 l-305 0 Z" /><glyph glyph-name="period" unicode="." d="M188 9 q-21 -21 -50 -21 q-29 0 -50.5 21 q-21.5 21 -21.5 49 q0 29 21.5 50 q21.5 21 50.5 21 q29 0 50 -21 q21 -21 21 -50 q0 -28 -21 -49 Z" /><glyph glyph-name="slash" unicode="/" d="M93 0 l-93 0 l282 722 l94 0 l-283 -722 Z" /><glyph glyph-name="zero" unicode="0" d="M49 361 q0 169 81 272.5 q81 103.5 217 103.5 q135 0 216 -103.5 q81 -103.5 81 -272.5 q0 -170 -79.5 -272 q-79.5 -102 -217.5 -102 q-139 0 -218.5 101.5 q-79.5 101.5 -79.5 272.5 ZM146 361 q0 -134 53 -210 q53 -76 148 -76 q95 0 147.5 76 q52.5 76 52.5 210 q0 136 -52.5 212 q-52.5 76 -147.5 76 q-95 0 -148 -76.5 q-53 -76.5 -53 -211.5 Z" /><glyph glyph-name="one" unicode="1" d="M187 635 l-152 0 l0 88 l246 0 l0 -723 l-94 0 l0 635 Z" /><glyph glyph-name="two" unicode="2" d="M534 1 l-488 -1 l0 75 l233 201 q88 76 119 122.5 q31 46.5 31 104.5 q0 68 -37 106.5 q-37 38.5 -102 38.5 q-67 0 -107.5 -45.5 q-40.5 -45.5 -41.5 -122.5 l-98 0 q2 116 70 186 q68 70 178 70 q109 0 173.5 -61.5 q64.5 -61.5 64.5 -165.5 q0 -76 -40.5 -139 q-40.5 -63 -138.5 -148 l-150 -130 l334 0 l0 -91 Z" /><glyph glyph-name="three" unicode="3" d="M256 374 l-72 0 l0 65 l205 197 l-325 0 l0 87 l449 0 l0 -79 l-198 -189 q95 -12 155.5 -72.5 q60.5 -60.5 60.5 -155.5 q0 -108 -72.5 -173.5 q-72.5 -65.5 -184.5 -65.5 q-109 0 -176.5 63.5 q-67.5 63.5 -67.5 173.5 l97 0 q0 -70 40 -109.5 q40 -39.5 109 -39.5 q71 0 113 41.5 q42 41.5 42 111.5 q0 67 -45.5 106 q-45.5 39 -129.5 39 Z" /><glyph glyph-name="four" unicode="4" d="M588 146 l-86 0 l0 -146 l-94 0 l0 146 l-374 0 l0 87 l341 490 l127 0 l0 -490 l86 0 l0 -87 ZM140 233 l268 0 l0 386 l-268 -386 Z" /><glyph glyph-name="five" unicode="5" d="M292 -12 q-111 0 -177.5 65 q-66.5 65 -66.5 173 l97 0 q0 -70 40 -110 q40 -40 109 -40 q73 0 117 44.5 q44 44.5 44 118.5 q0 71 -43 116.5 q-43 45.5 -117 45.5 q-45 0 -85 -19 q-40 -19 -65 -51 l-83 21 l88 371 l362 0 l0 -90 l-291 0 l-48 -192 q58 44 140 44 q109 0 175.5 -68 q66.5 -68 66.5 -174 q0 -113 -73 -184 q-73 -71 -190 -71 Z" /><glyph glyph-name="six" unicode="6" d="M141 494 l169 229 l114 0 l-181 -240 q38 15 76 15 q111 0 181 -71.5 q70 -71.5 70 -179.5 q0 -113 -75 -186 q-75 -73 -188 -73 q-112 0 -189 74.5 q-77 74.5 -77 184.5 q0 64 22 117 q22 53 78 130 ZM187.5 367.5 q-46.5 -47.5 -46.5 -121.5 q0 -74 46.5 -122 q46.5 -48 119.5 -48 q72 0 118 48 q46 48 46 122 q0 74 -46 121.5 q-46 47.5 -118 47.5 q-73 0 -119.5 -47.5 Z" /><glyph glyph-name="seven" unicode="7" d="M8 723 l505 0 l0 -90 l-274 -633 l-102 0 l277 633 l-406 0 l0 90 Z" /><glyph glyph-name="eight" unicode="8" d="M47 201 q0 65 35.5 114.5 q35.5 49.5 95.5 71.5 q-105 45 -105 159 q0 85 66.5 137.5 q66.5 52.5 174.5 52.5 q107 0 172.5 -53 q65.5 -53 65.5 -138 q0 -56 -27.5 -97 q-27.5 -41 -78.5 -61 q61 -20 97 -70 q36 -50 36 -117 q0 -95 -73 -153.5 q-73 -58.5 -193 -58.5 q-121 0 -193.5 58.5 q-72.5 58.5 -72.5 154.5 ZM163 540 q0 -53 40.5 -85 q40.5 -32 108.5 -32 q68 0 108 31 q40 31 40 84 q0 52 -40 82.5 q-40 30.5 -108 30.5 q-67 0 -108 -30.5 q-41 -30.5 -41 -80.5 ZM143 208 q0 -61 46.5 -97 q46.5 -36 123.5 -36 q77 0 123 36 q46 36 46 97 q0 60 -46 95.5 q-46 35.5 -124 35.5 q-77 0 -123 -35.5 q-46 -35.5 -46 -95.5 Z" /><glyph glyph-name="nine" unicode="9" d="M470 229 l-169 -229 l-114 0 l181 240 q-38 -15 -76 -15 q-111 0 -181 71.5 q-70 71.5 -70 180.5 q0 112 75.5 185.5 q75.5 73.5 187.5 73.5 q113 0 189.5 -75 q76.5 -75 76.5 -185 q0 -63 -22 -116.5 q-22 -53.5 -78 -130.5 ZM470 477 q0 75 -46.5 123 q-46.5 48 -119.5 48 q-72 0 -118 -48.5 q-46 -48.5 -46 -122.5 q0 -74 46 -121.5 q46 -47.5 118 -47.5 q73 0 119.5 47.5 q46.5 47.5 46.5 121.5 Z" /><glyph glyph-name="colon" unicode=":" d="M198 383.5 q-21 -20.5 -50 -20.5 q-29 0 -50.5 20.5 q-21.5 20.5 -21.5 48.5 q0 29 21.5 50 q21.5 21 50.5 21 q29 0 50 -21 q21 -21 21 -50 q0 -28 -21 -48.5 ZM198 9 q-21 -21 -50 -21 q-29 0 -50.5 21 q-21.5 21 -21.5 49 q0 29 21.5 50 q21.5 21 50.5 21 q29 0 50 -21 q21 -21 21 -50 q0 -28 -21 -49 Z" /><glyph glyph-name="semicolon" unicode=";" d="M198 383.5 q-21 -20.5 -50 -20.5 q-29 0 -50.5 20.5 q-21.5 20.5 -21.5 48.5 q0 29 21.5 50 q21.5 21 50.5 21 q29 0 50 -21 q21 -21 21 -50 q0 -28 -21 -48.5 ZM219 39 q0 -54 -36 -94 q-36 -40 -89 -47 l0 42 q31 5 50.5 23.5 q19.5 18.5 19.5 41.5 q-10 -6 -27 -6 q-25 0 -43 17 q-18 17 -18 44 q0 30 18.5 49.5 q18.5 19.5 48.5 19.5 q32 0 54 -25 q22 -25 22 -65 Z" /><glyph glyph-name="less" unicode="&lt;" d="M580 113 l0 -92 l-500 177 l0 98 l500 177 l0 -92 l-403 -134 l403 -134 Z" /><glyph glyph-name="equal" unicode="=" d="M80 444 l500 0 l0 -81 l-500 0 l0 81 ZM80 234 l500 0 l0 -81 l-500 0 l0 81 Z" /><glyph glyph-name="greater" unicode="&gt;" d="M580 198 l-500 -177 l0 92 l403 134 l-403 134 l0 92 l500 -177 l0 -98 Z" /><glyph glyph-name="question" unicode="?" d="M285 175 l-87 0 l0 25 q0 40 18 74.5 q18 34.5 37 53 q19 18.5 54 45.5 q31 24 47.5 39.5 q16.5 15.5 31.5 43 q15 27.5 15 58.5 q0 59 -36 96.5 q-36 37.5 -97 37.5 q-59 0 -98.5 -41 q-39.5 -41 -39.5 -103 l-97 0 q0 100 68 166 q68 66 169 66 q105 0 167.5 -60 q62.5 -60 62.5 -157 q0 -37 -10.5 -68 q-10.5 -31 -32 -56 q-21.5 -25 -38 -39 q-16.5 -14 -45.5 -35 q-46 -33 -67.5 -59.5 q-21.5 -26.5 -21.5 -61.5 l0 -25 ZM246 -14 q-30 0 -51 21 q-21 21 -21 50 q0 29 21 50 q21 21 51 21 q28 0 49.5 -21 q21.5 -21 21.5 -50 q0 -29 -21.5 -50 q-21.5 -21 -49.5 -21 Z" /><glyph glyph-name="at" unicode="@" d="M259 222 q0 61 44 98.5 q44 37.5 124 43.5 l141 11 l0 13 q0 101 -106 101 q-54 0 -83.5 -22 q-29.5 -22 -29.5 -63 l-76 0 q0 70 52.5 112 q52.5 42 139.5 42 q89 0 138.5 -47 q49.5 -47 49.5 -132 l0 -174 q0 -58 57 -58 q46 0 74.5 52 q28.5 52 28.5 136 q0 149 -98 244 q-98 95 -251 95 q-150 0 -251.5 -102.5 q-101.5 -102.5 -101.5 -254.5 q0 -154 101 -257 q101 -103 252 -103 q121 0 218 74 l32 -54 q-108 -82 -250 -82 q-179 0 -299.5 120.5 q-120.5 120.5 -120.5 301.5 q0 178 120.5 298.5 q120.5 120.5 299.5 120.5 q181 0 298.5 -113 q117.5 -113 117.5 -288 q0 -110 -50 -179 q-50 -69 -130 -69 q-107 0 -122 88 q-18 -40 -62 -64 q-44 -24 -100 -24 q-73 0 -115 36.5 q-42 36.5 -42 98.5 ZM454 304 q-108 -9 -108 -79 q0 -70 91 -70 q62 0 97 36 q35 36 35 100 l0 23 l-115 -10 Z" /><glyph glyph-name="A" unicode="A" d="M114 0 l-102 0 l264 723 l109 0 l265 -723 l-103 0 l-65 180 l-304 0 l-64 -180 ZM318 567 l-110 -302 l245 0 l-111 302 q-9 25 -12 42 q-3 -15 -12 -42 Z" /><glyph glyph-name="B" unicode="B" d="M84 0 l0 723 l276 0 q106 0 166.5 -51 q60.5 -51 60.5 -140 q0 -124 -108 -169 q121 -39 121 -170 q0 -90 -61.5 -141.5 q-61.5 -51.5 -168.5 -51.5 l-286 0 ZM354 636 l-172 0 l0 -232 l178 0 q61 0 94 31.5 q33 31.5 33 87.5 q0 54 -34.5 83.5 q-34.5 29.5 -98.5 29.5 ZM368 319 l-186 0 l0 -232 l186 0 q63 0 97 31 q34 31 34 87 q0 54 -34.5 84 q-34.5 30 -96.5 30 Z" /><glyph glyph-name="C" unicode="C" d="M384 -11 q-155 0 -249 102 q-94 102 -94 270 q0 167 96.5 270.5 q96.5 103.5 251.5 103.5 q122 0 208.5 -67 q86.5 -67 106.5 -178 l-105 0 q-20 70 -77 110.5 q-57 40.5 -136 40.5 q-110 0 -176 -76 q-66 -76 -66 -203 q0 -127 66 -203 q66 -76 176 -76 q79 0 138 39.5 q59 39.5 79 106.5 l104 0 q-23 -108 -112 -174 q-89 -66 -211 -66 Z" /><glyph glyph-name="D" unicode="D" d="M323 0 l-239 0 l0 723 l235 0 q162 0 262 -100 q100 -100 100 -262 q0 -161 -99 -261 q-99 -100 -259 -100 ZM312 633 l-130 0 l0 -542 l134 0 q121 0 192 73 q71 73 71 197 q0 126 -71.5 199 q-71.5 73 -195.5 73 Z" /><glyph glyph-name="E" unicode="E" d="M525 0 l-441 0 l0 723 l441 0 l0 -90 l-343 0 l0 -226 l309 0 l0 -87 l-309 0 l0 -229 l343 0 l0 -91 Z" /><glyph glyph-name="F" unicode="F" d="M466 307 l-284 0 l0 -307 l-98 0 l0 723 l436 0 l0 -90 l-338 0 l0 -237 l284 0 l0 -89 Z" /><glyph glyph-name="G" unicode="G" d="M394 643 q-116 0 -183 -78 q-67 -78 -67 -208 q0 -129 68.5 -202.5 q68.5 -73.5 182.5 -73.5 q98 0 160 52.5 q62 52.5 62 156.5 l0 21 l-242 0 l0 87 l334 0 l0 -399 l-82 0 l-7 98 q-30 -49 -92.5 -79 q-62.5 -30 -140.5 -30 q-154 0 -250 102 q-96 102 -96 269 q0 166 98 271 q98 105 257 105 q119 0 203 -63 q84 -63 102 -167 l-104 0 q-20 67 -74.5 102.5 q-54.5 35.5 -128.5 35.5 Z" /><glyph glyph-name="H" unicode="H" d="M182 0 l-98 0 l0 723 l98 0 l0 -311 l358 0 l0 311 l98 0 l0 -723 l-98 0 l0 321 l-358 0 l0 -321 Z" /><glyph glyph-name="I" unicode="I" d="M182 723 l0 -723 l-98 0 l0 723 l98 0 Z" /><glyph glyph-name="J" unicode="J" d="M20 201 l0 36 l95 0 l0 -36 q0 -55 30.5 -88.5 q30.5 -33.5 88.5 -33.5 q60 0 89 33 q29 33 29 92 l0 519 l98 0 l0 -523 q0 -97 -59.5 -154.5 q-59.5 -57.5 -156.5 -57.5 q-101 0 -157.5 58.5 q-56.5 58.5 -56.5 154.5 Z" /><glyph glyph-name="K" unicode="K" d="M182 723 l0 -410 l322 410 l117 0 l-242 -307 l246 -416 l-114 0 l-197 333 l-132 -167 l0 -166 l-98 0 l0 723 l98 0 Z" /><glyph glyph-name="L" unicode="L" d="M182 723 l0 -632 l318 0 l0 -91 l-416 0 l0 723 l98 0 Z" /><glyph glyph-name="M" unicode="M" d="M180 0 l-96 0 l0 723 l96 0 l249 -608 l249 608 l98 0 l0 -723 l-96 0 l0 286 q0 174 6 235 l-211 -521 l-92 0 l-210 519 q7 -49 7 -210 l0 -309 Z" /><glyph glyph-name="N" unicode="N" d="M182 0 l-98 0 l0 723 l98 0 l370 -559 l0 559 l98 0 l0 -723 l-98 0 l-370 559 l0 -559 Z" /><glyph glyph-name="O" unicode="O" d="M639 631.5 q97 -104.5 97 -269.5 q0 -165 -97.5 -269.5 q-97.5 -104.5 -251.5 -104.5 q-153 0 -249.5 104.5 q-96.5 104.5 -96.5 269.5 q0 164 97 269 q97 105 250 105 q154 0 251 -104.5 ZM633 362 q0 126 -67.5 202.5 q-67.5 76.5 -177.5 76.5 q-110 0 -177 -76.5 q-67 -76.5 -67 -202.5 q0 -126 67 -203 q67 -77 177 -77 q110 0 177.5 77.5 q67.5 77.5 67.5 202.5 Z" /><glyph glyph-name="P" unicode="P" d="M365 258 l-183 0 l0 -258 l-98 0 l0 723 l281 0 q106 0 169.5 -63.5 q63.5 -63.5 63.5 -168.5 q0 -102 -64 -167.5 q-64 -65.5 -169 -65.5 ZM348 635 l-166 0 l0 -289 l162 0 q72 0 111.5 39 q39.5 39 39.5 107 q0 68 -39 105.5 q-39 37.5 -108 37.5 Z" /><glyph glyph-name="Q" unicode="Q" d="M654 -48 l-78 88 q-85 -52 -189 -52 q-153 0 -249.5 104.5 q-96.5 104.5 -96.5 269.5 q0 164 97 269 q97 105 250 105 q154 0 251 -104.5 q97 -104.5 97 -269.5 q0 -161 -94 -266 l76 -86 l-64 -58 ZM633 362 q0 126 -67.5 202.5 q-67.5 76.5 -177.5 76.5 q-110 0 -177 -76.5 q-67 -76.5 -67 -202.5 q0 -126 67 -203 q67 -77 177 -77 q69 0 122 32 l-95 107 l64 58 l96 -108 q58 75 58 191 Z" /><glyph glyph-name="R" unicode="R" d="M182 0 l-98 0 l0 723 l273 0 q116 0 181.5 -58 q65.5 -58 65.5 -159 q0 -75 -36.5 -127 q-36.5 -52 -103.5 -74 l147 -305 l-109 0 l-135 286 l-185 0 l0 -286 ZM182 635 l0 -262 l176 0 q68 0 105.5 35 q37.5 35 37.5 97 q0 63 -38 96.5 q-38 33.5 -106 33.5 l-175 0 Z" /><glyph glyph-name="S" unicode="S" d="M42 528 q0 93 68.5 150.5 q68.5 57.5 180.5 57.5 q103 0 166 -54 q63 -54 69 -148 l-99 0 q-4 54 -40 84 q-36 30 -97 30 q-68 0 -109 -32 q-41 -32 -41 -85 q0 -85 101 -109 l119 -28 q178 -41 178 -193 q0 -97 -69.5 -155 q-69.5 -58 -185.5 -58 q-111 0 -179 54 q-68 54 -72 147 l100 0 q2 -52 42.5 -82.5 q40.5 -30.5 108.5 -30.5 q72 0 114.5 31.5 q42.5 31.5 42.5 85.5 q0 86 -100 109 l-119 27 q-179 41 -179 199 Z" /><glyph glyph-name="T" unicode="T" d="M14 633 l0 90 l533 0 l0 -90 l-217 0 l0 -633 l-98 0 l0 633 l-218 0 Z" /><glyph glyph-name="U" unicode="U" d="M79 257 l0 466 l98 0 l0 -460 q0 -87 46.5 -133.5 q46.5 -46.5 132.5 -46.5 q85 0 131 47 q46 47 46 133 l0 460 l99 0 l0 -466 q0 -124 -74 -196.5 q-74 -72.5 -202 -72.5 q-128 0 -202.5 72 q-74.5 72 -74.5 197 Z" /><glyph glyph-name="V" unicode="V" d="M285 0 l-275 723 l105 0 l176 -462 q25 -64 45 -136 q21 70 46 137 l175 461 l102 0 l-272 -723 l-102 0 Z" /><glyph glyph-name="W" unicode="W" d="M230 0 l-215 723 l102 0 l132 -442 q20 -76 30 -131 q10 47 34 131 l137 442 l106 0 l136 -442 q19 -61 33 -131 q15 74 32 130 l133 443 l100 0 l-218 -723 l-94 0 l-175 572 l-177 -572 l-96 0 Z" /><glyph glyph-name="X" unicode="X" d="M264 361 l-247 362 l117 0 l113 -161 q45 -66 77 -127 l191 288 l113 0 l-242 -361 l245 -362 l-116 0 l-111 159 q-39 58 -79 127 l-194 -286 l-115 0 l248 361 Z" /><glyph glyph-name="Y" unicode="Y" d="M255 294 l-245 429 l110 0 l161 -289 q7 -12 24 -48 l24 48 l160 289 l107 0 l-243 -429 l0 -294 l-98 0 l0 294 Z" /><glyph glyph-name="Z" unicode="Z" d="M547 0 l-511 0 l0 91 l388 542 l-382 0 l0 90 l504 0 l0 -88 l-391 -544 l392 0 l0 -91 Z" /><glyph glyph-name="bracketleft" unicode="[" d="M145 -1 l129 0 l0 -74 l-215 0 l0 881 l215 0 l0 -75 l-129 0 l0 -732 Z" /><glyph glyph-name="backslash" unicode="\" d="M94 722 l282 -722 l-93 0 l-283 722 l94 0 Z" /><glyph glyph-name="bracketright" unicode="]" d="M5 -75 l0 74 l129 0 l0 732 l-129 0 l0 75 l215 0 l0 -881 l-215 0 Z" /><glyph glyph-name="asciicircum" unicode="^" d="M154 400 l-83 0 l133 323 l92 0 l133 -323 l-83 0 l-96 240 l-96 -240 Z" /><glyph glyph-name="underscore" unicode="_" d="M60 -92 l0 74 l410 0 l0 -74 l-410 0 Z" /><glyph glyph-name="grave" unicode="`" d="M202 768 l-72 0 l-86 133 l92 0 l66 -133 Z" /><glyph glyph-name="a" unicode="a" d="M211 -12 q-78 0 -122.5 40.5 q-44.5 40.5 -44.5 107.5 q0 67 47.5 107.5 q47.5 40.5 134.5 47.5 l154 12 l0 14 q0 111 -115 111 q-59 0 -91.5 -25 q-32.5 -25 -32.5 -69 l-82 0 q0 76 57.5 122.5 q57.5 46.5 152.5 46.5 q94 0 148.5 -50 q54.5 -50 54.5 -146 l0 -307 l-80 0 l-10 79 q-19 -42 -65.5 -66.5 q-46.5 -24.5 -105.5 -24.5 ZM238 61 q67 0 105 40.5 q38 40.5 38 109.5 l0 26 l-125 -10 q-117 -11 -117 -88 q0 -38 26 -58 q26 -20 73 -20 Z" /><glyph glyph-name="b" unicode="b" d="M153 0 l-85 0 l0 736 l94 0 l0 -331 q24 47 70.5 72.5 q46.5 25.5 107.5 25.5 q103 0 163.5 -73 q60.5 -73 60.5 -188 q0 -113 -62.5 -183.5 q-62.5 -70.5 -167.5 -70.5 q-59 0 -104.5 26 q-45.5 26 -69.5 75 l-7 -89 ZM163 246 q0 -78 41.5 -125.5 q41.5 -47.5 112.5 -47.5 q71 0 112 48 q41 48 41 125 q0 76 -41 124 q-41 48 -112 48 q-71 0 -112.5 -48 q-41.5 -48 -41.5 -124 Z" /><glyph glyph-name="c" unicode="c" d="M36 244 q0 115 66.5 187 q66.5 72 173.5 72 q92 0 152.5 -48.5 q60.5 -48.5 73.5 -130.5 l-94 0 q-12 46 -46.5 70.5 q-34.5 24.5 -82.5 24.5 q-67 0 -108.5 -47.5 q-41.5 -47.5 -41.5 -126.5 q0 -79 39.5 -126 q39.5 -47 106.5 -47 q50 0 85.5 24.5 q35.5 24.5 48.5 68.5 l94 0 q-14 -80 -77 -128.5 q-63 -48.5 -151 -48.5 q-108 0 -173.5 70 q-65.5 70 -65.5 186 Z" /><glyph glyph-name="d" unicode="d" d="M264 -12 q-105 0 -166.5 70.5 q-61.5 70.5 -61.5 184.5 q0 115 62.5 187.5 q62.5 72.5 169.5 72.5 q57 0 101.5 -24 q44.5 -24 69.5 -69 l0 326 l93 0 l0 -736 l-84 0 l-8 89 q-24 -49 -70 -75 q-46 -26 -106 -26 ZM171.5 121 q40.5 -48 111.5 -48 q71 0 113 48 q42 48 42 125 q0 76 -42 124 q-42 48 -113 48 q-71 0 -111.5 -47.5 q-40.5 -47.5 -40.5 -124.5 q0 -77 40.5 -125 Z" /><glyph glyph-name="e" unicode="e" d="M279 -12 q-108 0 -175.5 71 q-67.5 71 -67.5 185 q0 115 66.5 187 q66.5 72 172.5 72 q104 0 167 -66 q63 -66 63 -175 l0 -35 l-378 -1 q5 -77 44.5 -118.5 q39.5 -41.5 109.5 -41.5 q112 0 137 86 l88 0 q-18 -79 -77 -121.5 q-59 -42.5 -150 -42.5 ZM275 424 q-61 0 -99 -35 q-38 -35 -47 -100 l282 0 q0 61 -37 98 q-37 37 -99 37 Z" /><glyph glyph-name="f" unicode="f" d="M16 489 l72 0 l0 78 q0 86 42 127.5 q42 41.5 113 41.5 q33 0 58 -4 l0 -81 l-42 0 q-43 0 -60 -20.5 q-17 -20.5 -17 -63.5 l0 -78 l116 0 l0 -79 l-116 0 l0 -410 l-94 0 l0 410 l-72 0 l0 79 Z" /><glyph glyph-name="g" unicode="g" d="M37 257 q0 106 63.5 176 q63.5 70 167.5 70 q59 0 103.5 -25.5 q44.5 -25.5 67.5 -71.5 l7 83 l84 0 l0 -469 q0 -116 -66.5 -184 q-66.5 -68 -178.5 -68 q-100 0 -164 53 q-64 53 -78 146 l94 0 q9 -54 48 -84 q39 -30 100 -30 q69 0 110.5 41.5 q41.5 41.5 41.5 111.5 l0 98 q-24 -43 -69.5 -67 q-45.5 -24 -103.5 -24 q-102 0 -164.5 69.5 q-62.5 69.5 -62.5 174.5 ZM131 259 q0 -71 40.5 -117.5 q40.5 -46.5 108.5 -46.5 q70 0 111.5 45.5 q41.5 45.5 41.5 118.5 q0 72 -40.5 117 q-40.5 45 -111.5 45 q-69 0 -109.5 -46 q-40.5 -46 -40.5 -116 Z" /><glyph glyph-name="h" unicode="h" d="M162 1 l-94 0 l0 735 l94 0 l0 -322 q24 41 67 65 q43 24 99 24 q92 0 138.5 -54 q46.5 -54 46.5 -150 l0 -299 l-94 0 l0 278 q0 139 -117 139 q-66 0 -103 -42.5 q-37 -42.5 -37 -107.5 l0 -266 Z" /><glyph glyph-name="i" unicode="i" d="M158 623.5 q-18 -18.5 -44 -18.5 q-26 0 -44 18.5 q-18 18.5 -18 43.5 q0 26 18 44 q18 18 44 18 q26 0 44 -18 q18 -18 18 -44 q0 -25 -18 -43.5 ZM68 0 l0 489 l94 0 l0 -489 l-94 0 Z" /><glyph glyph-name="j" unicode="j" d="M115 605 q-26 0 -44 18 q-18 18 -18 44 q0 26 18 44 q18 18 44 18 q25 0 43.5 -18 q18.5 -18 18.5 -44 q0 -25 -18.5 -43.5 q-18.5 -18.5 -43.5 -18.5 ZM-56 -222 l16 85 q27 -7 45 -7 q33 0 48 19.5 q15 19.5 15 61.5 l0 552 l94 0 l0 -561 q0 -74 -39 -116.5 q-39 -42.5 -110 -42.5 q-37 0 -69 9 Z" /><glyph glyph-name="k" unicode="k" d="M164 0 l-94 0 l0 736 l94 0 l0 -477 l217 230 l118 0 l-187 -195 l186 -294 l-108 0 l-143 226 l-83 -87 l0 -139 Z" /><glyph glyph-name="l" unicode="l" d="M164 0 l-94 0 l0 736 l94 0 l0 -736 Z" /><glyph glyph-name="m" unicode="m" d="M162 0 l-94 0 l0 489 l84 0 l9 -64 q19 36 57.5 57 q38.5 21 88.5 21 q114 0 155 -99 q17 46 59 72.5 q42 26.5 99 26.5 q84 0 132 -49 q48 -49 48 -134 l0 -320 l-92 0 l0 297 q0 57 -29.5 89 q-29.5 32 -79.5 32 q-53 0 -85.5 -35 q-32.5 -35 -32.5 -93 l0 -290 l-93 0 l0 298 q0 57 -29 88 q-29 31 -79 31 q-54 0 -86 -34.5 q-32 -34.5 -32 -92.5 l0 -290 Z" /><glyph glyph-name="n" unicode="n" d="M162 0 l-94 0 l0 489 l85 0 l10 -75 q23 42 66.5 65.5 q43.5 23.5 95.5 23.5 q94 0 141 -53.5 q47 -53.5 47 -150.5 l0 -299 l-94 0 l0 278 q0 139 -118 139 q-65 0 -102 -43 q-37 -43 -37 -115 l0 -259 Z" /><glyph glyph-name="o" unicode="o" d="M108 60 q-72 72 -72 185 q0 113 72 185 q72 72 183 72 q110 0 182 -72 q72 -72 72 -185 q0 -113 -72 -185 q-72 -72 -182 -72 q-111 0 -183 72 ZM175.5 370 q-44.5 -48 -44.5 -125 q0 -77 44.5 -125 q44.5 -48 115.5 -48 q71 0 115.5 48.5 q44.5 48.5 44.5 124.5 q0 76 -44.5 124.5 q-44.5 48.5 -115.5 48.5 q-71 0 -115.5 -48 Z" /><glyph glyph-name="p" unicode="p" d="M68 -219 l0 708 l85 0 l7 -88 q24 49 71 75.5 q47 26.5 106 26.5 q104 0 165.5 -70.5 q61.5 -70.5 61.5 -184.5 q0 -115 -60.5 -188 q-60.5 -73 -166.5 -73 q-59 0 -105 24 q-46 24 -70 69 l0 -299 l-94 0 ZM163 244 q0 -76 41.5 -124 q41.5 -48 112.5 -48 q71 0 112 48 q41 48 41 124 q0 77 -41 125 q-41 48 -112 48 q-71 0 -112.5 -47.5 q-41.5 -47.5 -41.5 -125.5 Z" /><glyph glyph-name="q" unicode="q" d="M36 248 q0 114 62 184.5 q62 70.5 166 70.5 q59 0 105.5 -26.5 q46.5 -26.5 70.5 -75.5 l8 88 l84 0 l0 -708 l-93 0 l0 299 q-25 -45 -71 -69 q-46 -24 -105 -24 q-105 0 -166 73 q-61 73 -61 188 ZM171.5 369 q-40.5 -48 -40.5 -125 q0 -77 40.5 -124.5 q40.5 -47.5 111.5 -47.5 q71 0 113 48 q42 48 42 124 q0 77 -42 125 q-42 48 -113 48 q-71 0 -111.5 -48 Z" /><glyph glyph-name="r" unicode="r" d="M348 493 l0 -86 l-42 0 q-67 0 -105.5 -39 q-38.5 -39 -38.5 -109 l0 -259 l-94 0 l0 488 l88 0 l6 -74 q15 39 51 62 q36 23 85 23 q22 0 50 -6 Z" /><glyph glyph-name="s" unicode="s" d="M28 142 l90 0 q0 -37 26.5 -58.5 q26.5 -21.5 73.5 -21.5 q49 0 76.5 19 q27.5 19 27.5 53 q0 26 -15 41.5 q-15 15.5 -52 24.5 l-86 20 q-128 31 -128 136 q0 67 51 107 q51 40 133 40 q80 0 128.5 -41.5 q48.5 -41.5 50.5 -111.5 l-90 0 q-2 37 -26 58.5 q-24 21.5 -66 21.5 q-44 0 -68 -18.5 q-24 -18.5 -24 -52.5 q0 -49 72 -67 l86 -21 q64 -15 94 -46 q30 -31 30 -85 q0 -69 -54 -110.5 q-54 -41.5 -142 -41.5 q-86 0 -137 42 q-51 42 -51 112 Z" /><glyph glyph-name="t" unicode="t" d="M206 0 l-94 0 l0 410 l-96 0 l0 79 l96 0 l0 153 l94 0 l0 -153 l96 0 l0 -79 l-96 0 l0 -410 Z" /><glyph glyph-name="u" unicode="u" d="M406 489 l93 0 l0 -489 l-84 0 l-10 74 q-21 -39 -66 -62.5 q-45 -23.5 -99 -23.5 q-84 0 -131 53 q-47 53 -47 144 l0 304 l94 0 l0 -273 q0 -145 117 -145 q65 0 99 41 q34 41 34 119 l0 258 Z" /><glyph glyph-name="v" unicode="v" d="M205 0 l-197 489 l100 0 l107 -273 q28 -76 39 -117 q9 36 41 117 l109 273 l98 0 l-204 -489 l-93 0 Z" /><glyph glyph-name="w" unicode="w" d="M173 0 l-160 489 l97 0 l81 -254 q18 -59 30 -116 q9 50 32 116 l82 254 l96 0 l81 -254 q17 -52 32 -116 q12 56 31 116 l82 254 l98 0 l-167 -489 l-89 0 l-85 262 q-23 70 -31 114 q-7 -32 -32 -115 l-85 -261 l-93 0 Z" /><glyph glyph-name="x" unicode="x" d="M118 0 l-108 0 l171 242 l-170 247 l109 0 l124 -182 l121 182 l107 0 l-170 -247 l167 -242 l-109 0 l-122 179 l-120 -179 Z" /><glyph glyph-name="y" unicode="y" d="M21 -219 l0 77 l63 0 q40 0 64 13 q24 13 40 56 l17 47 l-197 515 l99 0 l142 -394 l145 394 l97 0 l-231 -599 q-25 -62 -62.5 -90.5 q-37.5 -28.5 -94.5 -28.5 q-40 0 -82 10 Z" /><glyph glyph-name="z" unicode="z" d="M419 0 l-381 0 l0 76 l264 334 l-264 0 l0 79 l381 0 l0 -77 l-266 -333 l266 0 l0 -79 Z" /><glyph glyph-name="braceleft" unicode="{" d="M45 327 l0 77 q94 0 94 79 l0 216 q0 48 31 77.5 q31 29.5 82 29.5 l61 0 l0 -75 l-47 0 q-20 0 -31 -12 q-11 -12 -11 -33 l0 -212 q0 -85 -74 -108 q74 -24 74 -109 l0 -212 q0 -22 11 -34 q11 -12 31 -12 l47 0 l0 -74 l-61 0 q-52 0 -82.5 29 q-30.5 29 -30.5 77 l0 217 q0 79 -94 79 Z" /><glyph glyph-name="bar" unicode="|" d="M124 -87 l0 878 l75 0 l0 -878 l-75 0 Z" /><glyph glyph-name="braceright" unicode="}" d="M67 -75 l-62 0 l0 74 l47 0 q20 0 31 12 q11 12 11 34 l0 212 q0 84 75 109 q-75 23 -75 108 l0 212 q0 21 -11 33 q-11 12 -31 12 l-47 0 l0 75 l62 0 q51 0 82 -29.5 q31 -29.5 31 -77.5 l0 -216 q0 -79 93 -79 l0 -77 q-93 0 -93 -79 l0 -217 q0 -48 -30.5 -77 q-30.5 -29 -82.5 -29 Z" /><glyph glyph-name="asciitilde" unicode="~" d="M505 379 l75 0 q0 -71 -36 -116 q-36 -45 -95 -45 q-41 0 -85 22 q-44 22 -82.5 44 q-38.5 22 -65.5 22 q-31 0 -45 -19.5 q-14 -19.5 -16 -59.5 l-75 0 q0 70 36 114 q36 44 95 44 q38 0 81 -22.5 q43 -22.5 82.5 -44.5 q39.5 -22 69.5 -22 q58 0 61 83 Z" /><glyph glyph-name="yen" unicode="¥" d="M236 358 l-216 365 l111 0 l181 -327 l181 327 l110 0 l-214 -365 l143 0 l0 -73 l-173 0 l0 -66 l173 0 l0 -73 l-173 0 l0 -146 l-93 0 l0 146 l-174 0 l0 73 l174 0 l0 66 l-174 0 l0 73 l144 0 Z" /><glyph glyph-name="copyright" unicode="©" d="M672 95 q-107 -109 -263 -109 q-156 0 -262.5 109 q-106.5 109 -106.5 267 q0 157 107 265.5 q107 108.5 262 108.5 q156 0 263 -108 q107 -108 107 -266 q0 -158 -107 -267 ZM192 137.5 q87 -90.5 217 -90.5 q130 0 217.5 90.5 q87.5 90.5 87.5 224.5 q0 133 -87.5 223 q-87.5 90 -217.5 90 q-129 0 -216.5 -90 q-87.5 -90 -87.5 -223 q0 -134 87 -224.5 ZM224 360 q0 88 53.5 144.5 q53.5 56.5 136.5 56.5 q70 0 117 -37 q47 -37 58 -101 l-77 0 q-18 70 -96 70 q-52 0 -84.5 -37 q-32.5 -37 -32.5 -95 q0 -59 31.5 -95.5 q31.5 -36.5 82.5 -36.5 q80 0 100 70 l76 0 q-10 -61 -59 -99 q-49 -38 -117 -38 q-85 0 -137 54.5 q-52 54.5 -52 143.5 Z" /><glyph glyph-name="periodcentered" unicode="·" d="M218.5 199.5 q-28.5 -28.5 -67.5 -28.5 q-39 0 -68 28.5 q-29 28.5 -29 66.5 q0 40 28.5 68.5 q28.5 28.5 68.5 28.5 q40 0 68 -28.5 q28 -28.5 28 -68.5 q0 -38 -28.5 -66.5 Z" /><glyph glyph-name="threequarters" unicode="¾" d="M20 488 l61 0 q0 -29 16.5 -45.5 q16.5 -16.5 45.5 -16.5 q28 0 44.5 15.5 q16.5 15.5 16.5 42.5 q0 30 -20 47 q-20 17 -58 17 l-35 0 l0 40 l88 80 l-142 0 l0 55 l219 0 l0 -52 l-86 -79 q42 -7 68 -34.5 q26 -27.5 26 -71.5 q0 -53 -34 -84 q-34 -31 -88 -31 q-53 0 -87.5 31.5 q-34.5 31.5 -34.5 85.5 ZM629 710 l-467 -710 l-80 0 l466 710 l81 0 ZM563 67 l-174 0 l0 51 l159 228 l72 0 l0 -224 l44 0 l0 -55 l-44 0 l0 -67 l-57 0 l0 67 ZM455 122 l108 0 l0 154 l-108 -154 Z" /><glyph glyph-name="aring" unicode="å" d="M273 539 q-51 0 -84 33 q-33 33 -33 84 q0 50 33.5 83.5 q33.5 33.5 83.5 33.5 q50 0 84 -33.5 q34 -33.5 34 -83.5 q0 -50 -34 -83.5 q-34 -33.5 -84 -33.5 ZM231 612 q16 -17 42 -17 q26 0 42 17 q16 17 16 45 q0 26 -16.5 43.5 q-16.5 17.5 -41.5 17.5 q-26 0 -42 -17 q-16 -17 -16 -44 q0 -28 16 -45 ZM211 -12 q-78 0 -122.5 40.5 q-44.5 40.5 -44.5 107.5 q0 67 47.5 107.5 q47.5 40.5 134.5 47.5 l154 12 l0 14 q0 111 -115 111 q-59 0 -91.5 -25 q-32.5 -25 -32.5 -69 l-82 0 q0 76 57.5 122.5 q57.5 46.5 152.5 46.5 q94 0 148.5 -50 q54.5 -50 54.5 -146 l0 -307 l-80 0 l-10 79 q-19 -42 -65.5 -66.5 q-46.5 -24.5 -105.5 -24.5 ZM238 61 q67 0 105 40.5 q38 40.5 38 109.5 l0 26 l-125 -10 q-117 -11 -117 -88 q0 -38 26 -58 q26 -20 73 -20 Z" /><glyph glyph-name="ae" unicode="æ" d="M44 137 q0 70 48 107.5 q48 37.5 131 39.5 l157 4 l0 29 q0 53 -31.5 82 q-31.5 29 -86.5 29 q-57 0 -89 -25 q-32 -25 -32 -69 l-82 0 q0 76 56.5 122.5 q56.5 46.5 148.5 46.5 q60 0 104 -23 q44 -23 65 -63 q65 86 182 86 q105 0 167.5 -66.5 q62.5 -66.5 62.5 -174.5 l0 -35 l-380 -1 q6 -75 46 -117.5 q40 -42.5 110 -42.5 q113 0 136 86 l89 0 q-18 -78 -77 -121 q-59 -43 -150 -43 q-68 0 -121 30 q-53 30 -83 84 q-24 -53 -76.5 -83.5 q-52.5 -30.5 -121.5 -30.5 q-82 0 -127.5 40 q-45.5 40 -45.5 109 ZM615 424 q-62 0 -101 -37 q-39 -37 -48 -99 l285 0 q0 61 -36.5 98.5 q-36.5 37.5 -99.5 37.5 ZM165 200.5 q-26 -18.5 -26 -58.5 q0 -40 27 -60.5 q27 -20.5 75 -20.5 q64 0 102 36.5 q38 36.5 38 97.5 l0 30 l-135 -4 q-55 -2 -81 -20.5 Z" /><glyph glyph-name="ccedilla" unicode="ç" d="M36 244 q0 115 66.5 187 q66.5 72 173.5 72 q92 0 152.5 -48.5 q60.5 -48.5 73.5 -130.5 l-94 0 q-12 46 -46.5 70.5 q-34.5 24.5 -82.5 24.5 q-67 0 -108.5 -47.5 q-41.5 -47.5 -41.5 -126.5 q0 -79 39.5 -126 q39.5 -47 106.5 -47 q50 0 85.5 24.5 q35.5 24.5 48.5 68.5 l94 0 q-13 -75 -70 -123 q-57 -48 -139 -53 l-16 -34 q17 5 31 5 q31 0 52.5 -19 q21.5 -19 21.5 -53 q0 -41 -29 -63 q-29 -22 -71 -22 q-40 0 -68 16 l0 48 q36 -17 61 -17 q23 0 36.5 10 q13.5 10 13.5 26 q0 34 -42 34 q-23 0 -49 -11 l-10 29 l24 51 q-97 9 -155 78 q-58 69 -58 177 Z" /><glyph glyph-name="endash" unicode="&#x2013;" d="M67 222 l0 84 l817 0 l0 -84 l-817 0 Z" /><glyph glyph-name="emdash" unicode="&#x2014;" d="M67 222 l0 84 l1038 0 l0 -84 l-1038 0 Z" /><glyph glyph-name="quoteleft" unicode="&#x2018;" d="M200 575 q0 -29 -18 -47.5 q-18 -18.5 -48 -18.5 q-31 0 -51.5 23.5 q-20.5 23.5 -20.5 63.5 q0 54 34 93.5 q34 39.5 87 47.5 l0 -42 q-30 -6 -48.5 -24 q-18.5 -18 -18.5 -42 q12 7 28 7 q24 0 40 -16.5 q16 -16.5 16 -44.5 Z" /><glyph glyph-name="quoteright" unicode="&#x2019;" d="M200 650 q0 -55 -34 -94.5 q-34 -39.5 -87 -46.5 l0 42 q30 5 48.5 23 q18.5 18 18.5 42 q-10 -6 -28 -6 q-24 0 -40 16.5 q-16 16.5 -16 44.5 q0 29 18 47.5 q18 18.5 48 18.5 q31 0 51.5 -23.5 q20.5 -23.5 20.5 -63.5 Z" /><glyph glyph-name="quotedblleft" unicode="&#x201c;" d="M200 575 q0 -29 -18 -47.5 q-18 -18.5 -48 -18.5 q-31 0 -51.5 23.5 q-20.5 23.5 -20.5 63.5 q0 54 34 93.5 q34 39.5 87 47.5 l0 -42 q-30 -6 -48.5 -24 q-18.5 -18 -18.5 -42 q12 7 28 7 q24 0 40 -16.5 q16 -16.5 16 -44.5 ZM379 575 q0 -29 -18.5 -47.5 q-18.5 -18.5 -47.5 -18.5 q-32 0 -52.5 23.5 q-20.5 23.5 -20.5 63.5 q0 54 34.5 93.5 q34.5 39.5 87.5 47.5 l0 -42 q-30 -6 -48.5 -24 q-18.5 -18 -18.5 -41 q11 6 27 6 q24 0 40.5 -16.5 q16.5 -16.5 16.5 -44.5 Z" /><glyph glyph-name="quotedblright" unicode="&#x201d;" d="M200 650 q0 -55 -34 -94.5 q-34 -39.5 -87 -46.5 l0 42 q30 5 48.5 23 q18.5 18 18.5 42 q-10 -6 -28 -6 q-24 0 -40 16.5 q-16 16.5 -16 44.5 q0 29 18 47.5 q18 18.5 48 18.5 q31 0 51.5 -23.5 q20.5 -23.5 20.5 -63.5 ZM379 650 q0 -55 -34.5 -94.5 q-34.5 -39.5 -87.5 -46.5 l0 42 q30 5 48.5 23 q18.5 18 18.5 42 q-10 -6 -27 -6 q-24 0 -40.5 16.5 q-16.5 16.5 -16.5 44.5 q0 29 18.5 47.5 q18.5 18.5 47.5 18.5 q32 0 52.5 -23.5 q20.5 -23.5 20.5 -63.5 Z" /><glyph glyph-name="bullet" unicode="&#x2022;" d="M202 121 q-60 0 -104 43 q-44 43 -44 102 q0 59 44 103 q44 44 104 44 q60 0 103 -43.5 q43 -43.5 43 -103.5 q0 -59 -43.5 -102 q-43.5 -43 -102.5 -43 Z" /><glyph glyph-name="ellipsis" unicode="&#x2026;" d="M188 9 q-21 -21 -50 -21 q-29 0 -50.5 21 q-21.5 21 -21.5 49 q0 29 21.5 50 q21.5 21 50.5 21 q29 0 50 -21 q21 -21 21 -50 q0 -28 -21 -49 ZM369 -12 q-30 0 -51 20.5 q-21 20.5 -21 49.5 q0 29 21 50 q21 21 51 21 q29 0 50 -21 q21 -21 21 -50 q0 -28 -21 -49 q-21 -21 -50 -21 ZM649.5 9 q-21.5 -21 -50.5 -21 q-29 0 -50 20.5 q-21 20.5 -21 49.5 q0 29 21 50 q21 21 50 21 q29 0 50.5 -21 q21.5 -21 21.5 -50 q0 -28 -21.5 -49 Z" /></font>
</defs>
</svg>
