<?xml version="1.0" standalone="no"?><!DOCTYPE svg PUBLIC "-//W3C//DTD SVG 1.1//EN" "http://www.w3.org/Graphics/SVG/1.1/DTD/svg11.dtd" ><svg xmlns="http://www.w3.org/2000/svg"><metadata></metadata><defs><font id="2.000;ITFO;SatoshiVariable-Bold" horiz-adv-x="1256"><font-face font-family="Satoshi Variable" font-weight="900" font-stretch="normal" units-per-em="1000" panose-1="0 0 0 0 0 0 0 0 0 0" ascent="1010" descent="-240" x-height="0" bbox="-54 -256 1186 937" underline-thickness="80" underline-position="-195" unicode-range="U+0020-2026" /><missing-glyph horiz-adv-x="500" d="M50 -240 l0 1110 l400 0 l0 -1110 l-400 0 ZM100 -190 l300 0 l0 1010 l-300 0 l0 -1010 Z" /><glyph glyph-name="A" unicode="A" d="M178 0 l-169 0 l264 740 l158 0 l263 -740 l-172 0 l-52 156 l-239 0 l-53 -156 ZM331 450 l-53 -158 l146 0 l-53 158 q-6 19 -12 39 q-6 20 -8 33 q-2 -13 -7.5 -32.5 q-5.5 -19.5 -12.5 -39.5 Z" /><glyph glyph-name="B" unicode="B" d="M239 740 l0 -740 l-162 0 l0 740 l162 0 ZM376 301 l-189 0 l0 136 l181 0 q44 0 67 21 q23 21 23 61 q0 39 -23 59 q-23 20 -67 20 l-170 0 l0 142 l187 0 q112 0 175.5 -55 q63.5 -55 63.5 -150 q0 -65 -32 -110 q-32 -45 -93 -64 l0 14 q65 -14 99.5 -58 q34.5 -44 34.5 -113 q0 -65 -28.5 -111 q-28.5 -46 -84 -69.5 q-55.5 -23.5 -135.5 -23.5 l-187 0 l0 142 l178 0 q45 0 68 20.5 q23 20.5 23 61.5 q0 38 -23.5 57.5 q-23.5 19.5 -67.5 19.5 Z" /><glyph glyph-name="C" unicode="C" d="M397 -12 q-111 0 -192 46.5 q-81 46.5 -125 132 q-44 85.5 -44 202.5 q0 116 46 202 q46 86 129 133.5 q83 47.5 193 47.5 q93 0 165.5 -33.5 q72.5 -33.5 118.5 -94.5 q46 -61 57 -144 l-171 0 q-16 56 -61.5 86 q-45.5 30 -112.5 30 q-60 0 -103.5 -27 q-43.5 -27 -66.5 -77.5 q-23 -50.5 -23 -121.5 q0 -69 23.5 -120 q23.5 -51 67 -78.5 q43.5 -27.5 102.5 -27.5 q68 0 115.5 31.5 q47.5 31.5 62.5 86.5 l168 0 q-13 -82 -60.5 -144 q-47.5 -62 -121.5 -96 q-74 -34 -167 -34 Z" /><glyph glyph-name="D" unicode="D" d="M367 0 l-290 0 l0 740 l280 0 q109 0 191.5 -47 q82.5 -47 129.5 -131 q47 -84 47 -194 q0 -108 -45.5 -191 q-45.5 -83 -126 -130 q-80.5 -47 -186.5 -47 ZM239 666 l0 -594 l-77 78 l189 0 q64 0 109.5 26 q45.5 26 69.5 75 q24 49 24 117 q0 70 -25.5 119.5 q-25.5 49.5 -73 76 q-47.5 26.5 -114.5 26.5 l-179 0 l77 76 Z" /><glyph glyph-name="E" unicode="E" d="M547 0 l-470 0 l0 740 l470 0 l0 -150 l-353 0 l45 42 l0 -187 l273 0 l0 -142 l-273 0 l0 -195 l-45 42 l353 0 l0 -150 Z" /><glyph glyph-name="F" unicode="F" d="M239 740 l0 -740 l-162 0 l0 740 l162 0 ZM548 590 l-456 0 l0 150 l456 0 l0 -150 ZM499 289 l-411 0 l0 146 l411 0 l0 -146 Z" /><glyph glyph-name="G" unicode="G" d="M410 600 q-67 0 -112 -29.5 q-45 -29.5 -68 -82.5 q-23 -53 -23 -125 q0 -74 26 -124 q26 -50 71.5 -74.5 q45.5 -24.5 104.5 -24.5 q50 0 85 13 q35 13 56.5 36 q21.5 23 32 52 q10.5 29 10.5 60 l0 59 l77 -77 l-274 0 l0 142 l348 0 l0 -425 l-139 0 l-13 101 l18 -15 q-16 -29 -49.5 -51 q-33.5 -22 -78 -34 q-44.5 -12 -94.5 -12 q-103 0 -182.5 47.5 q-79.5 47.5 -124.5 132.5 q-45 85 -45 199 q0 112 47 198.5 q47 86.5 132 136 q85 49.5 199 49.5 q89 0 160.5 -32.5 q71.5 -32.5 116.5 -92 q45 -59.5 53 -139.5 l-170 0 q-14 59 -60 85.5 q-46 26.5 -104 26.5 Z" /><glyph glyph-name="H" unicode="H" d="M239 0 l-162 0 l0 740 l162 0 l0 -292 l286 0 l0 292 l162 0 l0 -740 l-162 0 l0 298 l-286 0 l0 -298 Z" /><glyph glyph-name="I" unicode="I" d="M239 740 l0 -740 l-162 0 l0 740 l162 0 Z" /><glyph glyph-name="J" unicode="J" d="M20 212 l0 52 l156 0 l0 -52 q0 -29 19 -52 q19 -23 65 -23 q45 0 64 22 q19 22 19 59 l0 522 l162 0 l0 -532 q0 -63 -29.5 -113 q-29.5 -50 -84 -79 q-54.5 -29 -129.5 -29 q-81 0 -135 29.5 q-54 29.5 -80.5 80.5 q-26.5 51 -26.5 115 Z" /><glyph glyph-name="K" unicode="K" d="M697 740 l-499 -652 l0 244 l308 408 l191 0 ZM239 740 l0 -740 l-162 0 l0 740 l162 0 ZM344 295 l103 142 l252 -437 l-187 0 l-168 295 Z" /><glyph glyph-name="L" unicode="L" d="M239 740 l0 -740 l-162 0 l0 740 l162 0 ZM106 0 l0 150 l425 0 l0 -150 l-425 0 Z" /><glyph glyph-name="M" unicode="M" d="M234 0 l-157 0 l0 740 l157 0 l220 -552 l221 552 l159 0 l0 -740 l-157 0 l0 155 q0 60 0 99 q0 39 1 65 q1 26 2.5 45.5 q1.5 19.5 4.5 40.5 l-157 -405 l-148 0 l-156 405 q7 -41 8.5 -89 q1.5 -48 1.5 -109 l0 -207 Z" /><glyph glyph-name="N" unicode="N" d="M237 0 l-160 0 l0 740 l160 0 l362 -546 l-50 0 l0 546 l160 0 l0 -740 l-160 0 l-362 545 l50 0 l0 -545 Z" /><glyph glyph-name="O" unicode="O" d="M761 371 q0 -113 -46 -199.5 q-46 -86.5 -128 -135 q-82 -48.5 -190 -48.5 q-107 0 -188.5 48.5 q-81.5 48.5 -127 134.5 q-45.5 86 -45.5 199 q0 113 46 199.5 q46 86.5 127.5 135 q81.5 48.5 188.5 48.5 q108 0 189.5 -48.5 q81.5 -48.5 127.5 -134.5 q46 -86 46 -199 ZM590 371 q0 71 -23 121.5 q-23 50.5 -65.5 77.5 q-42.5 27 -102.5 27 q-60 0 -103 -27 q-43 -27 -66 -77.5 q-23 -50.5 -23 -121.5 q0 -71 23 -122 q23 -51 66 -78 q43 -27 103 -27 q60 0 102.5 27.5 q42.5 27.5 65.5 78.5 q23 51 23 121 Z" /><glyph glyph-name="P" unicode="P" d="M239 740 l0 -740 l-162 0 l0 740 l162 0 ZM377 246 l-178 0 l0 144 l142 0 q59 0 88 25.5 q29 25.5 29 77.5 q0 52 -29 77.5 q-29 25.5 -88 25.5 l-142 0 l0 144 l178 0 q76 0 132.5 -31 q56.5 -31 88 -86.5 q31.5 -55.5 31.5 -129.5 q0 -74 -31.5 -129.5 q-31.5 -55.5 -88 -86.5 q-56.5 -31 -132.5 -31 Z" /><glyph glyph-name="Q" unicode="Q" d="M761 371 q0 -113 -46 -199.5 q-46 -86.5 -128 -135 q-82 -48.5 -190 -48.5 q-107 0 -188.5 48.5 q-81.5 48.5 -127 134.5 q-45.5 86 -45.5 199 q0 113 46 199.5 q46 86.5 127.5 135 q81.5 48.5 188.5 48.5 q108 0 189.5 -48.5 q81.5 -48.5 127.5 -134.5 q46 -86 46 -199 ZM590 371 q0 71 -23 121.5 q-23 50.5 -65.5 77.5 q-42.5 27 -102.5 27 q-60 0 -103 -27 q-43 -27 -66 -77.5 q-23 -50.5 -23 -121.5 q0 -71 23 -122 q23 -51 66 -78 q43 -27 103 -27 q60 0 102.5 27.5 q42.5 27.5 65.5 78.5 q23 51 23 121 ZM657 -64 l-290 328 l102 90 l290 -328 l-102 -90 Z" /><glyph glyph-name="R" unicode="R" d="M239 0 l-162 0 l0 740 l286 0 q135 0 208.5 -62.5 q73.5 -62.5 73.5 -177.5 q0 -72 -30.5 -123 q-30.5 -51 -92.5 -83 l130 -294 l-177 0 l-111 259 l-125 0 l0 -259 ZM239 596 l0 -195 l123 0 q53 0 82.5 26 q29.5 26 29.5 73 q0 47 -28.5 71.5 q-28.5 24.5 -82.5 24.5 l-124 0 Z" /><glyph glyph-name="S" unicode="S" d="M36 525 q0 67 35 118.5 q35 51.5 96.5 81 q61.5 29.5 140.5 29.5 q80 0 138 -28 q58 -28 89.5 -79 q31.5 -51 31.5 -121 l-161 0 q0 39 -27 61.5 q-27 22.5 -73 22.5 q-49 0 -78.5 -21 q-29.5 -21 -29.5 -58 q0 -34 18 -52 q18 -18 57 -26 l111 -23 q99 -20 147 -69.5 q48 -49.5 48 -137.5 q0 -71 -35 -124.5 q-35 -53.5 -98.5 -82.5 q-63.5 -29 -148.5 -29 q-82 0 -143.5 28 q-61.5 28 -95 79.5 q-33.5 51.5 -33.5 120.5 l161 0 q0 -40 29 -62 q29 -22 83 -22 q55 0 87 20.5 q32 20.5 32 55.5 q0 31 -15.5 48 q-15.5 17 -52.5 24 l-113 23 q-99 20 -149.5 76 q-50.5 56 -50.5 147 Z" /><glyph glyph-name="T" unicode="T" d="M392 662 l0 -662 l-162 0 l0 662 l162 0 ZM20 590 l0 150 l582 0 l0 -150 l-582 0 Z" /><glyph glyph-name="U" unicode="U" d="M72 278 l0 462 l162 0 l0 -451 q0 -70 37 -107 q37 -37 105 -37 q69 0 106.5 38 q37.5 38 37.5 106 l0 451 l162 0 l0 -462 q0 -88 -37.5 -153 q-37.5 -65 -106.5 -101 q-69 -36 -162 -36 q-92 0 -160.5 35.5 q-68.5 35.5 -106 101 q-37.5 65.5 -37.5 153.5 Z" /><glyph glyph-name="V" unicode="V" d="M287 0 l-277 740 l173 0 l140 -374 q13 -34 24 -71 q11 -37 23 -85 q14 53 25.5 88 q11.5 35 23.5 68 l138 374 l169 0 l-272 -740 l-167 0 Z" /><glyph glyph-name="W" unicode="W" d="M237 0 l-222 740 l169 0 l97 -321 q10 -33 19 -69.5 q9 -36.5 18 -91.5 q9 55 18 91 q9 36 19 70 l91 321 l181 0 l87 -321 q9 -34 18 -71 q9 -37 19 -90 q11 56 20 91.5 q9 35.5 19 67.5 l99 323 l165 0 l-226 -740 l-158 0 l-135 486 l-139 -486 l-159 0 Z" /><glyph glyph-name="X" unicode="X" d="M265 370 l-238 370 l193 0 l62 -97 q20 -31 40.5 -66.5 q20.5 -35.5 45.5 -81.5 l148 245 l189 0 l-234 -370 l234 -370 l-192 0 l-49 77 q-28 44 -49 82 q-21 38 -48 87 l-159 -246 l-190 0 l247 370 Z" /><glyph glyph-name="Y" unicode="Y" d="M260 281 l-250 459 l181 0 l124 -240 q9 -17 15.5 -31.5 q6.5 -14.5 12.5 -28.5 q5 9 9 18.5 q4 9.5 9 20 q5 10.5 11 22.5 l124 239 l176 0 l-250 -459 l0 -281 l-162 0 l0 281 Z" /><glyph glyph-name="Z" unicode="Z" d="M568 0 l-543 0 l0 152 l330 438 l-320 0 l0 150 l523 0 l0 -145 l-335 -445 l345 0 l0 -150 Z" /><glyph glyph-name="a" unicode="a" d="M209 -13 q-79 0 -125.5 43.5 q-46.5 43.5 -46.5 116.5 q0 69 47.5 110 q47.5 41 137.5 48 l140 11 l0 8 q0 25 -10 41.5 q-10 16.5 -28.5 25 q-18.5 8.5 -46.5 8.5 q-49 0 -74.5 -18 q-25.5 -18 -25.5 -52 l-128 0 q0 57 29 99 q29 42 82.5 65 q53.5 23 124.5 23 q73 0 123.5 -26 q50.5 -26 77 -76 q26.5 -50 26.5 -122 l0 -292 l-136 0 l-10 66 q-12 -34 -56.5 -56.5 q-44.5 -22.5 -100.5 -22.5 ZM263 101 q44 0 72 21.5 q28 21.5 28 64.5 l0 27 l-78 -7 q-50 -4 -70.5 -16.5 q-20.5 -12.5 -20.5 -36.5 q0 -27 17 -40 q17 -13 52 -13 Z" /><glyph glyph-name="aring" unicode="å" d="M209 -13 q-79 0 -125.5 43.5 q-46.5 43.5 -46.5 116.5 q0 69 47.5 110 q47.5 41 137.5 48 l140 11 l0 8 q0 25 -10 41.5 q-10 16.5 -28.5 25 q-18.5 8.5 -46.5 8.5 q-49 0 -74.5 -18 q-25.5 -18 -25.5 -52 l-128 0 q0 57 29 99 q29 42 82.5 65 q53.5 23 124.5 23 q73 0 123.5 -26 q50.5 -26 77 -76 q26.5 -50 26.5 -122 l0 -292 l-136 0 l-10 66 q-12 -34 -56.5 -56.5 q-44.5 -22.5 -100.5 -22.5 ZM263 101 q44 0 72 21.5 q28 21.5 28 64.5 l0 27 l-78 -7 q-50 -4 -70.5 -16.5 q-20.5 -12.5 -20.5 -36.5 q0 -27 17 -40 q17 -13 52 -13 ZM291 543 q-61 0 -101 39 q-40 39 -40 100 q0 40 18.5 71.5 q18.5 31.5 50.5 50 q32 18.5 72 18.5 q40 0 72 -18.5 q32 -18.5 50.5 -50 q18.5 -31.5 18.5 -71.5 q0 -39 -18.5 -70.5 q-18.5 -31.5 -50 -50 q-31.5 -18.5 -72.5 -18.5 ZM291 621 q27 0 43 17.5 q16 17.5 16 45.5 q0 26 -16.5 43 q-16.5 17 -42.5 17 q-26 0 -42.5 -16.5 q-16.5 -16.5 -16.5 -43.5 q0 -28 16 -45.5 q16 -17.5 43 -17.5 Z" /><glyph glyph-name="ae" unicode="æ" d="M37 147 q0 74 51 114 q51 40 134 41 l140 3 l0 19 q0 38 -23 56.5 q-23 18.5 -67 18.5 q-46 0 -70.5 -19 q-24.5 -19 -24.5 -51 l-128 0 q0 56 28.5 98 q28.5 42 79.5 65.5 q51 23.5 118 23.5 q64 0 105 -15.5 q41 -15.5 67 -44.5 l-33 -374 q-28 -48 -78.5 -71.5 q-50.5 -23.5 -115.5 -23.5 q-88 0 -135.5 43.5 q-47.5 43.5 -47.5 116.5 ZM194 154 q0 -25 18.5 -39 q18.5 -14 50.5 -14 q48 0 74 23.5 q26 23.5 26 62.5 l0 24 l-88 -3 q-43 -1 -62 -12.5 q-19 -11.5 -19 -41.5 ZM864 211 l-430 -2 l2 94 l275 0 q0 37 -25.5 62.5 q-25.5 25.5 -75.5 25.5 q-43 0 -68 -18 q-25 -18 -35.5 -48.5 q-10.5 -30.5 -10.5 -69.5 q0 -63 27 -103 q27 -40 92 -40 q47 0 75 16 q28 16 35 41 l141 0 q-13 -82 -81.5 -132 q-68.5 -50 -172.5 -50 q-73 0 -129.5 33 q-56.5 33 -88 92.5 q-31.5 59.5 -31.5 138.5 q0 80 30.5 139.5 q30.5 59.5 86 92.5 q55.5 33 129.5 33 q81 0 138 -33.5 q57 -33.5 87 -93.5 q30 -60 30 -139 l0 -39 Z" /><glyph glyph-name="b" unicode="b" d="M203 0 l-145 0 l0 754 l154 0 l0 -312 q23 34 68.5 54.5 q45.5 20.5 99.5 20.5 q70 0 121.5 -34 q51.5 -34 79.5 -95 q28 -61 28 -143 q0 -77 -30.5 -135.5 q-30.5 -58.5 -85 -90.5 q-54.5 -32 -125.5 -32 q-52 0 -94.5 21.5 q-42.5 21.5 -62.5 55.5 l-8 -64 ZM213 253 q0 -37 15.5 -65.5 q15.5 -28.5 43 -44 q27.5 -15.5 63.5 -15.5 q37 0 63.5 16 q26.5 16 41 44 q14.5 28 14.5 65 q0 37 -14.5 65 q-14.5 28 -41 44 q-26.5 16 -63.5 16 q-36 0 -63.5 -15.5 q-27.5 -15.5 -43 -43.5 q-15.5 -28 -15.5 -66 Z" /><glyph glyph-name="c" unicode="c" d="M31 252 q0 77 33 136.5 q33 59.5 90.5 93.5 q57.5 34 132.5 34 q111 0 180 -57 q69 -57 76 -155 l-155 0 q-8 38 -31.5 56 q-23.5 18 -63.5 18 q-32 0 -56.5 -15.5 q-24.5 -15.5 -37.5 -43.5 q-13 -28 -13 -67 q0 -40 12.5 -68.5 q12.5 -28.5 36 -43.5 q23.5 -15 56.5 -15 q41 0 65.5 18.5 q24.5 18.5 31.5 55.5 l155 0 q-5 -63 -38.5 -110.5 q-33.5 -47.5 -88.5 -74.5 q-55 -27 -125 -27 q-79 0 -137.5 33 q-58.5 33 -90.5 92.5 q-32 59.5 -32 139.5 Z" /><glyph glyph-name="ccedilla" unicode="ç" d="M31 252 q0 77 33 136.5 q33 59.5 90.5 93.5 q57.5 34 132.5 34 q111 0 180 -57 q69 -57 76 -155 l-155 0 q-8 38 -31.5 56 q-23.5 18 -63.5 18 q-32 0 -56.5 -15.5 q-24.5 -15.5 -37.5 -43.5 q-13 -28 -13 -67 q0 -40 12.5 -68.5 q12.5 -28.5 36 -43.5 q23.5 -15 56.5 -15 q41 0 65.5 18.5 q24.5 18.5 31.5 55.5 l155 0 q-5 -63 -38.5 -110.5 q-33.5 -47.5 -88.5 -74.5 q-55 -27 -125 -27 q-79 0 -137.5 33 q-58.5 33 -90.5 92.5 q-32 59.5 -32 139.5 ZM209 -213 l0 64 q19 -8 35.5 -13.5 q16.5 -5.5 37.5 -5.5 q29 0 42.5 11.5 q13.5 11.5 13.5 29.5 q0 17 -11.5 26 q-11.5 9 -32.5 9 q-15 0 -26.5 -2 q-11.5 -2 -22.5 -6 l-14 39 l50 104 l43 -1 l0 -33 l-37 -71 l-6 7 q17 13 49 13 q20 0 40 -8.5 q20 -8.5 33.5 -27 q13.5 -18.5 13.5 -49.5 q0 -51 -37 -78 q-37 -27 -90 -27 q-26 0 -45 5.5 q-19 5.5 -36 13.5 Z" /><glyph glyph-name="d" unicode="d" d="M268 -13 q-72 0 -125 32 q-53 32 -82.5 90.5 q-29.5 58.5 -29.5 137.5 q0 80 30 140.5 q30 60.5 85.5 94.5 q55.5 34 131.5 34 q47 0 87.5 -17 q40.5 -17 62.5 -45 l0 300 l154 0 l0 -754 l-145 0 l-8 64 q-20 -34 -63.5 -55.5 q-43.5 -21.5 -97.5 -21.5 ZM305 128 q36 0 63.5 15.5 q27.5 15.5 43 44 q15.5 28.5 15.5 65.5 q0 38 -15.5 66 q-15.5 28 -43 43.5 q-27.5 15.5 -63.5 15.5 q-36 0 -63 -16 q-27 -16 -41.5 -44 q-14.5 -28 -14.5 -65 q0 -37 14.5 -65 q14.5 -28 41.5 -44 q27 -16 63 -16 Z" /><glyph glyph-name="e" unicode="e" d="M290 -13 q-75 0 -133.5 34 q-58.5 34 -92 93.5 q-33.5 59.5 -33.5 136.5 q0 78 32.5 137.5 q32.5 59.5 90.5 93.5 q58 34 133 34 q79 0 136 -32.5 q57 -32.5 88 -92 q31 -59.5 31 -141.5 l0 -39 l-430 -2 l2 95 l275 0 q0 40 -27 63.5 q-27 23.5 -74 23.5 q-39 0 -63.5 -15 q-24.5 -15 -36.5 -46.5 q-12 -31.5 -12 -80.5 q0 -70 28.5 -103.5 q28.5 -33.5 88.5 -33.5 q44 0 73 15 q29 15 37 42 l141 0 q-13 -83 -82 -132.5 q-69 -49.5 -172 -49.5 Z" /><glyph glyph-name="f" unicode="f" d="M11 500 l343 0 l0 -128 l-343 0 l0 128 ZM354 748 l0 -132 q-13 0 -23.5 0 q-10.5 0 -19.5 0 q-47 0 -62 -22 q-15 -22 -15 -54 l0 -540 l-154 0 l0 540 q0 75 25 122 q25 47 71 69.5 q46 22.5 109 22.5 q16 0 33.5 -1.5 q17.5 -1.5 35.5 -4.5 Z" /><glyph glyph-name="g" unicode="g" d="M33 259 q0 76 30.5 134 q30.5 58 85 91 q54.5 33 124.5 33 q59 0 101.5 -24 q42.5 -24 58.5 -63 l-15 -10 l12 80 l145 0 l0 -468 q0 -89 -33 -153.5 q-33 -64.5 -94 -99 q-61 -34.5 -147 -34.5 q-115 0 -187 61.5 q-72 61.5 -83 167.5 l156 0 q2 -42 32 -65.5 q30 -23.5 81 -23.5 q56 0 88.5 31 q32.5 31 32.5 84 l0 106 l17 -13 q-16 -39 -62 -63 q-46 -24 -106 -24 q-70 0 -123.5 32 q-53.5 32 -83.5 89 q-30 57 -30 132 ZM188 263 q0 -36 15 -63.5 q15 -27.5 41 -43.5 q26 -16 60 -16 q35 0 61.5 15.5 q26.5 15.5 41 43 q14.5 27.5 14.5 64.5 q0 37 -14.5 63.5 q-14.5 26.5 -41 41.5 q-26.5 15 -62.5 15 q-34 0 -60 -15 q-26 -15 -40.5 -42 q-14.5 -27 -14.5 -63 Z" /><glyph glyph-name="h" unicode="h" d="M212 0 l-154 0 l0 754 l155 0 l0 -306 q23 32 63.5 50 q40.5 18 89.5 18 q89 0 138.5 -54.5 q49.5 -54.5 49.5 -152.5 l0 -309 l-154 0 l0 272 q0 32 -11 55 q-11 23 -30.5 36 q-19.5 13 -46.5 13 q-30 0 -52.5 -12.5 q-22.5 -12.5 -35 -35.5 q-12.5 -23 -12.5 -54 l0 -274 Z" /><glyph glyph-name="i" unicode="i" d="M58 0 l0 500 l154 0 l0 -500 l-154 0 ZM134 578 q-37 0 -62.5 25.5 q-25.5 25.5 -25.5 62.5 q0 37 25.5 62 q25.5 25 62.5 25 q36 0 61.5 -25 q25.5 -25 25.5 -62 q0 -37 -25.5 -62.5 q-25.5 -25.5 -61.5 -25.5 Z" /><glyph glyph-name="j" unicode="j" d="M-54 -244 l25 136 q11 -4 19 -5 q8 -1 19 -1 q29 0 39 16 q10 16 10 49 l0 549 l154 0 l0 -569 q0 -84 -49 -135.5 q-49 -51.5 -139 -51.5 q-16 0 -33.5 2 q-17.5 2 -44.5 10 ZM135 578 q-37 0 -62.5 25.5 q-25.5 25.5 -25.5 62.5 q0 37 25.5 62 q25.5 25 62.5 25 q36 0 61.5 -25 q25.5 -25 25.5 -62 q0 -37 -25.5 -62.5 q-25.5 -25.5 -61.5 -25.5 Z" /><glyph glyph-name="k" unicode="k" d="M212 0 l-154 0 l0 754 l154 0 l0 -434 l162 180 l193 0 l-188 -198 l182 -302 l-178 0 l-112 187 l-59 -62 l0 -125 Z" /><glyph glyph-name="l" unicode="l" d="M212 0 l-154 0 l0 754 l154 0 l0 -754 Z" /><glyph glyph-name="m" unicode="m" d="M212 0 l-154 0 l0 500 l144 0 l17 -86 l-16 18 q15 30 54 57 q39 27 101 27 q66 0 106 -33 q40 -33 59 -86 l-24 0 q12 53 58 86 q46 33 110 33 q97 0 145 -51.5 q48 -51.5 48 -137.5 l0 -327 l-154 0 l0 284 q0 47 -22.5 70 q-22.5 23 -59.5 23 q-22 0 -42 -9.5 q-20 -9.5 -33 -33 q-13 -23.5 -13 -66.5 l0 -268 l-154 0 l0 284 q0 47 -22 69.5 q-22 22.5 -59 22.5 q-22 0 -42.5 -9.5 q-20.5 -9.5 -33.5 -33 q-13 -23.5 -13 -65.5 l0 -268 Z" /><glyph glyph-name="n" unicode="n" d="M212 0 l-154 0 l0 500 l145 0 l10 -52 q23 32 63.5 50 q40.5 18 89.5 18 q89 0 138.5 -54.5 q49.5 -54.5 49.5 -152.5 l0 -309 l-154 0 l0 272 q0 47 -24 75.5 q-24 28.5 -64 28.5 q-46 0 -73 -27.5 q-27 -27.5 -27 -74.5 l0 -274 Z" /><glyph glyph-name="o" unicode="o" d="M31 251 q0 79 35.5 138.5 q35.5 59.5 98 92.5 q62.5 33 142.5 33 q80 0 142 -33 q62 -33 97.5 -92.5 q35.5 -59.5 35.5 -138.5 q0 -79 -35.5 -138 q-35.5 -59 -97.5 -92 q-62 -33 -142 -33 q-80 0 -142.5 33 q-62.5 33 -98 92 q-35.5 59 -35.5 138 ZM186 252 q0 -38 15.5 -66.5 q15.5 -28.5 42.5 -44 q27 -15.5 63 -15.5 q36 0 63 15.5 q27 15.5 42 44 q15 28.5 15 66.5 q0 38 -15 66 q-15 28 -42 43.5 q-27 15.5 -63 15.5 q-36 0 -63 -15.5 q-27 -15.5 -42.5 -43.5 q-15.5 -28 -15.5 -66 Z" /><glyph glyph-name="p" unicode="p" d="M58 -240 l0 740 l145 0 l8 -61 q21 35 65 56 q44 21 97 21 q70 0 123 -31 q53 -31 83 -88.5 q30 -57.5 30 -138.5 q0 -79 -27.5 -140.5 q-27.5 -61.5 -80 -96.5 q-52.5 -35 -127.5 -35 q-52 0 -96 18 q-44 18 -66 46 l0 -290 l-154 0 ZM213 250 q0 -37 15.5 -65.5 q15.5 -28.5 43 -44 q27.5 -15.5 63.5 -15.5 q37 0 63.5 16 q26.5 16 41 44 q14.5 28 14.5 65 q0 37 -14.5 65 q-14.5 28 -41 44 q-26.5 16 -63.5 16 q-36 0 -63.5 -15.5 q-27.5 -15.5 -43 -43.5 q-15.5 -28 -15.5 -66 Z" /><glyph glyph-name="q" unicode="q" d="M31 258 q0 81 30 138.5 q30 57.5 83.5 88.5 q53.5 31 122.5 31 q53 0 97 -21 q44 -21 65 -56 l8 61 l145 0 l0 -740 l-154 0 l0 290 q-22 -28 -66 -46 q-44 -18 -96 -18 q-74 0 -127 35 q-53 35 -80.5 96.5 q-27.5 61.5 -27.5 140.5 ZM186 250 q0 -37 14.5 -65 q14.5 -28 41.5 -44 q27 -16 63 -16 q36 0 63.5 15.5 q27.5 15.5 43 44 q15.5 28.5 15.5 65.5 q0 38 -15.5 66 q-15.5 28 -43 43.5 q-27.5 15.5 -63.5 15.5 q-36 0 -63 -16 q-27 -16 -41.5 -44 q-14.5 -28 -14.5 -65 Z" /><glyph glyph-name="r" unicode="r" d="M402 500 l0 -145 l-49 0 q-66 0 -103.5 -32 q-37.5 -32 -37.5 -106 l0 -217 l-154 0 l0 499 l145 0 l12 -107 l-14 0 q10 50 45.5 82.5 q35.5 32.5 96.5 32.5 q14 0 28.5 -1.5 q14.5 -1.5 30.5 -5.5 Z" /><glyph glyph-name="s" unicode="s" d="M22 158 l146 0 q2 -26 21 -41 q19 -15 54 -15 q36 0 53 12 q17 12 17 31 q0 11 -8.5 22 q-8.5 11 -36.5 17 l-92 20 q-69 15 -103 48.5 q-34 33.5 -34 99.5 q0 52 27.5 88.5 q27.5 36.5 74.5 56 q47 19.5 107 19.5 q58 0 102.5 -21 q44.5 -21 69.5 -59 q25 -38 25 -89 l-146 0 q0 26 -15 41.5 q-15 15.5 -43 15.5 q-26 0 -41.5 -12.5 q-15.5 -12.5 -15.5 -32.5 q0 -32 54 -44 l93 -20 q62 -13 94.5 -44.5 q32.5 -31.5 32.5 -91.5 q0 -53 -28 -92 q-28 -39 -78 -59.5 q-50 -20.5 -115 -20.5 q-99 0 -157 47.5 q-58 47.5 -58 123.5 Z" /><glyph glyph-name="t" unicode="t" d="M11 500 l344 0 l0 -128 l-344 0 l0 128 ZM260 0 l-154 0 l0 655 l154 0 l0 -655 Z" /><glyph glyph-name="u" unicode="u" d="M390 500 l154 0 l0 -500 l-145 0 l-10 56 q-23 -31 -65.5 -50 q-42.5 -19 -87.5 -19 q-85 0 -134.5 53.5 q-49.5 53.5 -49.5 145.5 l0 314 l154 0 l0 -258 q0 -61 22 -89.5 q22 -28.5 69 -28.5 q50 0 71.5 27.5 q21.5 27.5 21.5 88.5 l0 260 Z" /><glyph glyph-name="v" unicode="v" d="M200 0 l-195 500 l166 0 l61 -175 q19 -55 32.5 -98.5 q13.5 -43.5 16.5 -60.5 q5 22 19.5 66 q14.5 44 33.5 93 l67 175 l160 0 l-209 -500 l-152 0 Z" /><glyph glyph-name="w" unicode="w" d="M171 0 l-161 500 l162 0 l46 -163 q9 -32 17 -68 q8 -36 14 -74 q5 27 9 45.5 q4 18.5 10 40 q6 21.5 17 56.5 l51 163 l158 0 l47 -163 q2 -6 6.5 -24.5 q4.5 -18.5 10.5 -41 q6 -22.5 10.5 -43.5 q4.5 -21 6.5 -33 q3 18 10.5 48.5 q7.5 30.5 15 57.5 q7.5 27 9.5 36 l48 163 l163 0 l-175 -500 l-143 0 l-48 159 q-19 62 -29 104 q-10 42 -12 58 q-3 -16 -12 -51 q-9 -35 -33 -114 l-48 -156 l-150 0 Z" /><glyph glyph-name="x" unicode="x" d="M185 0 l-175 0 l168 242 l-168 258 l178 0 l92 -152 l86 152 l172 0 l-165 -255 l159 -245 l-177 0 l-86 144 l-84 -144 Z" /><glyph glyph-name="y" unicode="y" d="M170 500 l147 -432 l-75 -178 l-237 610 l165 0 ZM18 -240 l0 129 l85 0 q26 0 43 6.5 q17 6.5 29 21.5 q12 15 22 42 l203 541 l160 0 l-254 -609 q-31 -76 -75.5 -110.5 q-44.5 -34.5 -110.5 -34.5 q-28 0 -53.5 3.5 q-25.5 3.5 -48.5 10.5 Z" /><glyph glyph-name="z" unicode="z" d="M455 0 l-419 0 l0 128 l224 244 l-224 0 l0 128 l419 0 l0 -128 l-230 -244 l230 0 l0 -128 Z" /><glyph glyph-name="zero" unicode="0" d="M36 368 q0 115 40.5 201.5 q40.5 86.5 113.5 135.5 q73 49 169 49 q97 0 169.5 -49 q72.5 -49 113 -135.5 q40.5 -86.5 40.5 -201.5 q0 -114 -38.5 -200 q-38.5 -86 -110.5 -133.5 q-72 -47.5 -174 -47.5 q-101 0 -173.5 47.5 q-72.5 47.5 -111 133.5 q-38.5 86 -38.5 200 ZM196 368 q0 -79 19.5 -132.5 q19.5 -53.5 56 -80 q36.5 -26.5 87.5 -26.5 q52 0 88 26.5 q36 26.5 55.5 80 q19.5 53.5 19.5 132.5 q0 82 -19.5 136 q-19.5 54 -55.5 81 q-36 27 -88 27 q-51 0 -87.5 -27 q-36.5 -27 -56 -81 q-19.5 -54 -19.5 -136 Z" /><glyph glyph-name="one" unicode="1" d="M202 595 l-168 0 l0 145 l323 0 l0 -740 l-155 0 l0 595 Z" /><glyph glyph-name="two" unicode="2" d="M575 2 l-528 -2 l0 120 l244 203 q30 24 51 45.5 q21 21.5 34.5 42 q13.5 20.5 20 41 q6.5 20.5 6.5 43.5 q0 56 -26.5 85.5 q-26.5 29.5 -76.5 29.5 q-52 0 -80.5 -34 q-28.5 -34 -28.5 -96 l-161 0 q0 83 33.5 144.5 q33.5 61.5 94 95.5 q60.5 34 141.5 34 q85 0 145 -29.5 q60 -29.5 92.5 -85 q32.5 -55.5 32.5 -134.5 q0 -38 -11 -72.5 q-11 -34.5 -31 -66.5 q-20 -32 -48 -62 q-28 -30 -63 -59 l-164 -137 l-60 44 l383 0 l0 -150 Z" /><glyph glyph-name="three" unicode="3" d="M524 611 l-262 -230 l-108 71 l255 223 l-40 -77 l-327 0 l0 142 l482 0 l0 -129 ZM262 348 l-108 0 l0 104 q20 20 57.5 27 q37.5 7 68.5 7 q51 0 99 -16 q48 -16 86.5 -47.5 q38.5 -31.5 61 -78 q22.5 -46.5 22.5 -106.5 q0 -78 -37.5 -134.5 q-37.5 -56.5 -100.5 -86.5 q-63 -30 -138 -30 q-72 0 -132.5 29 q-60.5 29 -96.5 86 q-36 57 -36 140 l160 0 q0 -55 30 -83.5 q30 -28.5 79 -28.5 q47 0 76.5 30 q29.5 30 29.5 79 q0 44 -28 76.5 q-28 32.5 -93 32.5 Z" /><glyph glyph-name="four" unicode="4" d="M541 740 l0 -740 l-153 0 l0 740 l153 0 ZM20 273 l319 467 l171 0 l-326 -479 l-164 12 ZM632 131 l-612 0 l0 142 l612 0 l0 -142 Z" /><glyph glyph-name="five" unicode="5" d="M298 -12 q-79 0 -139 32 q-60 32 -93 89.5 q-33 57.5 -33 133.5 l160 0 q0 -52 29 -82 q29 -30 80 -30 q37 0 63 15 q26 15 40.5 43 q14.5 28 14.5 67 q0 38 -13.5 65 q-13.5 27 -39 41.5 q-25.5 14.5 -62.5 14.5 q-37 0 -68 -17.5 q-31 -17.5 -45 -44.5 l-148 28 l93 397 l402 0 l0 -150 l-316 0 l41 40 l-51 -191 l-54 -31 q20 49 68.5 76 q48.5 27 114.5 27 q72 0 127 -30 q55 -30 86 -85 q31 -55 31 -130 q0 -83 -36.5 -145.5 q-36.5 -62.5 -101 -97.5 q-64.5 -35 -150.5 -35 Z" /><glyph glyph-name="six" unicode="6" d="M153 541 l145 199 l185 0 l-205 -275 l-45 10 q15 17 48 29 q33 12 63 12 q76 0 133.5 -32.5 q57.5 -32.5 90 -90.5 q32.5 -58 32.5 -134 q0 -81 -36.5 -142 q-36.5 -61 -100.5 -95.5 q-64 -34.5 -146 -34.5 q-83 0 -148 36 q-65 36 -102 98 q-37 62 -37 139 q0 46 12 86.5 q12 40.5 39 87 q27 46.5 72 107.5 ZM196 258 q0 -38 15.5 -67 q15.5 -29 42.5 -45 q27 -16 63 -16 q35 0 62 16 q27 16 42 45 q15 29 15 67 q0 38 -15 66.5 q-15 28.5 -41.5 44.5 q-26.5 16 -62.5 16 q-36 0 -63.5 -16 q-27.5 -16 -42.5 -44.5 q-15 -28.5 -15 -66.5 Z" /><glyph glyph-name="seven" unicode="7" d="M5 740 l549 0 l0 -150 l-549 0 l0 150 ZM426 669 l128 -79 l-255 -590 l-168 0 l295 669 Z" /><glyph glyph-name="eight" unicode="8" d="M36 214 q0 76 43.5 130 q43.5 54 113.5 67 l1 -26 q-63 17 -97 60 q-34 43 -34 105 q0 61 34 106.5 q34 45.5 94.5 71.5 q60.5 26 139.5 26 q80 0 139.5 -25.5 q59.5 -25.5 92.5 -72 q33 -46.5 33 -108.5 q0 -62 -34.5 -104.5 q-34.5 -42.5 -98.5 -57.5 l-1 24 q48 -7 84.5 -34.5 q36.5 -27.5 56.5 -68.5 q20 -41 20 -92 q0 -69 -36 -120 q-36 -51 -102 -79 q-66 -28 -156 -28 q-90 0 -155.5 27.5 q-65.5 27.5 -101.5 78.5 q-36 51 -36 120 ZM195 225 q0 -30 16 -51 q16 -21 46 -32.5 q30 -11.5 72 -11.5 q42 0 72 11.5 q30 11.5 46 32.5 q16 21 16 51 q0 45 -36 70.5 q-36 25.5 -98 25.5 q-62 0 -98 -25.5 q-36 -25.5 -36 -70.5 ZM209 534 q0 -37 32 -59 q32 -22 87 -22 q55 0 87 22 q32 22 32 59 q0 38 -32 60.5 q-32 22.5 -87 22.5 q-55 0 -87 -22.5 q-32 -22.5 -32 -60.5 Z" /><glyph glyph-name="nine" unicode="9" d="M477 199 l-145 -199 l-185 0 l205 275 l45 -10 q-15 -16 -48 -28.5 q-33 -12.5 -63 -12.5 q-76 0 -133.5 32.5 q-57.5 32.5 -90 90.5 q-32.5 58 -32.5 134 q0 81 36.5 142.5 q36.5 61.5 100.5 95.5 q64 34 146 34 q83 0 148 -36 q65 -36 102 -97.5 q37 -61.5 37 -139.5 q0 -45 -12 -86 q-12 -41 -39 -87 q-27 -46 -72 -108 ZM434 482 q0 38 -15 67 q-15 29 -42.5 45 q-27.5 16 -63.5 16 q-35 0 -62 -16 q-27 -16 -42 -45 q-15 -29 -15 -67 q0 -38 15 -66.5 q15 -28.5 42 -44.5 q27 -16 62 -16 q37 0 64 16 q27 16 42 44.5 q15 28.5 15 66.5 Z" /><glyph glyph-name="threequarters" unicode="¾" d="M18 491 l86 0 q0 -26 14.5 -39.5 q14.5 -13.5 36.5 -13.5 q22 0 35 14 q13 14 13 37 q0 20 -13.5 35.5 q-13.5 15.5 -45.5 15.5 l-54 0 l0 55 l78 68 l-133 0 l0 77 l244 0 l0 -69 l-131 -118 l5 51 q35 1 66 -11 q31 -12 50.5 -37.5 q19.5 -25.5 19.5 -67.5 q0 -59 -40 -93 q-40 -34 -96 -34 q-36 0 -66.5 14.5 q-30.5 14.5 -49.5 43.5 q-19 29 -19 72 ZM707 710 l-481 -710 l-120 0 l481 710 l120 0 ZM643 68 l-179 0 l0 67 l156 237 l89 0 l-151 -228 l85 0 l0 228 l81 0 l0 -228 l49 0 l0 -76 l-49 0 l0 -68 l-81 0 l0 68 Z" /><glyph glyph-name="asterisk" unicode="*" d="M90 563 l-70 25 l28 72 l67 -22 q25 -8 40 -17 q15 -9 30 -20 q-4 18 -6.5 36.5 q-2.5 18.5 -2.5 42.5 l0 74 l77 0 l0 -74 q0 -24 -2.5 -43 q-2.5 -19 -6.5 -36 q14 10 30 19.5 q16 9.5 41 17.5 l68 22 l27 -72 l-71 -25 q-22 -8 -41.5 -11 q-19.5 -3 -36.5 -5 q17 -13 29.5 -25.5 q12.5 -12.5 24.5 -31.5 l41 -63 l-63 -43 l-42 59 q-15 21 -23.5 38 q-8.5 17 -14.5 32 q-5 -20 -14.5 -38 q-9.5 -18 -20.5 -32 l-45 -59 l-63 43 l43 63 q14 20 26.5 32 q12.5 12 28.5 25 q-20 2 -37.5 5 q-17.5 3 -40.5 11 Z" /><glyph glyph-name="backslash" unicode="\" d="M154 738 l288 -738 l-153 0 l-289 738 l154 0 Z" /><glyph glyph-name="periodcentered" unicode="·" d="M185 173 q-33 0 -60.5 16 q-27.5 16 -44 43 q-16.5 27 -16.5 59 q0 33 16.5 60.5 q16.5 27.5 44 43.5 q27.5 16 60.5 16 q32 0 59 -16.5 q27 -16.5 43.5 -44 q16.5 -27.5 16.5 -59.5 q0 -31 -16 -58 q-16 -27 -43 -43.5 q-27 -16.5 -60 -16.5 Z" /><glyph glyph-name="bullet" unicode="&#x2022;" d="M236 105 q-46 0 -85.5 23 q-39.5 23 -63 61 q-23.5 38 -23.5 84 q0 47 23.5 85.5 q23.5 38.5 63 62 q39.5 23.5 85.5 23.5 q47 0 85 -24 q38 -24 61 -62.5 q23 -38.5 23 -84.5 q0 -46 -23.5 -84 q-23.5 -38 -62 -61 q-38.5 -23 -83.5 -23 Z" /><glyph glyph-name="colon" unicode=":" d="M164 -13 q-38 0 -65 26.5 q-27 26.5 -27 63.5 q0 38 27 64.5 q27 26.5 65 26.5 q37 0 64.5 -26.5 q27.5 -26.5 27.5 -64.5 q0 -37 -27.5 -63.5 q-27.5 -26.5 -64.5 -26.5 ZM164 339 q-38 0 -65 26.5 q-27 26.5 -27 63.5 q0 38 27 64.5 q27 26.5 65 26.5 q37 0 64.5 -26.5 q27.5 -26.5 27.5 -64.5 q0 -37 -27.5 -63.5 q-27.5 -26.5 -64.5 -26.5 Z" /><glyph glyph-name="comma" unicode="," d="M174 8 l15 5 q-9 -8 -19.5 -12 q-10.5 -4 -24.5 -4 q-35 0 -59 23 q-24 23 -24 56 q0 41 23.5 66.5 q23.5 25.5 62.5 25.5 q44 0 71 -32.5 q27 -32.5 27 -84.5 q0 -48 -20.5 -87 q-20.5 -39 -57 -63.5 q-36.5 -24.5 -83.5 -29.5 l0 55 q39 7 64 28 q25 21 25 54 Z" /><glyph glyph-name="ellipsis" unicode="&#x2026;" d="M154 -13 q-38 0 -65 26.5 q-27 26.5 -27 63.5 q0 38 27 64.5 q27 26.5 65 26.5 q37 0 64.5 -26.5 q27.5 -26.5 27.5 -64.5 q0 -37 -27.5 -63.5 q-27.5 -26.5 -64.5 -26.5 ZM424 -13 q-38 0 -65 26.5 q-27 26.5 -27 63.5 q0 38 27 64.5 q27 26.5 65 26.5 q37 0 64.5 -26.5 q27.5 -26.5 27.5 -64.5 q0 -37 -27.5 -63.5 q-27.5 -26.5 -64.5 -26.5 ZM694 -13 q-38 0 -65 26.5 q-27 26.5 -27 63.5 q0 38 27 64.5 q27 26.5 65 26.5 q37 0 64.5 -26.5 q27.5 -26.5 27.5 -64.5 q0 -37 -27.5 -63.5 q-27.5 -26.5 -64.5 -26.5 Z" /><glyph glyph-name="exclam" unicode="!" d="M237 221 l-127 0 q-8 43 -14.5 100 q-6.5 57 -10 122 q-3.5 65 -3.5 130 l0 167 l186 0 l0 -167 q0 -67 -4 -132.5 q-4 -65.5 -11 -122 q-7 -56.5 -16 -97.5 ZM174 -13 q-38 0 -65 26.5 q-27 26.5 -27 63.5 q0 38 27 64.5 q27 26.5 65 26.5 q37 0 64.5 -26.5 q27.5 -26.5 27.5 -64.5 q0 -37 -27.5 -63.5 q-27.5 -26.5 -64.5 -26.5 Z" /><glyph glyph-name="numbersign" unicode="#" d="M391 740 l-145 -740 l-153 0 l145 740 l153 0 ZM642 740 l-144 -740 l-153 0 l144 740 l153 0 ZM103 563 l606 0 l-30 -144 l-606 0 l30 144 ZM67 320 l609 0 l-29 -144 l-610 0 l30 144 Z" /><glyph glyph-name="period" unicode="." d="M154 -13 q-38 0 -65 26.5 q-27 26.5 -27 63.5 q0 38 27 64.5 q27 26.5 65 26.5 q37 0 64.5 -26.5 q27.5 -26.5 27.5 -64.5 q0 -37 -27.5 -63.5 q-27.5 -26.5 -64.5 -26.5 Z" /><glyph glyph-name="question" unicode="?" d="M333 201 l-139 0 l0 21 q0 49 16.5 82.5 q16.5 33.5 42 58.5 q25.5 25 50.5 45 q21 17 38.5 33 q17.5 16 28 35.5 q10.5 19.5 10.5 43.5 q0 29 -10.5 49 q-10.5 20 -30 30.5 q-19.5 10.5 -48.5 10.5 q-30 0 -52.5 -14 q-22.5 -14 -34.5 -39.5 q-12 -25.5 -12 -60.5 l-161 0 q0 77 33.5 135 q33.5 58 93 90.5 q59.5 32.5 137.5 32.5 q79 0 135 -26.5 q56 -26.5 86 -76.5 q30 -50 30 -120 q0 -54 -20 -91.5 q-20 -37.5 -49.5 -62.5 q-29.5 -25 -58.5 -45 q-34 -23 -59.5 -48 q-25.5 -25 -25.5 -62 l0 -21 ZM268 -13 q-38 0 -65 26.5 q-27 26.5 -27 63.5 q0 38 27 64.5 q27 26.5 65 26.5 q38 0 65 -27 q27 -27 27 -64 q0 -36 -27 -63 q-27 -27 -65 -27 Z" /><glyph glyph-name="quotedbl" unicode="&quot;" d="M218 651 l-36 -227 l-77 0 l-37 227 q-6 34 5.5 55 q11.5 21 31.5 31 q20 10 42 10 q18 0 36.5 -10 q18.5 -10 29.5 -31 q11 -21 5 -55 ZM438 651 l-36 -227 l-77 0 l-37 227 q-5 34 6 55 q11 21 31 31 q20 10 42 10 q18 0 36.5 -10 q18.5 -10 29.5 -31 q11 -21 5 -55 Z" /><glyph glyph-name="quotesingle" unicode="&#39;" d="M218 651 l-36 -227 l-77 0 l-37 227 q-6 34 5.5 55 q11.5 21 31.5 31 q20 10 42 10 q18 0 36.5 -10 q18.5 -10 29.5 -31 q11 -21 5 -55 Z" /><glyph glyph-name="semicolon" unicode=";" d="M184 8 l15 5 q-9 -8 -19.5 -12 q-10.5 -4 -24.5 -4 q-35 0 -59 23 q-24 23 -24 56 q0 41 23.5 66.5 q23.5 25.5 62.5 25.5 q44 0 71 -32.5 q27 -32.5 27 -84.5 q0 -48 -20.5 -87 q-20.5 -39 -57 -63.5 q-36.5 -24.5 -83.5 -29.5 l0 55 q39 7 64 28 q25 21 25 54 ZM164 339 q-38 0 -65 26.5 q-27 26.5 -27 63.5 q0 38 27 64.5 q27 26.5 65 26.5 q37 0 64.5 -26.5 q27.5 -26.5 27.5 -64.5 q0 -37 -27.5 -63.5 q-27.5 -26.5 -64.5 -26.5 Z" /><glyph glyph-name="slash" unicode="/" d="M153 0 l-153 0 l288 738 l154 0 l-289 -738 Z" /><glyph glyph-name="underscore" unicode="_" d="M60 -125 l0 109 l441 0 l0 -109 l-441 0 Z" /><glyph glyph-name="braceleft" unicode="{" d="M45 318 l0 120 q53 0 82 25.5 q29 25.5 29 76.5 l0 193 q0 63 41 100 q41 37 105 37 l77 0 l0 -118 l-43 0 q-18 0 -29 -11.5 q-11 -11.5 -11 -37.5 l0 -184 q0 -58 -25.5 -91.5 q-25.5 -33.5 -74.5 -49.5 q49 -16 74.5 -49 q25.5 -33 25.5 -92 l0 -184 q0 -25 11 -37 q11 -12 29 -12 l43 0 l0 -118 l-77 0 q-64 0 -105 37 q-41 37 -41 100 l0 193 q0 51 -29 76.5 q-29 25.5 -82 25.5 Z" /><glyph glyph-name="braceright" unicode="}" d="M82 -114 l-77 0 l0 118 l43 0 q18 0 29 12 q11 12 11 37 l0 184 q0 59 25.5 92 q25.5 33 74.5 49 q-49 16 -74.5 49.5 q-25.5 33.5 -25.5 91.5 l0 184 q0 26 -11 37.5 q-11 11.5 -29 11.5 l-43 0 l0 118 l77 0 q65 0 105.5 -37 q40.5 -37 40.5 -100 l0 -193 q0 -51 29.5 -76.5 q29.5 -25.5 81.5 -25.5 l0 -120 q-52 0 -81.5 -25.5 q-29.5 -25.5 -29.5 -76.5 l0 -193 q0 -63 -40.5 -100 q-40.5 -37 -105.5 -37 Z" /><glyph glyph-name="bracketleft" unicode="[" d="M217 4 l115 0 l0 -118 l-255 0 l0 984 l255 0 l0 -118 l-115 0 l0 -748 Z" /><glyph glyph-name="bracketright" unicode="]" d="M5 -114 l0 118 l115 0 l0 748 l-115 0 l0 118 l255 0 l0 -984 l-255 0 Z" /><glyph glyph-name="parenleft" unicode="(" d="M341 -212 l-118 0 q-55 57 -96 135 q-41 78 -64 171.5 q-23 93.5 -23 195.5 q0 91 20 182 q20 91 60.5 173.5 q40.5 82.5 102.5 146.5 l118 0 q-43 -58 -76 -137 q-33 -79 -51 -171.5 q-18 -92.5 -18 -193.5 q0 -89 15.5 -179.5 q15.5 -90.5 48 -173 q32.5 -82.5 81.5 -149.5 Z" /><glyph glyph-name="parenright" unicode=")" d="M118 -212 l-118 0 q50 67 82 149.5 q32 82.5 47.5 173 q15.5 90.5 15.5 179.5 q0 101 -18 193.5 q-18 92.5 -50.5 171.5 q-32.5 79 -76.5 137 l118 0 q62 -64 102.5 -146.5 q40.5 -82.5 60.5 -173.5 q20 -91 20 -182 q0 -102 -23 -195.5 q-23 -93.5 -64 -171.5 q-41 -78 -96 -135 Z" /><glyph glyph-name="emdash" unicode="&#x2014;" d="M70 200 l0 136 l1116 0 l0 -136 l-1116 0 Z" /><glyph glyph-name="endash" unicode="&#x2013;" d="M70 200 l0 136 l868 0 l0 -136 l-868 0 Z" /><glyph glyph-name="hyphen" unicode="-" d="M60 202 l0 136 l342 0 l0 -136 l-342 0 Z" /><glyph glyph-name="quotedblleft" unicode="&#x201c;" d="M136 617 l-15 -5 q9 8 19.5 12 q10.5 4 24.5 4 q32 0 53 -21 q21 -21 21 -58 q0 -37 -23 -61 q-23 -24 -61 -24 q-41 0 -66 30.5 q-25 30.5 -25 79.5 q0 74 42.5 123.5 q42.5 49.5 111.5 56.5 l0 -55 q-37 -7 -59.5 -27 q-22.5 -20 -22.5 -55 ZM356 617 l-15 -5 q9 8 19.5 12 q10.5 4 24.5 4 q32 0 53 -21 q21 -21 21 -58 q0 -37 -23 -61 q-23 -24 -61 -24 q-41 0 -66 30.5 q-25 30.5 -25 79.5 q0 74 42.5 123.5 q42.5 49.5 111.5 56.5 l0 -55 q-37 -7 -59.5 -27 q-22.5 -20 -22.5 -55 Z" /><glyph glyph-name="quotedblright" unicode="&#x201d;" d="M167 601 l15 5 q-9 -8 -19.5 -12 q-10.5 -4 -24.5 -4 q-31 0 -52.5 21 q-21.5 21 -21.5 58 q0 38 23.5 61.5 q23.5 23.5 60.5 23.5 q41 0 66 -30 q25 -30 25 -80 q0 -73 -42.5 -122.5 q-42.5 -49.5 -111.5 -57.5 l0 55 q37 7 59.5 27.5 q22.5 20.5 22.5 54.5 ZM387 601 l15 5 q-9 -8 -19.5 -12 q-10.5 -4 -24.5 -4 q-31 0 -52.5 21 q-21.5 21 -21.5 58 q0 38 23.5 61.5 q23.5 23.5 60.5 23.5 q41 0 66 -30 q25 -30 25 -80 q0 -73 -42.5 -122.5 q-42.5 -49.5 -111.5 -57.5 l0 55 q37 7 59.5 27.5 q22.5 20.5 22.5 54.5 Z" /><glyph glyph-name="quoteleft" unicode="&#x2018;" d="M136 617 l-15 -5 q9 8 19.5 12 q10.5 4 24.5 4 q32 0 53 -21 q21 -21 21 -58 q0 -37 -23 -61 q-23 -24 -61 -24 q-41 0 -66 30.5 q-25 30.5 -25 79.5 q0 74 42.5 123.5 q42.5 49.5 111.5 56.5 l0 -55 q-37 -7 -59.5 -27 q-22.5 -20 -22.5 -55 Z" /><glyph glyph-name="quoteright" unicode="&#x2019;" d="M167 601 l15 5 q-9 -8 -19.5 -12 q-10.5 -4 -24.5 -4 q-31 0 -52.5 21 q-21.5 21 -21.5 58 q0 38 23.5 61.5 q23.5 23.5 60.5 23.5 q41 0 66 -30 q25 -30 25 -80 q0 -73 -42.5 -122.5 q-42.5 -49.5 -111.5 -57.5 l0 55 q37 7 59.5 27.5 q22.5 20.5 22.5 54.5 Z" /><glyph glyph-name="space" unicode=" " d="" /><glyph glyph-name="dollar" unicode="$" d="M263 -93 l0 927 l92 0 l0 -927 l-92 0 ZM36 525 q0 67 35 118.5 q35 51.5 96.5 81 q61.5 29.5 140.5 29.5 q80 0 138 -28 q58 -28 89.5 -79 q31.5 -51 31.5 -121 l-156 0 q0 43 -27.5 66 q-27.5 23 -77.5 23 q-52 0 -82 -22 q-30 -22 -30 -62 q0 -34 18.5 -54 q18.5 -20 60.5 -29 l111 -23 q102 -21 148.5 -69 q46.5 -48 46.5 -133 q0 -71 -35 -124.5 q-35 -53.5 -98.5 -82.5 q-63.5 -29 -148.5 -29 q-82 0 -143.5 28 q-61.5 28 -95 79.5 q-33.5 51.5 -33.5 120.5 l161 0 q0 -43 28.5 -66 q28.5 -23 83.5 -23 q57 0 90.5 22 q33.5 22 33.5 59 q0 62 -73 77 l-113 23 q-100 20 -150 75 q-50 55 -50 143 Z" /><glyph glyph-name="yen" unicode="¥" d="M224 390 l-204 350 l184 0 l143 -277 l145 277 l184 0 l-205 -350 l111 0 l0 -112 l-159 0 l0 -48 l159 0 l0 -112 l-159 0 l0 -118 l-153 0 l0 118 l-159 0 l0 112 l159 0 l0 48 l-159 0 l0 112 l113 0 Z" /><glyph glyph-name="plus" unicode="+" d="M394 587 l0 -501 l-128 0 l0 501 l128 0 ZM80 401 l500 0 l0 -128 l-500 0 l0 128 Z" /><glyph glyph-name="equal" unicode="=" d="M80 478 l500 0 l0 -128 l-500 0 l0 128 ZM80 258 l500 0 l0 -128 l-500 0 l0 128 Z" /><glyph glyph-name="greater" unicode="&gt;" d="M580 170 l-500 -174 l0 150 l353 106 l-353 106 l0 150 l500 -174 l0 -164 Z" /><glyph glyph-name="less" unicode="&lt;" d="M580 146 l0 -150 l-500 174 l0 164 l500 174 l0 -150 l-353 -106 l353 -106 Z" /><glyph glyph-name="asciitilde" unicode="~" d="M464 407 l116 0 q0 -52 -18 -94 q-18 -42 -51 -66.5 q-33 -24.5 -79 -24.5 q-35 0 -62 10 q-27 10 -48.5 23.5 q-21.5 13.5 -41 23.5 q-19.5 10 -39.5 10 q-28 0 -36.5 -18.5 q-8.5 -18.5 -8.5 -40.5 l-116 0 q0 50 18 91 q18 41 51.5 65.5 q33.5 24.5 78.5 24.5 q35 0 61 -10 q26 -10 48 -23.5 q22 -13.5 41.5 -23.5 q19.5 -10 40.5 -10 q28 0 36.5 18.5 q8.5 18.5 8.5 44.5 Z" /><glyph glyph-name="percent" unicode="%" d="M426 553 q0 -59 -25.5 -104.5 q-25.5 -45.5 -70.5 -71 q-45 -25.5 -104 -25.5 q-58 0 -103.5 25.5 q-45.5 25.5 -71 71 q-25.5 45.5 -25.5 104.5 q0 59 25.5 104.5 q25.5 45.5 71 71 q45.5 25.5 103.5 25.5 q59 0 104 -25.5 q45 -25.5 70.5 -71 q25.5 -45.5 25.5 -104.5 ZM306 553 q0 38 -22 61.5 q-22 23.5 -58 23.5 q-36 0 -58 -23.5 q-22 -23.5 -22 -61.5 q0 -37 22 -61 q22 -24 58 -24 q36 0 58 24 q22 24 22 61 ZM850 738 l-562 -738 l-151 0 l562 738 l151 0 ZM963 188 q0 -59 -25.5 -104.5 q-25.5 -45.5 -70.5 -71 q-45 -25.5 -104 -25.5 q-58 0 -103.5 25.5 q-45.5 25.5 -71 71 q-25.5 45.5 -25.5 104.5 q0 59 25.5 104.5 q25.5 45.5 71 71 q45.5 25.5 103.5 25.5 q59 0 104 -25.5 q45 -25.5 70.5 -71 q25.5 -45.5 25.5 -104.5 ZM843 188 q0 38 -22 61.5 q-22 23.5 -58 23.5 q-36 0 -58 -23.5 q-22 -23.5 -22 -61.5 q0 -37 22 -61 q22 -24 58 -24 q36 0 58 24 q22 24 22 61 Z" /><glyph glyph-name="at" unicode="@" d="M266 228 q0 60 42 98 q42 38 126 45 l127 10 l0 7 q0 68 -77 68 q-44 0 -67.5 -16 q-23.5 -16 -23.5 -47 l-116 0 q0 77 58.5 123 q58.5 46 155.5 46 q99 0 152.5 -52.5 q53.5 -52.5 53.5 -150.5 l0 -132 q0 -54 44 -54 q35 0 56.5 48 q21.5 48 21.5 125 q0 69 -24 127 q-24 58 -68.5 100.5 q-44.5 42.5 -105 65.5 q-60.5 23 -132.5 23 q-74 0 -136.5 -25.5 q-62.5 -25.5 -108.5 -72.5 q-46 -47 -71 -110 q-25 -63 -25 -138 q0 -75 25.5 -138.5 q25.5 -63.5 71.5 -110.5 q46 -47 108 -72.5 q62 -25.5 136 -25.5 q100 0 196 62 l41 -85 q-107 -69 -237 -69 q-95 0 -175 32.5 q-80 32.5 -139.5 92 q-59.5 59.5 -92 139.5 q-32.5 80 -32.5 175 q0 95 33 174.5 q33 79.5 92 139 q59 59.5 139.5 92 q80.5 32.5 174.5 32.5 q93 0 171 -30.5 q78 -30.5 135.5 -85.5 q57.5 -55 89.5 -129.5 q32 -74.5 32 -162.5 q0 -81 -24 -140 q-24 -59 -68.5 -91 q-44.5 -32 -106.5 -32 q-106 0 -134 81 q-12 -34 -55.5 -57.5 q-43.5 -23.5 -96.5 -23.5 q-78 0 -122 38.5 q-44 38.5 -44 106.5 ZM408 234 q0 -25 15.5 -36.5 q15.5 -11.5 47.5 -11.5 q43 0 67 20.5 q24 20.5 24 57.5 l0 24 l-71 -6 q-47 -4 -65 -15 q-18 -11 -18 -33 Z" /><glyph glyph-name="ampersand" unicode="&amp;" d="M249 426 l63 -82 q-34 -14 -56.5 -33 q-22.5 -19 -34 -42 q-11.5 -23 -11.5 -51 q0 -46 36 -72 q36 -26 97 -26 q93 0 144 63.5 q51 63.5 51 179.5 l151 0 q0 -114 -45.5 -198.5 q-45.5 -84.5 -127.5 -131 q-82 -46.5 -194 -46.5 q-81 0 -143.5 27.5 q-62.5 27.5 -97.5 75.5 q-35 48 -35 111 q0 49 24 92 q24 43 69.5 77 q45.5 34 109.5 56 ZM384 369 l-72 86 q40 17 60.5 47.5 q20.5 30.5 20.5 70.5 q0 28 -14 43.5 q-14 15.5 -40 15.5 q-26 0 -41.5 -15.5 q-15.5 -15.5 -15.5 -42.5 q0 -20 6.5 -38 q6.5 -18 21 -38 q14.5 -20 36.5 -45 l410 -453 l-178 0 l-358 397 q-46 50 -64.5 90 q-18.5 40 -18.5 86 q0 52 26.5 92.5 q26.5 40.5 72 64 q45.5 23.5 103.5 23.5 q58 0 102 -22 q44 -22 69 -61.5 q25 -39.5 25 -90.5 q0 -61 -36 -111 q-36 -50 -115 -99 Z" /><glyph glyph-name="copyright" unicode="©" d="M412 -13 q-78 0 -145.5 29.5 q-67.5 29.5 -118.5 82 q-51 52.5 -79.5 122.5 q-28.5 70 -28.5 150 q0 80 28.5 149.5 q28.5 69.5 79.5 122 q51 52.5 118.5 82 q67.5 29.5 145.5 29.5 q78 0 145 -29.5 q67 -29.5 118 -82 q51 -52.5 79.5 -122 q28.5 -69.5 28.5 -149.5 q0 -80 -28.5 -150 q-28.5 -70 -79.5 -122.5 q-51 -52.5 -118 -82 q-67 -29.5 -145 -29.5 ZM412 77 q59 0 109 22.5 q50 22.5 88 62.5 q38 40 59 93.5 q21 53.5 21 115.5 q0 62 -21 115.5 q-21 53.5 -58.5 93.5 q-37.5 40 -88 62 q-50.5 22 -109.5 22 q-59 0 -109.5 -22.5 q-50.5 -22.5 -88.5 -62.5 q-38 -40 -59 -93 q-21 -53 -21 -115 q0 -62 21 -115.5 q21 -53.5 59 -93.5 q38 -40 88.5 -62.5 q50.5 -22.5 109.5 -22.5 ZM222 371 q0 57 24.5 101 q24.5 44 67 69 q42.5 25 97.5 25 q82 0 133 -42 q51 -42 56 -115 l-114 0 q-13 55 -71 55 q-35 0 -57 -25.5 q-22 -25.5 -22 -67.5 q0 -44 21 -69 q21 -25 57 -25 q60 0 72 55 l114 0 q-3 -46 -28 -81.5 q-25 -35.5 -65.5 -55.5 q-40.5 -20 -92.5 -20 q-58 0 -101.5 24.5 q-43.5 24.5 -67 68.5 q-23.5 44 -23.5 103 Z" /><glyph glyph-name="bar" unicode="|" d="M117 -90 l0 878 l118 0 l0 -878 l-118 0 Z" /><glyph glyph-name="asciicircum" unicode="^" d="M190 400 l-130 0 l133 340 l150 0 l133 -340 l-130 0 l-78 218 l-78 -218 Z" /><glyph glyph-name="grave" unicode="`" d="M272 771 l-111 0 l-111 166 l138 0 l84 -166 Z" /></font>
</defs>
</svg>
