<?xml version="1.0" standalone="no"?><!DOCTYPE svg PUBLIC "-//W3C//DTD SVG 1.1//EN" "http://www.w3.org/Graphics/SVG/1.1/DTD/svg11.dtd" ><svg xmlns="http://www.w3.org/2000/svg"><metadata></metadata><defs><font id="2.000;ITFO;SatoshiVariable-BoldItalic" horiz-adv-x="1231"><font-face font-family="Satoshi Variable" font-weight="900" font-stretch="normal" units-per-em="1000" panose-1="0 0 0 0 0 0 0 0 0 0" ascent="1010" descent="-240" x-height="0" bbox="-124 -256 1174 934" underline-thickness="80" underline-position="-195" unicode-range="U+0020-2026" /><missing-glyph horiz-adv-x="500" d="M50 -240 l0 1110 l400 0 l0 -1110 l-400 0 ZM100 -190 l300 0 l0 1010 l-300 0 l0 -1010 Z" /><glyph glyph-name="A" unicode="A" d="M139 0 l-170 0 l376 740 l153 0 l141 -740 l-160 0 l-26 158 l-236 0 l-78 -158 ZM364 459 l-81 -169 l147 0 l-28 169 q-2 14 -5 35.5 q-3 21.5 -3 34.5 q-4 -13 -12.5 -32.5 q-8.5 -19.5 -17.5 -37.5 Z" /><glyph glyph-name="B" unicode="B" d="M311 740 l-117 -740 l-156 0 l117 740 l156 0 ZM365 302 l-173 0 l21 133 l179 0 q48 0 76 25.5 q28 25.5 28 68.5 q0 35 -21 54 q-21 19 -60 19 l-166 0 l22 138 l185 0 q90 0 144 -50 q54 -50 54 -133 q0 -73 -39.5 -128 q-39.5 -55 -107.5 -75 l2 14 q50 -12 78.5 -49 q28.5 -37 28.5 -91 q0 -71 -33 -122.5 q-33 -51.5 -95 -78.5 q-62 -27 -149 -27 l-185 0 l22 138 l166 0 q55 0 84 23.5 q29 23.5 29 66.5 q0 36 -23 55 q-23 19 -67 19 Z" /><glyph glyph-name="C" unicode="C" d="M374 -12 q-102 0 -173.5 41.5 q-71.5 41.5 -109.5 115 q-38 73.5 -38 168.5 q0 96 30.5 176.5 q30.5 80.5 85.5 139.5 q55 59 129 91 q74 32 162 32 q92 0 158.5 -34 q66.5 -34 103 -95 q36.5 -61 39.5 -142 l-167 0 q-6 41 -27 67 q-21 26 -53.5 38.5 q-32.5 12.5 -73.5 12.5 q-51 0 -91.5 -20.5 q-40.5 -20.5 -69.5 -58 q-29 -37.5 -44 -88 q-15 -50.5 -15 -109.5 q0 -54 19 -95 q19 -41 55 -64 q36 -23 86 -23 q68 0 114 28 q46 28 71 92 l172 0 q-43 -134 -136 -203.5 q-93 -69.5 -227 -69.5 Z" /><glyph glyph-name="D" unicode="D" d="M320 0 l-282 0 l117 740 l263 0 q91 0 162.5 -44 q71.5 -44 113 -120 q41.5 -76 41.5 -174 q0 -89 -30 -162.5 q-30 -73.5 -85.5 -127.5 q-55.5 -54 -131.5 -83 q-76 -29 -168 -29 ZM300 668 l-95 -598 l-62 76 l185 0 q73 0 127 31.5 q54 31.5 83.5 89 q29.5 57.5 29.5 135.5 q0 58 -22 101 q-22 43 -62.5 67 q-40.5 24 -94.5 24 l-175 0 l86 74 Z" /><glyph glyph-name="E" unicode="E" d="M498 0 l-460 0 l117 740 l460 0 l-23 -146 l-348 0 l51 42 l-31 -194 l269 0 l-22 -138 l-269 0 l-32 -200 l-37 42 l348 0 l-23 -146 Z" /><glyph glyph-name="F" unicode="F" d="M311 740 l-117 -740 l-156 0 l117 740 l156 0 ZM592 594 l-446 0 l23 146 l446 0 l-23 -146 ZM496 290 l-401 0 l22 142 l401 0 l-22 -142 Z" /><glyph glyph-name="G" unicode="G" d="M440 602 q-49 0 -89.5 -20.5 q-40.5 -20.5 -69.5 -57.5 q-29 -37 -45 -88 q-16 -51 -16 -113 q0 -58 21.5 -100 q21.5 -42 61.5 -64.5 q40 -22.5 95 -22.5 q83 0 134.5 43 q51.5 43 63.5 122 l9 60 l62 -75 l-269 0 l22 138 l340 0 l-67 -424 l-134 0 l5 103 l14 -15 q-13 -28 -44 -51 q-31 -23 -72.5 -36 q-41.5 -13 -87.5 -13 q-98 0 -170 40 q-72 40 -111.5 113 q-39.5 73 -39.5 172 q0 96 30 176 q30 80 85 139 q55 59 129.5 91.5 q74.5 32.5 162.5 32.5 q88 0 153.5 -32 q65.5 -32 104 -91 q38.5 -59 43.5 -141 l-169 0 q-10 56 -48 85 q-38 29 -104 29 Z" /><glyph glyph-name="H" unicode="H" d="M194 0 l-156 0 l117 740 l156 0 l-47 -295 l284 0 l47 295 l156 0 l-117 -740 l-156 0 l48 300 l-284 0 l-48 -300 Z" /><glyph glyph-name="I" unicode="I" d="M311 740 l-117 -740 l-156 0 l117 740 l156 0 Z" /><glyph glyph-name="J" unicode="J" d="M17 213 l5 50 l151 0 l-5 -50 q-4 -37 16 -58.5 q20 -21.5 59 -21.5 q40 0 61 20.5 q21 20.5 28 63.5 l83 523 l156 0 l-85 -533 q-34 -220 -250 -220 q-74 0 -125.5 28 q-51.5 28 -76 78.5 q-24.5 50.5 -17.5 119.5 Z" /><glyph glyph-name="K" unicode="K" d="M760 740 l-590 -648 l37 247 l361 401 l192 0 ZM311 740 l-117 -740 l-156 0 l117 740 l156 0 ZM357 298 l113 138 l175 -436 l-173 0 l-115 298 Z" /><glyph glyph-name="L" unicode="L" d="M311 740 l-117 -740 l-156 0 l117 740 l156 0 ZM66 0 l23 146 l416 0 l-23 -146 l-416 0 Z" /><glyph glyph-name="M" unicode="M" d="M190 0 l-152 0 l117 740 l146 0 l128 -557 l306 557 l160 0 l-117 -740 l-152 0 l34 214 q11 73 21.5 124 q10.5 51 17.5 76 l-221 -414 l-143 0 l-90 414 q0 -49 -6.5 -102 q-6.5 -53 -14.5 -98 l-34 -214 Z" /><glyph glyph-name="N" unicode="N" d="M193 0 l-155 0 l117 740 l155 0 l268 -551 l-48 0 l87 551 l155 0 l-117 -740 l-155 0 l-268 550 l48 0 l-87 -550 Z" /><glyph glyph-name="O" unicode="O" d="M770 427 q0 -93 -30 -173 q-30 -80 -83.5 -139.5 q-53.5 -59.5 -125.5 -93 q-72 -33.5 -157 -33.5 q-96 0 -168.5 41 q-72.5 41 -113 114 q-40.5 73 -40.5 169 q0 93 29.5 173 q29.5 80 83 140 q53.5 60 125.5 93.5 q72 33.5 157 33.5 q97 0 169.5 -41 q72.5 -41 113 -114 q40.5 -73 40.5 -170 ZM603 411 q0 60 -20 102 q-20 42 -58 64.5 q-38 22.5 -92 22.5 q-46 0 -85 -20.5 q-39 -20.5 -68 -57.5 q-29 -37 -45 -86.5 q-16 -49.5 -16 -106.5 q0 -58 20 -100.5 q20 -42.5 58.5 -65 q38.5 -22.5 91.5 -22.5 q46 0 85 20.5 q39 20.5 68 57.5 q29 37 45 86 q16 49 16 106 Z" /><glyph glyph-name="P" unicode="P" d="M311 740 l-117 -740 l-156 0 l117 740 l156 0 ZM370 247 l-175 0 l22 140 l141 0 q64 0 99 31 q35 31 35 88 q0 45 -27 69.5 q-27 24.5 -78 24.5 l-137 0 l22 140 l156 0 q69 0 120 -27 q51 -27 78.5 -75.5 q27.5 -48.5 27.5 -115.5 q0 -81 -36 -143 q-36 -62 -100 -97 q-64 -35 -148 -35 Z" /><glyph glyph-name="Q" unicode="Q" d="M770 427 q0 -93 -30 -173 q-30 -80 -83.5 -139.5 q-53.5 -59.5 -125.5 -93 q-72 -33.5 -157 -33.5 q-96 0 -168.5 41 q-72.5 41 -113 114 q-40.5 73 -40.5 169 q0 93 29.5 173 q29.5 80 83 140 q53.5 60 125.5 93.5 q72 33.5 157 33.5 q97 0 169.5 -41 q72.5 -41 113 -114 q40.5 -73 40.5 -170 ZM603 411 q0 60 -20 102 q-20 42 -58 64.5 q-38 22.5 -92 22.5 q-46 0 -85 -20.5 q-39 -20.5 -68 -57.5 q-29 -37 -45 -86.5 q-16 -49.5 -16 -106.5 q0 -58 20 -100.5 q20 -42.5 58.5 -65 q38.5 -22.5 91.5 -22.5 q46 0 85 20.5 q39 20.5 68 57.5 q29 37 45 86 q16 49 16 106 ZM595 -63 l-231 324 l105 80 l231 -324 l-105 -80 Z" /><glyph glyph-name="R" unicode="R" d="M194 0 l-156 0 l117 740 l275 0 q110 0 175 -58 q65 -58 65 -156 q0 -73 -41.5 -133 q-41.5 -60 -119.5 -98 l91 -295 l-161 0 l-79 261 l-125 0 l-41 -261 ZM289 600 l-32 -201 l121 0 q60 0 94.5 30.5 q34.5 30.5 34.5 83.5 q0 41 -27 64 q-27 23 -75 23 l-116 0 Z" /><glyph glyph-name="S" unicode="S" d="M70 507 q0 75 34 130.5 q34 55.5 95.5 86 q61.5 30.5 143.5 30.5 q71 0 128.5 -30 q57.5 -30 92.5 -81.5 q35 -51.5 37 -116.5 l-157 0 q-4 41 -33.5 64.5 q-29.5 23.5 -75.5 23.5 q-52 0 -81 -21.5 q-29 -21.5 -29 -62.5 q0 -31 18 -51 q18 -20 56 -31 l105 -31 q82 -25 121.5 -71.5 q39.5 -46.5 39.5 -119.5 q0 -72 -34 -125.5 q-34 -53.5 -96 -83.5 q-62 -30 -146 -30 q-121 0 -193.5 61 q-72.5 61 -76.5 167 l157 0 q2 -41 34 -64.5 q32 -23.5 86 -23.5 q36 0 62 10 q26 10 39.5 28.5 q13.5 18.5 13.5 44.5 q0 28 -14.5 43.5 q-14.5 15.5 -49.5 25.5 l-108 31 q-81 23 -125 74.5 q-44 51.5 -44 122.5 Z" /><glyph glyph-name="T" unicode="T" d="M448 665 l-105 -665 l-156 0 l105 665 l156 0 ZM75 594 l23 146 l567 0 l-23 -146 l-567 0 Z" /><glyph glyph-name="U" unicode="U" d="M78 287 l72 453 l156 0 l-71 -453 q-11 -70 19.5 -109 q30.5 -39 97.5 -39 q68 0 111.5 39 q43.5 39 54.5 109 l72 453 l156 0 l-74 -464 q-22 -135 -108 -211.5 q-86 -76.5 -227 -76.5 q-84 0 -147.5 37.5 q-63.5 37.5 -94.5 105 q-31 67.5 -17 156.5 Z" /><glyph glyph-name="V" unicode="V" d="M241 0 l-154 740 l160 0 l78 -381 q7 -34 12.5 -70 q5.5 -36 9.5 -85 q17 38 28.5 64 q11.5 26 22 47 q10.5 21 21.5 43 l197 382 l170 0 l-383 -740 l-162 0 Z" /><glyph glyph-name="W" unicode="W" d="M192 0 l-100 740 l155 0 l43 -331 q4 -28 8.5 -71 q4.5 -43 4.5 -88 q14 45 31 87.5 q17 42.5 30 71.5 l143 331 l179 0 l36 -331 q4 -34 6.5 -74.5 q2.5 -40.5 3.5 -84.5 q15 44 32.5 86.5 q17.5 42.5 30.5 70.5 l151 333 l162 0 l-338 -740 l-151 0 l-54 511 l-217 -511 l-156 0 Z" /><glyph glyph-name="X" unicode="X" d="M278 369 l-167 371 l169 0 l47 -103 q8 -17 19 -45 q11 -28 23 -58.5 q12 -30.5 22 -58.5 l185 265 l190 0 l-289 -371 l172 -369 l-176 0 l-37 83 q-8 19 -22 52 q-14 33 -27.5 68.5 q-13.5 35.5 -23.5 61.5 l-191 -265 l-194 0 l300 369 Z" /><glyph glyph-name="Y" unicode="Y" d="M259 282 l-171 458 l165 0 l86 -245 q5 -14 9.5 -28.5 q4.5 -14.5 7.5 -30.5 q7 15 15.5 29.5 q8.5 14.5 18.5 30.5 l164 244 l178 0 l-317 -458 l-45 -282 l-156 0 l45 282 Z" /><glyph glyph-name="Z" unicode="Z" d="M517 0 l-531 0 l23 148 l394 446 l-313 0 l23 146 l512 0 l-22 -141 l-401 -453 l338 0 l-23 -146 Z" /><glyph glyph-name="a" unicode="a" d="M173 -13 q-68 0 -110.5 38.5 q-42.5 38.5 -42.5 100.5 q0 78 53 123.5 q53 45.5 153 53.5 l140 12 l1 9 q5 38 -16 57.5 q-21 19.5 -63 19.5 q-85 0 -96 -72 l-130 0 q14 89 76.5 137.5 q62.5 48.5 165.5 48.5 q110 0 165.5 -60 q55.5 -60 38.5 -162 l-47 -293 l-131 0 l1 67 q-17 -36 -61 -58 q-44 -22 -97 -22 ZM233 98 q47 0 78 24.5 q31 24.5 37 66.5 l4 27 l-80 -7 q-55 -4 -78 -20 q-23 -16 -23 -45 q0 -22 16 -34 q16 -12 46 -12 Z" /><glyph glyph-name="aring" unicode="å" d="M173 -13 q-68 0 -110.5 38.5 q-42.5 38.5 -42.5 100.5 q0 78 53 123.5 q53 45.5 153 53.5 l140 12 l1 9 q5 38 -16 57.5 q-21 19.5 -63 19.5 q-85 0 -96 -72 l-130 0 q14 89 76.5 137.5 q62.5 48.5 165.5 48.5 q110 0 165.5 -60 q55.5 -60 38.5 -162 l-47 -293 l-131 0 l1 67 q-17 -36 -61 -58 q-44 -22 -97 -22 ZM233 98 q47 0 78 24.5 q31 24.5 37 66.5 l4 27 l-80 -7 q-55 -4 -78 -20 q-23 -16 -23 -45 q0 -22 16 -34 q16 -12 46 -12 ZM338 543 q-55 0 -89.5 33 q-34.5 33 -34.5 85 q0 45 20 80.5 q20 35.5 55 56 q35 20.5 78 20.5 q55 0 90.5 -34 q35.5 -34 35.5 -87 q0 -44 -20 -79 q-20 -35 -55 -55 q-35 -20 -80 -20 ZM346 619 q29 0 47.5 20 q18.5 20 18.5 51 q0 23 -14.5 37.5 q-14.5 14.5 -37.5 14.5 q-28 0 -46.5 -19.5 q-18.5 -19.5 -18.5 -50.5 q0 -24 14 -38.5 q14 -14.5 37 -14.5 Z" /><glyph glyph-name="ae" unicode="æ" d="M20 126 q0 78 52.5 119.5 q52.5 41.5 152.5 49.5 l140 12 l2 17 q5 38 -16 57.5 q-21 19.5 -63 19.5 q-85 0 -96 -72 l-130 0 q14 89 76.5 137.5 q62.5 48.5 165.5 48.5 q110 0 155.5 -60 q45.5 -60 28.5 -162 l-85 -185 q-28 -52 -82 -86.5 q-54 -34.5 -138 -34.5 q-76 0 -119.5 38.5 q-43.5 38.5 -43.5 100.5 ZM171 144 q0 -24 17 -35 q17 -11 45 -11 q47 0 77.5 24.5 q30.5 24.5 37.5 66.5 l3 19 l-80 -7 q-55 -4 -77.5 -17 q-22.5 -13 -22.5 -40 ZM840 212 l-423 -2 l16 93 l273 0 q7 41 -16 65.5 q-23 24.5 -69 24.5 q-38 0 -68.5 -22.5 q-30.5 -22.5 -48 -61 q-17.5 -38.5 -17.5 -86.5 q0 -57 24.5 -85 q24.5 -28 75.5 -28 q35 0 61.5 15 q26.5 15 40.5 43 l146 0 q-17 -53 -55 -94 q-38 -41 -90 -63.5 q-52 -22.5 -111 -22.5 q-74 0 -123 26.5 q-49 26.5 -73 76.5 q-24 50 -24 121 q0 86 34 154.5 q34 68.5 95 108 q61 39.5 142 39.5 q78 0 130.5 -32.5 q52.5 -32.5 75.5 -91.5 q23 -59 10 -139 l-6 -39 Z" /><glyph glyph-name="b" unicode="b" d="M158 0 l-140 0 l119 754 l149 0 l-49 -315 q27 35 66 55 q39 20 91 20 q59 0 105.5 -29 q46.5 -29 73 -81 q26.5 -52 26.5 -120 q0 -88 -34 -154.5 q-34 -66.5 -93 -104 q-59 -37.5 -134 -37.5 q-52 0 -97 22 q-45 22 -65 56 l-18 -66 ZM206 228 q0 -49 28 -79 q28 -30 76 -30 q39 0 70.5 20.5 q31.5 20.5 50.5 56 q19 35.5 19 78.5 q0 49 -28 79 q-28 30 -76 30 q-38 0 -70 -20.5 q-32 -20.5 -51 -55.5 q-19 -35 -19 -79 Z" /><glyph glyph-name="c" unicode="c" d="M28 212 q0 86 37.5 154.5 q37.5 68.5 102 108 q64.5 39.5 145.5 39.5 q107 0 167.5 -56 q60.5 -56 60.5 -154 l-150 0 q-2 38 -24.5 58 q-22.5 20 -62.5 20 q-35 0 -63.5 -21 q-28.5 -21 -44.5 -56.5 q-16 -35.5 -16 -81.5 q0 -49 23.5 -76 q23.5 -27 66.5 -27 q35 0 62 21 q27 21 40 58 l152 0 q-15 -63 -52.5 -110.5 q-37.5 -47.5 -91.5 -74 q-54 -26.5 -118 -26.5 q-74 0 -126.5 26.5 q-52.5 26.5 -80 76.5 q-27.5 50 -27.5 121 Z" /><glyph glyph-name="ccedilla" unicode="ç" d="M28 212 q0 86 37.5 154.5 q37.5 68.5 102 108 q64.5 39.5 145.5 39.5 q107 0 167.5 -56 q60.5 -56 60.5 -154 l-150 0 q-2 38 -24.5 58 q-22.5 20 -62.5 20 q-35 0 -63.5 -21 q-28.5 -21 -44.5 -56.5 q-16 -35.5 -16 -81.5 q0 -49 23.5 -76 q23.5 -27 66.5 -27 q35 0 62 21 q27 21 40 58 l152 0 q-15 -63 -52.5 -110.5 q-37.5 -47.5 -91.5 -74 q-54 -26.5 -118 -26.5 q-74 0 -126.5 26.5 q-52.5 26.5 -80 76.5 q-27.5 50 -27.5 121 ZM134 -211 l10 63 q17 -8 33.5 -13.5 q16.5 -5.5 34.5 -5.5 q28 0 45 11.5 q17 11.5 17 32.5 q0 32 -38 32 q-13 0 -25.5 -2 q-12.5 -2 -23.5 -6 l-8 38 l65 103 l42 -1 l-5 -32 l-47 -71 l-5 7 q8 6 19 9.5 q11 3.5 28 3.5 q26 0 50.5 -18.5 q24.5 -18.5 24.5 -56.5 q0 -52 -36.5 -82.5 q-36.5 -30.5 -97.5 -30.5 q-25 0 -47 6 q-22 6 -36 13 Z" /><glyph glyph-name="d" unicode="d" d="M235 -12 q-59 0 -105.5 29 q-46.5 29 -73 81 q-26.5 52 -26.5 120 q0 88 34 154.5 q34 66.5 93 104 q59 37.5 134 37.5 q52 0 97 -22 q45 -22 65 -56 l48 318 l149 0 l-119 -754 l-140 0 l1 63 q-27 -35 -66 -55 q-39 -20 -91 -20 ZM283 119 q39 0 70.5 20.5 q31.5 20.5 50.5 56 q19 35.5 19 78.5 q0 49 -28 79 q-28 30 -76 30 q-38 0 -70 -20.5 q-32 -20.5 -51 -55.5 q-19 -35 -19 -79 q0 -49 28 -79 q28 -30 76 -30 Z" /><glyph glyph-name="e" unicode="e" d="M262 -12 q-74 0 -126.5 26.5 q-52.5 26.5 -80 76.5 q-27.5 50 -27.5 121 q0 86 37.5 154.5 q37.5 68.5 102 108 q64.5 39.5 145.5 39.5 q78 0 130.5 -32.5 q52.5 -32.5 75.5 -91.5 q23 -59 10 -139 l-6 -39 l-423 -2 l16 93 l273 0 q7 41 -16 65.5 q-23 24.5 -69 24.5 q-38 0 -68.5 -22.5 q-30.5 -22.5 -48 -61 q-17.5 -38.5 -17.5 -86.5 q0 -57 24.5 -85 q24.5 -28 75.5 -28 q35 0 61.5 15 q26.5 15 40.5 43 l146 0 q-17 -53 -55 -94 q-38 -41 -90 -63.5 q-52 -22.5 -111 -22.5 Z" /><glyph glyph-name="f" unicode="f" d="M51 500 l334 0 l-20 -124 l-334 0 l20 124 ZM424 748 l-20 -128 q-12 0 -22.5 0 q-10.5 0 -19.5 0 q-39 0 -61 -18.5 q-22 -18.5 -28 -59.5 l-85 -542 l-148 0 l86 542 q17 104 76 158 q59 54 156 54 q15 0 32.5 -1.5 q17.5 -1.5 33.5 -4.5 Z" /><glyph glyph-name="g" unicode="g" d="M29 219 q0 62 21 115.5 q21 53.5 58.5 93.5 q37.5 40 86.5 63 q49 23 106 23 q53 0 96 -24.5 q43 -24.5 55 -62.5 l-17 -10 l25 83 l140 0 l-74 -469 q-22 -144 -93 -215 q-71 -71 -193 -71 q-75 0 -132.5 29 q-57.5 29 -89.5 80.5 q-32 51.5 -32 119.5 l147 0 q3 -43 32.5 -68 q29.5 -25 77.5 -25 q53 0 86 30.5 q33 30.5 43 88.5 l18 109 l14 -13 q-22 -42 -66 -66 q-44 -24 -100 -24 q-60 0 -107.5 27.5 q-47.5 27.5 -74.5 75.5 q-27 48 -27 110 ZM181 233 q0 -45 27 -73 q27 -28 70 -28 q40 0 71 20 q31 20 49 54.5 q18 34.5 18 78.5 q0 45 -26.5 71.5 q-26.5 26.5 -73.5 26.5 q-38 0 -68.5 -20 q-30.5 -20 -48.5 -54 q-18 -34 -18 -76 Z" /><glyph glyph-name="h" unicode="h" d="M166 0 l-148 0 l119 754 l150 0 l-49 -308 q32 38 65 54 q33 16 78 16 q56 0 97 -28 q41 -28 61 -75.5 q20 -47.5 11 -104.5 l-49 -308 l-149 0 l43 272 q8 50 -13 80 q-21 30 -65 30 q-43 0 -71.5 -28 q-28.5 -28 -36.5 -81 l-43 -273 Z" /><glyph glyph-name="i" unicode="i" d="M18 0 l79 500 l149 0 l-79 -500 l-149 0 ZM183 580 q-31 0 -51.5 20.5 q-20.5 20.5 -20.5 51.5 q0 26 14 48.5 q14 22.5 37 36.5 q23 14 49 14 q32 0 52 -20.5 q20 -20.5 20 -51.5 q0 -25 -14 -48 q-14 -23 -37 -37 q-23 -14 -49 -14 Z" /><glyph glyph-name="j" unicode="j" d="M-124 -242 l37 132 q11 -4 20 -5 q9 -1 19 -1 q26 0 38.5 15.5 q12.5 15.5 17.5 50.5 l87 550 l149 0 l-90 -569 q-15 -93 -63 -140 q-48 -47 -127 -47 q-25 0 -45 3.5 q-20 3.5 -43 10.5 ZM182 580 q-31 0 -51.5 20.5 q-20.5 20.5 -20.5 51.5 q0 26 14 48.5 q14 22.5 37 36.5 q23 14 49 14 q32 0 52 -20.5 q20 -20.5 20 -51.5 q0 -25 -14 -48 q-14 -23 -37 -37 q-23 -14 -49 -14 Z" /><glyph glyph-name="k" unicode="k" d="M168 0 l-149 0 l119 754 l149 0 l-68 -433 l186 179 l189 0 l-222 -211 l127 -289 l-161 0 l-82 190 l-68 -64 l-20 -126 Z" /><glyph glyph-name="l" unicode="l" d="M168 0 l-149 0 l119 754 l149 0 l-119 -754 Z" /><glyph glyph-name="m" unicode="m" d="M167 0 l-149 0 l79 500 l139 0 l2 -87 l-12 17 q24 39 68 62 q44 23 93 23 q59 0 96 -30.5 q37 -30.5 47 -89.5 l-27 0 q20 54 70 87 q50 33 112 33 q56 0 97 -25 q41 -25 60.5 -67.5 q19.5 -42.5 10.5 -96.5 l-51 -326 l-149 0 l45 285 q7 44 -12.5 70.5 q-19.5 26.5 -58.5 26.5 q-28 0 -48.5 -12 q-20.5 -12 -33 -36.5 q-12.5 -24.5 -18.5 -63.5 l-43 -270 l-149 0 l45 285 q7 42 -12 69 q-19 27 -57 27 q-29 0 -49.5 -11.5 q-20.5 -11.5 -33 -36 q-12.5 -24.5 -18.5 -63.5 l-43 -270 Z" /><glyph glyph-name="n" unicode="n" d="M167 0 l-149 0 l79 500 l140 0 l2 -54 q32 38 65 54 q33 16 78 16 q56 0 97 -28 q41 -28 61 -75.5 q20 -47.5 11 -104.5 l-49 -308 l-149 0 l43 272 q8 50 -13 80 q-21 30 -65 30 q-43 0 -71.5 -28 q-28.5 -28 -36.5 -81 l-43 -273 Z" /><glyph glyph-name="o" unicode="o" d="M28 215 q0 63 23 117.5 q23 54.5 63.5 95 q40.5 40.5 95 63.5 q54.5 23 117.5 23 q75 0 131 -28.5 q56 -28.5 87 -79.5 q31 -51 31 -119 q0 -63 -23 -117.5 q-23 -54.5 -63.5 -95 q-40.5 -40.5 -95 -63.5 q-54.5 -23 -117.5 -23 q-74 0 -130.5 28.5 q-56.5 28.5 -87.5 79.5 q-31 51 -31 119 ZM180 228 q0 -49 28 -79 q28 -30 76 -30 q39 0 70.5 20.5 q31.5 20.5 50.5 56 q19 35.5 19 78.5 q0 49 -28 79 q-28 30 -76 30 q-38 0 -70 -20.5 q-32 -20.5 -51 -55.5 q-19 -35 -19 -79 Z" /><glyph glyph-name="p" unicode="p" d="M-20 -240 l117 740 l140 0 l-1 -61 q27 35 66 55 q39 20 91 20 q59 0 105.5 -29 q46.5 -29 73 -81 q26.5 -52 26.5 -120 q0 -88 -34 -154.5 q-34 -66.5 -93 -104 q-59 -37.5 -134 -37.5 q-52 0 -97 22 q-45 22 -65 56 l-46 -306 l-149 0 ZM205 228 q0 -49 28 -79 q28 -30 76 -30 q39 0 70.5 20.5 q31.5 20.5 50.5 56 q19 35.5 19 78.5 q0 49 -28 79 q-28 30 -76 30 q-38 0 -70 -20.5 q-32 -20.5 -51 -55.5 q-19 -35 -19 -79 Z" /><glyph glyph-name="q" unicode="q" d="M30 218 q0 88 34 154.5 q34 66.5 93 104 q59 37.5 134 37.5 q52 0 97 -22 q45 -22 65 -56 l18 64 l140 0 l-117 -740 l-149 0 l47 303 q-27 -35 -66 -55 q-39 -20 -91 -20 q-59 0 -105.5 29 q-46.5 29 -73 81 q-26.5 52 -26.5 120 ZM179 228 q0 -49 28 -79 q28 -30 76 -30 q39 0 70.5 20.5 q31.5 20.5 50.5 56 q19 35.5 19 78.5 q0 49 -28 79 q-28 30 -76 30 q-38 0 -70 -20.5 q-32 -20.5 -51 -55.5 q-19 -35 -19 -79 Z" /><glyph glyph-name="r" unicode="r" d="M432 501 l-22 -140 l-48 0 q-43 0 -76.5 -14.5 q-33.5 -14.5 -54.5 -45 q-21 -30.5 -29 -79.5 l-35 -222 l-149 0 l79 500 l140 0 l-5 -106 l-14 0 q18 50 58.5 82 q40.5 32 98.5 32 q14 0 29 -1.5 q15 -1.5 28 -5.5 Z" /><glyph glyph-name="s" unicode="s" d="M5 158 l142 0 q2 -28 20.5 -43.5 q18.5 -15.5 52.5 -15.5 q32 0 52 12.5 q20 12.5 20 32.5 q0 17 -8.5 25.5 q-8.5 8.5 -31.5 15.5 l-88 28 q-52 17 -82 49 q-30 32 -30 83 q0 79 56.5 124 q56.5 45 155.5 45 q56 0 98 -21.5 q42 -21.5 66 -59 q24 -37.5 24 -86.5 l-142 0 q0 26 -16 42 q-16 16 -43 16 q-28 0 -43 -11 q-15 -11 -15 -32 q0 -32 49 -48 l86 -28 q54 -17 80.5 -48 q26.5 -31 26.5 -76 q0 -54 -27 -93 q-27 -39 -77.5 -59.5 q-50.5 -20.5 -121.5 -20.5 q-93 0 -148.5 46 q-55.5 46 -55.5 123 Z" /><glyph glyph-name="t" unicode="t" d="M51 500 l335 0 l-20 -124 l-335 0 l20 124 ZM214 0 l-149 0 l103 654 l149 0 l-103 -654 Z" /><glyph glyph-name="u" unicode="u" d="M421 500 l149 0 l-79 -500 l-140 0 l-2 54 q-31 -35 -64 -51 q-33 -16 -78 -16 q-55 0 -95.5 28.5 q-40.5 28.5 -59 75.5 q-18.5 47 -9.5 104 l49 305 l149 0 l-43 -269 q-8 -50 12.5 -80 q20.5 -30 60.5 -30 q44 0 71.5 27 q27.5 27 35.5 79 l43 273 Z" /><glyph glyph-name="v" unicode="v" d="M156 0 l-112 500 l150 0 l33 -183 q8 -43 14 -81.5 q6 -38.5 11 -74.5 q17 36 37 79 q20 43 37 77 l96 183 l165 0 l-284 -500 l-147 0 Z" /><glyph glyph-name="w" unicode="w" d="M128 0 l-79 500 l149 0 l20 -170 q4 -31 7 -68.5 q3 -37.5 4 -71.5 q11 29 26 66.5 q15 37.5 31 73.5 l75 170 l153 0 l20 -170 q1 -9 3.5 -35.5 q2.5 -26.5 4.5 -55.5 q2 -29 3 -49 q9 23 20 50 q11 27 21 51.5 q10 24.5 16 38.5 l75 170 l164 0 l-250 -500 l-136 0 l-25 166 q-4 28 -8 63 q-4 35 -6.5 65 q-2.5 30 -3.5 42 q-4 -12 -16 -41.5 q-12 -29.5 -26.5 -65 q-14.5 -35.5 -27.5 -66.5 l-67 -163 l-147 0 Z" /><glyph glyph-name="x" unicode="x" d="M148 0 l-178 0 l206 242 l-127 258 l162 0 l70 -155 l107 155 l176 0 l-205 -255 l120 -245 l-162 0 l-65 147 l-104 -147 Z" /><glyph glyph-name="y" unicode="y" d="M194 500 l76 -436 l-91 -171 l-135 607 l150 0 ZM-60 -239 l20 126 l82 0 q20 0 36.5 7 q16.5 7 31 22.5 q14.5 15.5 27.5 40.5 l285 543 l163 0 l-344 -609 q-37 -64 -83.5 -103.5 q-46.5 -39.5 -120.5 -39.5 q-28 0 -52 3.5 q-24 3.5 -45 9.5 Z" /><glyph glyph-name="z" unicode="z" d="M406 0 l-409 0 l20 124 l260 252 l-221 0 l20 124 l409 0 l-20 -124 l-265 -252 l226 0 l-20 -124 Z" /><glyph glyph-name="zero" unicode="0" d="M48 291 q0 100 27.5 184.5 q27.5 84.5 77 147 q49.5 62.5 116.5 97 q67 34.5 146 34.5 q88 0 151 -36.5 q63 -36.5 97 -104.5 q34 -68 34 -163 q0 -100 -27.5 -184.5 q-27.5 -84.5 -77 -147 q-49.5 -62.5 -116.5 -97 q-67 -34.5 -146 -34.5 q-87 0 -150.5 36.5 q-63.5 36.5 -97.5 105 q-34 68.5 -34 162.5 ZM204 295 q0 -83 34 -126 q34 -43 101 -43 q44 0 80.5 24 q36.5 24 64 67 q27.5 43 42.5 101.5 q15 58.5 15 127.5 q0 83 -34 126 q-34 43 -101 43 q-43 0 -80 -24 q-37 -24 -64.5 -67 q-27.5 -43 -42.5 -101.5 q-15 -58.5 -15 -127.5 Z" /><glyph glyph-name="one" unicode="1" d="M252 602 l-163 0 l23 138 l316 0 l-117 -740 l-154 0 l95 602 Z" /><glyph glyph-name="two" unicode="2" d="M522 0 l-516 0 l19 117 l288 208 q47 34 74 63.5 q27 29.5 38.5 61 q11.5 31.5 11.5 70.5 q0 45 -25 71 q-25 26 -69 26 q-51 0 -83 -37 q-32 -37 -37 -100 l-157 0 q9 85 47 146 q38 61 100.5 94.5 q62.5 33.5 142.5 33.5 q75 0 129.5 -28 q54.5 -28 84.5 -78.5 q30 -50.5 30 -120.5 q0 -57 -22.5 -110.5 q-22.5 -53.5 -68 -103.5 q-45.5 -50 -114.5 -97 l-190 -132 l-36 64 l376 0 l-23 -148 Z" /><glyph glyph-name="three" unicode="3" d="M570 614 l-283 -232 l-104 69 l276 226 l-40 -75 l-322 0 l22 138 l471 0 l-20 -126 ZM265 350 l-98 0 l16 101 q18 8 51.5 13 q33.5 5 76.5 5 q67 0 118 -29 q51 -29 80.5 -79.5 q29.5 -50.5 29.5 -115.5 q0 -77 -34 -135 q-34 -58 -95 -90.5 q-61 -32.5 -142 -32.5 q-81 0 -139.5 30.5 q-58.5 30.5 -90 88 q-31.5 57.5 -31.5 136.5 l155 0 q0 -55 27.5 -85.5 q27.5 -30.5 76.5 -30.5 q34 0 58.5 14.5 q24.5 14.5 38 41 q13.5 26.5 13.5 62.5 q0 50 -29 78 q-29 28 -82 28 Z" /><glyph glyph-name="four" unicode="4" d="M606 740 l-117 -740 l-148 0 l117 740 l148 0 ZM23 270 l384 470 l172 0 l-392 -481 l-164 11 ZM599 132 l-598 0 l22 138 l598 0 l-22 -138 Z" /><glyph glyph-name="five" unicode="5" d="M293 -13 q-81 0 -139.5 30.5 q-58.5 30.5 -90 88 q-31.5 57.5 -31.5 136.5 l155 0 q0 -55 27.5 -85.5 q27.5 -30.5 76.5 -30.5 q36 0 63 16 q27 16 42 45 q15 29 15 67 q0 56 -28.5 90.5 q-28.5 34.5 -75.5 34.5 q-35 0 -63.5 -15.5 q-28.5 -15.5 -48.5 -47.5 l-139 28 l154 396 l392 0 l-23 -146 l-310 0 l47 40 l-82 -197 l-47 -30 q31 54 69.5 78 q38.5 24 95.5 24 q68 0 118.5 -30 q50.5 -30 78.5 -84 q28 -54 28 -127 q0 -81 -37 -144.5 q-37 -63.5 -101 -100 q-64 -36.5 -146 -36.5 Z" /><glyph glyph-name="six" unicode="6" d="M197 551 l170 189 l193 0 l-240 -265 l-50 0 q17 17 47.5 29 q30.5 12 59.5 12 q68 0 119.5 -28.5 q51.5 -28.5 80.5 -77.5 q29 -49 29 -112 q0 -89 -41.5 -159.5 q-41.5 -70.5 -113.5 -111 q-72 -40.5 -165 -40.5 q-74 0 -132 32 q-58 32 -91 86 q-33 54 -33 120 q0 66 25 123.5 q25 57.5 63.5 107.5 q38.5 50 78.5 95 ZM196 240 q0 -31 13.5 -56 q13.5 -25 38.5 -39.5 q25 -14.5 58 -14.5 q38 0 68.5 19 q30.5 19 48 52.5 q17.5 33.5 17.5 74.5 q0 47 -29 78 q-29 31 -79 31 q-38 0 -69 -18.5 q-31 -18.5 -49 -51.5 q-18 -33 -18 -75 Z" /><glyph glyph-name="seven" unicode="7" d="M83 740 l537 0 l-23 -146 l-537 0 l23 146 ZM469 671 l128 -77 l-335 -594 l-175 0 l382 671 Z" /><glyph glyph-name="eight" unicode="8" d="M27 208 q0 53 24.5 97.5 q24.5 44.5 67.5 74.5 q43 30 96 36 l-3 -26 q-50 17 -77.5 54.5 q-27.5 37.5 -27.5 87.5 q0 66 35 116 q35 50 97 78 q62 28 143 28 q74 0 130.5 -24 q56.5 -24 88.5 -66.5 q32 -42.5 32 -98.5 q0 -71 -44.5 -122.5 q-44.5 -51.5 -115.5 -63.5 l3 21 q59 -12 94.5 -57.5 q35.5 -45.5 35.5 -109.5 q0 -73 -38 -128 q-38 -55 -106 -86 q-68 -31 -159 -31 q-82 0 -144.5 27.5 q-62.5 27.5 -97 77.5 q-34.5 50 -34.5 115 ZM182 220 q0 -41 37 -68.5 q37 -27.5 93 -27.5 q43 0 74.5 13 q31.5 13 48.5 37 q17 24 17 56 q0 42 -37.5 67.5 q-37.5 25.5 -99.5 25.5 q-41 0 -71 -12.5 q-30 -12.5 -46 -35.5 q-16 -23 -16 -55 ZM248 528 q0 -36 33 -57 q33 -21 89 -21 q52 0 83.5 24 q31.5 24 31.5 64 q0 36 -32 58.5 q-32 22.5 -83 22.5 q-37 0 -64.5 -11.5 q-27.5 -11.5 -42.5 -31.5 q-15 -20 -15 -48 Z" /><glyph glyph-name="nine" unicode="9" d="M474 189 l-170 -189 l-193 0 l240 265 l50 0 q-17 -16 -47.5 -28.5 q-30.5 -12.5 -59.5 -12.5 q-67 0 -119 28.5 q-52 28.5 -81 78 q-29 49.5 -29 111.5 q0 90 41.5 160 q41.5 70 114 110.5 q72.5 40.5 164.5 40.5 q75 0 132.5 -32 q57.5 -32 90.5 -86 q33 -54 33 -120 q0 -66 -25 -123.5 q-25 -57.5 -63 -107.5 q-38 -50 -79 -95 ZM475 500 q0 32 -13.5 56.5 q-13.5 24.5 -38 39 q-24.5 14.5 -58.5 14.5 q-38 0 -68.5 -19 q-30.5 -19 -48 -52 q-17.5 -33 -17.5 -75 q0 -47 29 -78 q29 -31 79 -31 q39 0 69.5 19 q30.5 19 48.5 51.5 q18 32.5 18 74.5 Z" /><glyph glyph-name="threequarters" unicode="¾" d="M56 491 l83 0 q0 -25 13.5 -40 q13.5 -15 37.5 -15 q22 0 35 13 q13 13 13 35 q0 26 -17.5 41 q-17.5 15 -47.5 15 l-38 0 l8 54 l89 71 l-132 0 l12 75 l238 0 l-10 -68 l-148 -119 l4 51 q54 1 90 -31.5 q36 -32.5 36 -82.5 q0 -58 -37 -93.5 q-37 -35.5 -99 -35.5 q-58 0 -94 36 q-36 36 -36 94 ZM762 710 l-583 -710 l-116 0 l583 710 l116 0 ZM593 68 l-175 0 l10 66 l181 238 l89 0 l-171 -230 l78 0 l36 230 l79 0 l-36 -230 l48 0 l-12 -74 l-48 0 l-11 -68 l-79 0 l11 68 Z" /><glyph glyph-name="asterisk" unicode="*" d="M140 568 l-64 25 l36 64 l63 -23 q23 -8 40 -18 q17 -10 23 -15 q-2 20 -1.5 38.5 q0.5 18.5 4.5 40.5 l12 74 l74 0 l-12 -74 q-4 -24 -8 -40 q-4 -16 -12 -39 q17 10 33 19 q16 9 42 17 l70 22 l16 -70 l-73 -25 q-24 -8 -43.5 -11 q-19.5 -3 -36.5 -5 q17 -16 25 -28 q8 -12 18 -32 l31 -60 l-63 -42 l-32 60 q-11 21 -17.5 38 q-6.5 17 -9.5 31 q-7 -16 -19 -34.5 q-12 -18.5 -28 -36.5 l-51 -58 l-59 42 l51 62 q17 20 32.5 33.5 q15.5 13.5 31.5 24.5 q-16 2 -35.5 7.5 q-19.5 5.5 -37.5 12.5 Z" /><glyph glyph-name="backslash" unicode="\" d="M222 740 l169 -740 l-144 0 l-169 740 l144 0 Z" /><glyph glyph-name="periodcentered" unicode="·" d="M169 173 q-46 0 -73.5 27 q-27.5 27 -27.5 72 q0 37 18.5 68 q18.5 31 50 49.5 q31.5 18.5 69.5 18.5 q46 0 73.5 -27 q27.5 -27 27.5 -72 q0 -37 -18.5 -68 q-18.5 -31 -50 -49.5 q-31.5 -18.5 -69.5 -18.5 Z" /><glyph glyph-name="bullet" unicode="&#x2022;" d="M209 106 q-64 0 -104 38.5 q-40 38.5 -40 102.5 q0 52 27 96.5 q27 44.5 72 71.5 q45 27 98 27 q63 0 101.5 -39.5 q38.5 -39.5 38.5 -104.5 q0 -51 -26.5 -95 q-26.5 -44 -70.5 -70.5 q-44 -26.5 -96 -26.5 Z" /><glyph glyph-name="colon" unicode=":" d="M119 -13 q-35 0 -55.5 20.5 q-20.5 20.5 -20.5 54.5 q0 42 30.5 72.5 q30.5 30.5 73.5 30.5 q35 0 56 -20.5 q21 -20.5 21 -55.5 q0 -27 -14.5 -50.5 q-14.5 -23.5 -38.5 -37.5 q-24 -14 -52 -14 ZM175 339 q-35 0 -55.5 20.5 q-20.5 20.5 -20.5 54.5 q0 42 30.5 72.5 q30.5 30.5 73.5 30.5 q35 0 56 -20.5 q21 -20.5 21 -55.5 q0 -27 -14.5 -50.5 q-14.5 -23.5 -38.5 -37.5 q-24 -14 -52 -14 Z" /><glyph glyph-name="comma" unicode="," d="M133 8 l15 5 q-10 -8 -20.5 -12 q-10.5 -4 -23.5 -4 q-31 0 -50.5 19 q-19.5 19 -19.5 47 q0 41 29.5 71.5 q29.5 30.5 69.5 30.5 q37 0 58 -25 q21 -25 21 -65 q0 -49 -25.5 -93.5 q-25.5 -44.5 -68 -73.5 q-42.5 -29 -93.5 -35 l9 54 q38 7 66.5 28 q28.5 21 32.5 53 Z" /><glyph glyph-name="ellipsis" unicode="&#x2026;" d="M109 -13 q-35 0 -55.5 20.5 q-20.5 20.5 -20.5 54.5 q0 42 30.5 72.5 q30.5 30.5 73.5 30.5 q35 0 56 -20.5 q21 -20.5 21 -55.5 q0 -27 -14.5 -50.5 q-14.5 -23.5 -38.5 -37.5 q-24 -14 -52 -14 ZM379 -13 q-35 0 -55.5 20.5 q-20.5 20.5 -20.5 54.5 q0 42 30.5 72.5 q30.5 30.5 73.5 30.5 q35 0 56 -20.5 q21 -20.5 21 -55.5 q0 -27 -14.5 -50.5 q-14.5 -23.5 -38.5 -37.5 q-24 -14 -52 -14 ZM649 -13 q-35 0 -55.5 20.5 q-20.5 20.5 -20.5 54.5 q0 42 30.5 72.5 q30.5 30.5 73.5 30.5 q35 0 56 -20.5 q21 -20.5 21 -55.5 q0 -27 -14.5 -50.5 q-14.5 -23.5 -38.5 -37.5 q-24 -14 -52 -14 Z" /><glyph glyph-name="exclam" unicode="!" d="M227 221 l-122 0 q-1 41 2 99 q3 58 10 123 q7 65 17 129 l26 168 l179 0 l-26 -168 q-10 -64 -24 -129.5 q-14 -65.5 -30 -123 q-16 -57.5 -32 -98.5 ZM129 -13 q-35 0 -55.5 20.5 q-20.5 20.5 -20.5 54.5 q0 42 30.5 72.5 q30.5 30.5 73.5 30.5 q35 0 56 -20.5 q21 -20.5 21 -55.5 q0 -27 -14.5 -50.5 q-14.5 -23.5 -38.5 -37.5 q-24 -14 -52 -14 Z" /><glyph glyph-name="numbersign" unicode="#" d="M460 740 l-259 -740 l-148 0 l259 740 l148 0 ZM706 740 l-258 -740 l-148 0 l258 740 l148 0 ZM151 560 l592 0 l-52 -140 l-592 0 l52 140 ZM77 318 l595 0 l-50 -140 l-596 0 l51 140 Z" /><glyph glyph-name="period" unicode="." d="M109 -13 q-35 0 -55.5 20.5 q-20.5 20.5 -20.5 54.5 q0 42 30.5 72.5 q30.5 30.5 73.5 30.5 q35 0 56 -20.5 q21 -20.5 21 -55.5 q0 -27 -14.5 -50.5 q-14.5 -23.5 -38.5 -37.5 q-24 -14 -52 -14 Z" /><glyph glyph-name="question" unicode="?" d="M317 199 l-134 0 l3 21 q6 38 23 73.5 q17 35.5 45.5 66.5 q28.5 31 66.5 57 q57 39 77.5 65 q20.5 26 20.5 60 q0 34 -21.5 53 q-21.5 19 -59.5 19 q-48 0 -78 -31 q-30 -31 -35 -86 l-155 0 q11 80 49 137.5 q38 57.5 98 88.5 q60 31 137 31 q68 0 119 -26 q51 -26 80 -71.5 q29 -45.5 29 -106.5 q0 -66 -37.5 -117.5 q-37.5 -51.5 -108.5 -91.5 q-42 -23 -66 -43 q-24 -20 -35.5 -39 q-11.5 -19 -14.5 -39 l-3 -21 ZM220 -13 q-32 0 -54 22 q-22 22 -22 53 q0 27 15 50.5 q15 23.5 39 38 q24 14.5 50 14.5 q32 0 54.5 -22 q22.5 -22 22.5 -54 q0 -26 -15 -49.5 q-15 -23.5 -39 -38 q-24 -14.5 -51 -14.5 Z" /><glyph glyph-name="quotedbl" unicode="&quot;" d="M276 652 l-71 -226 l-74 0 l0 226 q0 45 22 70 q22 25 62 25 q39 0 56.5 -27 q17.5 -27 4.5 -68 ZM496 652 l-71 -226 l-74 0 l0 226 q0 45 22 70 q22 25 62 25 q39 0 56.5 -27 q17.5 -27 4.5 -68 Z" /><glyph glyph-name="quotesingle" unicode="&#39;" d="M276 652 l-71 -226 l-74 0 l0 226 q0 45 22 70 q22 25 62 25 q39 0 56.5 -27 q17.5 -27 4.5 -68 Z" /><glyph glyph-name="semicolon" unicode=";" d="M139 8 l15 5 q-10 -8 -20.5 -12 q-10.5 -4 -23.5 -4 q-31 0 -50.5 19 q-19.5 19 -19.5 47 q0 41 29.5 71.5 q29.5 30.5 69.5 30.5 q37 0 58 -25 q21 -25 21 -65 q0 -49 -25.5 -93.5 q-25.5 -44.5 -68 -73.5 q-42.5 -29 -93.5 -35 l9 54 q38 7 66.5 28 q28.5 21 32.5 53 ZM175 339 q-35 0 -55.5 20.5 q-20.5 20.5 -20.5 54.5 q0 42 30.5 72.5 q30.5 30.5 73.5 30.5 q35 0 56 -20.5 q21 -20.5 21 -55.5 q0 -27 -14.5 -50.5 q-14.5 -23.5 -38.5 -37.5 q-24 -14 -52 -14 Z" /><glyph glyph-name="slash" unicode="/" d="M118 0 l-158 0 l390 740 l159 0 l-391 -740 Z" /><glyph glyph-name="underscore" unicode="_" d="M1 -123 l17 107 l431 0 l-17 -107 l-431 0 Z" /><glyph glyph-name="braceleft" unicode="{" d="M56 319 l19 117 q52 0 84 25.5 q32 25.5 39 74.5 l31 200 q11 66 52 100 q41 34 111 34 l74 0 l-18 -114 l-41 0 q-22 0 -32 -11 q-10 -11 -15 -38 l-30 -191 q-10 -60 -35 -94.5 q-25 -34.5 -75 -54.5 q40 -13 57 -46.5 q17 -33.5 9 -82.5 l-29 -189 q-4 -23 4.5 -36 q8.5 -13 27.5 -13 l41 0 l-18 -114 l-74 0 q-61 0 -95.5 38.5 q-34.5 38.5 -25.5 96.5 l31 197 q8 49 -15.5 75 q-23.5 26 -76.5 26 Z" /><glyph glyph-name="braceright" unicode="}" d="M23 -114 l-74 0 l18 114 l41 0 q22 0 32.5 11 q10.5 11 14.5 38 l30 191 q10 60 35.5 95 q25.5 35 74.5 54 q-40 14 -56.5 47 q-16.5 33 -9.5 82 l29 189 q4 23 -4.5 36 q-8.5 13 -27.5 13 l-41 0 l18 114 l74 0 q61 0 95.5 -38.5 q34.5 -38.5 25.5 -96.5 l-31 -197 q-7 -49 16.5 -75 q23.5 -26 75.5 -26 l-19 -117 q-52 0 -83.5 -25.5 q-31.5 -25.5 -39.5 -74.5 l-31 -200 q-10 -66 -51.5 -100 q-41.5 -34 -111.5 -34 Z" /><glyph glyph-name="bracketleft" unicode="[" d="M173 0 l113 0 l-18 -114 l-248 0 l155 984 l248 0 l-18 -114 l-113 0 l-119 -756 Z" /><glyph glyph-name="bracketright" unicode="]" d="M-52 -114 l18 114 l113 0 l119 756 l-113 0 l18 114 l248 0 l-155 -984 l-248 0 Z" /><glyph glyph-name="parenleft" unicode="(" d="M259 -212 l-114 0 q-52 67 -81 163.5 q-29 96.5 -29 205.5 q0 121 32 239.5 q32 118.5 90.5 221 q58.5 102.5 137.5 174.5 l122 0 q-52 -59 -95 -134.5 q-43 -75.5 -74 -160 q-31 -84.5 -48 -172 q-17 -87.5 -17 -170.5 q0 -71 9.5 -140 q9.5 -69 26.5 -127.5 q17 -58.5 40 -99.5 Z" /><glyph glyph-name="parenright" unicode=")" d="M50 -212 l-122 0 q52 59 95 134.5 q43 75.5 74 160 q31 84.5 48 172 q17 87.5 17 170.5 q0 71 -9.5 140 q-9.5 69 -26.5 127.5 q-17 58.5 -40 99.5 l114 0 q53 -67 81.5 -163 q28.5 -96 28.5 -206 q0 -120 -32 -239 q-32 -119 -90.5 -221.5 q-58.5 -102.5 -137.5 -174.5 Z" /><glyph glyph-name="emdash" unicode="&#x2014;" d="M62 202 l21 132 l1091 0 l-21 -132 l-1091 0 Z" /><glyph glyph-name="endash" unicode="&#x2013;" d="M62 202 l21 132 l849 0 l-21 -132 l-849 0 Z" /><glyph glyph-name="hyphen" unicode="-" d="M53 204 l21 132 l334 0 l-21 -132 l-334 0 Z" /><glyph glyph-name="quotedblleft" unicode="&#x201c;" d="M193 619 l-15 -5 q10 8 21.5 12 q11.5 4 22.5 4 q28 0 44.5 -16.5 q16.5 -16.5 16.5 -45.5 q0 -41 -27.5 -70.5 q-27.5 -29.5 -67.5 -29.5 q-35 0 -54.5 23 q-19.5 23 -19.5 60 q0 51 24.5 95 q24.5 44 65.5 73.5 q41 29.5 90 34.5 l-8 -54 q-37 -7 -62.5 -27.5 q-25.5 -20.5 -30.5 -53.5 ZM413 619 l-15 -5 q10 8 21.5 12 q11.5 4 22.5 4 q28 0 44.5 -16.5 q16.5 -16.5 16.5 -45.5 q0 -41 -27.5 -70.5 q-27.5 -29.5 -67.5 -29.5 q-35 0 -54.5 23 q-19.5 23 -19.5 60 q0 51 24.5 95 q24.5 44 65.5 73.5 q41 29.5 90 34.5 l-8 -54 q-37 -7 -62.5 -27.5 q-25.5 -20.5 -30.5 -53.5 Z" /><glyph glyph-name="quotedblright" unicode="&#x201d;" d="M219 603 l16 5 q-10 -8 -20.5 -12 q-10.5 -4 -24.5 -4 q-28 0 -44.5 17 q-16.5 17 -16.5 45 q0 42 28 71 q28 29 68 29 q35 0 54 -22.5 q19 -22.5 19 -60.5 q0 -50 -24 -94.5 q-24 -44.5 -65 -73.5 q-41 -29 -91 -35 l9 54 q37 8 62 28 q25 20 30 53 ZM439 603 l16 5 q-10 -8 -20.5 -12 q-10.5 -4 -24.5 -4 q-28 0 -44.5 17 q-16.5 17 -16.5 45 q0 42 28 71 q28 29 68 29 q35 0 54 -22.5 q19 -22.5 19 -60.5 q0 -50 -24 -94.5 q-24 -44.5 -65 -73.5 q-41 -29 -91 -35 l9 54 q37 8 62 28 q25 20 30 53 Z" /><glyph glyph-name="quoteleft" unicode="&#x2018;" d="M193 619 l-15 -5 q10 8 21.5 12 q11.5 4 22.5 4 q28 0 44.5 -16.5 q16.5 -16.5 16.5 -45.5 q0 -41 -27.5 -70.5 q-27.5 -29.5 -67.5 -29.5 q-35 0 -54.5 23 q-19.5 23 -19.5 60 q0 51 24.5 95 q24.5 44 65.5 73.5 q41 29.5 90 34.5 l-8 -54 q-37 -7 -62.5 -27.5 q-25.5 -20.5 -30.5 -53.5 Z" /><glyph glyph-name="quoteright" unicode="&#x2019;" d="M219 603 l16 5 q-10 -8 -20.5 -12 q-10.5 -4 -24.5 -4 q-28 0 -44.5 17 q-16.5 17 -16.5 45 q0 42 28 71 q28 29 68 29 q35 0 54 -22.5 q19 -22.5 19 -60.5 q0 -50 -24 -94.5 q-24 -44.5 -65 -73.5 q-41 -29 -91 -35 l9 54 q37 8 62 28 q25 20 30 53 Z" /><glyph glyph-name="space" unicode=" " d="" /><glyph glyph-name="dollar" unicode="$" d="M212 -93 l121 926 l89 0 l-121 -926 l-89 0 ZM70 507 q0 75 34 130.5 q34 55.5 95.5 86 q61.5 30.5 143.5 30.5 q71 0 128.5 -30 q57.5 -30 92.5 -81.5 q35 -51.5 37 -116.5 l-157 0 q-4 41 -33.5 64.5 q-29.5 23.5 -75.5 23.5 q-52 0 -81 -21.5 q-29 -21.5 -29 -62.5 q0 -31 18 -51 q18 -20 56 -31 l105 -31 q82 -24 121.5 -71 q39.5 -47 39.5 -120 q0 -72 -34 -125.5 q-34 -53.5 -96 -83.5 q-62 -30 -146 -30 q-121 0 -193.5 61 q-72.5 61 -76.5 167 l157 0 q2 -41 34 -64.5 q32 -23.5 86 -23.5 q36 0 62 10 q26 10 39.5 28.5 q13.5 18.5 13.5 44.5 q0 28 -14.5 43.5 q-14.5 15.5 -49.5 25.5 l-108 31 q-81 23 -125 74.5 q-44 51.5 -44 122.5 Z" /><glyph glyph-name="yen" unicode="¥" d="M245 120 l-156 0 l17 109 l156 0 l8 49 l-156 0 l17 110 l113 0 l-146 352 l170 0 l98 -290 l187 290 l185 0 l-258 -352 l111 0 l-17 -110 l-156 0 l-8 -49 l156 0 l-17 -109 l-156 0 l-19 -120 l-148 0 l19 120 Z" /><glyph glyph-name="plus" unicode="+" d="M445 587 l-79 -501 l-124 0 l79 501 l124 0 ZM109 397 l489 0 l-20 -120 l-489 0 l20 120 Z" /><glyph glyph-name="equal" unicode="=" d="M121 476 l488 0 l-19 -120 l-488 0 l19 120 ZM87 252 l488 0 l-20 -120 l-488 0 l20 120 Z" /><glyph glyph-name="greater" unicode="&gt;" d="M563 172 l-517 -174 l23 152 l364 108 l-330 108 l23 140 l462 -175 l-25 -159 Z" /><glyph glyph-name="less" unicode="&lt;" d="M557 138 l-23 -140 l-461 175 l25 159 l516 174 l-23 -152 l-363 -108 l329 -108 Z" /><glyph glyph-name="asciitilde" unicode="~" d="M488 405 l112 0 q-15 -89 -56.5 -136 q-41.5 -47 -106.5 -47 q-34 0 -59.5 10.5 q-25.5 10.5 -46 23.5 q-20.5 13 -40 23.5 q-19.5 10.5 -42.5 10.5 q-22 0 -36 -15 q-14 -15 -19 -45 l-112 0 q14 87 56 133 q42 46 106 46 q34 0 59 -10.5 q25 -10.5 45.5 -23.5 q20.5 -13 40.5 -23.5 q20 -10.5 44 -10.5 q23 0 36.5 16 q13.5 16 18.5 48 Z" /><glyph glyph-name="percent" unicode="%" d="M472 574 q0 -57 -29 -105.5 q-29 -48.5 -77 -77.5 q-48 -29 -106 -29 q-58 0 -99.5 21.5 q-41.5 21.5 -63.5 61.5 q-22 40 -22 97 q0 58 29 106 q29 48 77 77 q48 29 105 29 q59 0 100.5 -21 q41.5 -21 63.5 -61.5 q22 -40.5 22 -97.5 ZM354 568 q0 38 -18.5 58 q-18.5 20 -53.5 20 q-25 0 -45 -13 q-20 -13 -32 -35.5 q-12 -22.5 -12 -50.5 q0 -38 18 -57.5 q18 -19.5 53 -19.5 q25 0 45.5 13.5 q20.5 13.5 32.5 35.5 q12 22 12 49 ZM912 740 l-658 -740 l-156 0 l658 740 l156 0 ZM936 199 q0 -57 -29 -105.5 q-29 -48.5 -77 -77.5 q-48 -29 -106 -29 q-58 0 -99.5 21 q-41.5 21 -63.5 61.5 q-22 40.5 -22 97.5 q0 58 29 106 q29 48 77 77 q48 29 105 29 q59 0 100.5 -21 q41.5 -21 63.5 -61.5 q22 -40.5 22 -97.5 ZM818 193 q0 38 -18.5 58 q-18.5 20 -53.5 20 q-25 0 -45 -13 q-20 -13 -32 -35.5 q-12 -22.5 -12 -50.5 q0 -38 18 -57.5 q18 -19.5 53 -19.5 q25 0 45.5 13.5 q20.5 13.5 32.5 35.5 q12 22 12 49 Z" /><glyph glyph-name="at" unicode="@" d="M256 213 q0 68 49 109 q49 41 140 48 l131 11 l0 7 q0 35 -19.5 52.5 q-19.5 17.5 -58.5 17.5 q-40 0 -62.5 -16 q-22.5 -16 -27.5 -48 l-112 0 q13 79 71.5 123.5 q58.5 44.5 149.5 44.5 q67 0 111 -24 q44 -24 63 -69.5 q19 -45.5 9 -108.5 l-21 -135 q-9 -54 34 -54 q29 0 54.5 29.5 q25.5 29.5 41 78 q15.5 48.5 15.5 103.5 q0 87 -34 150 q-34 63 -96.5 97.5 q-62.5 34.5 -148.5 34.5 q-88 0 -160.5 -29 q-72.5 -29 -125 -82.5 q-52.5 -53.5 -81 -127.5 q-28.5 -74 -28.5 -163 q0 -88 35.5 -154 q35.5 -66 100 -103 q64.5 -37 149.5 -37 q53 0 107.5 16 q54.5 16 104.5 47 l27 -83 q-58 -35 -121.5 -52.5 q-63.5 -17.5 -131.5 -17.5 q-107 0 -190 49 q-83 49 -130 135.5 q-47 86.5 -47 198.5 q0 110 36 200 q36 90 102 156 q66 66 157 101.5 q91 35.5 201 35.5 q81 0 149 -27 q68 -27 117.5 -77 q49.5 -50 76.5 -118 q27 -68 27 -150 q0 -93 -27 -160 q-27 -67 -76.5 -103 q-49.5 -36 -119.5 -36 q-52 0 -86.5 22.5 q-34.5 22.5 -41.5 59.5 q-19 -38 -60.5 -60 q-41.5 -22 -95.5 -22 q-69 0 -113 36.5 q-44 36.5 -44 93.5 ZM395 226 q0 -20 14.5 -31 q14.5 -11 41.5 -11 q42 0 69 22 q27 22 34 60 l4 24 l-72 -6 q-51 -4 -71 -17 q-20 -13 -20 -41 Z" /><glyph glyph-name="ampersand" unicode="&amp;" d="M273 426 l49 -90 q-41 -15 -69 -34 q-28 -19 -41.5 -42.5 q-13.5 -23.5 -13.5 -52.5 q0 -44 30 -67.5 q30 -23.5 87 -23.5 q61 0 108.5 29 q47.5 29 79 84.5 q31.5 55.5 43.5 133.5 l146 0 q-18 -115 -73.5 -199.5 q-55.5 -84.5 -141 -130.5 q-85.5 -46 -192.5 -46 q-73 0 -129 25 q-56 25 -88 68.5 q-32 43.5 -32 100.5 q0 58 24 102 q24 44 76.5 79 q52.5 35 136.5 64 ZM394 370 l-55 84 q48 21 74 56 q26 35 26 78 q0 21 -12.5 33.5 q-12.5 12.5 -35.5 12.5 q-29 0 -47.5 -20 q-18.5 -20 -18.5 -53 q0 -18 4 -33.5 q4 -15.5 13.5 -33 q9.5 -17.5 25.5 -41.5 l322 -453 l-161 0 l-281 397 q-23 34 -37.5 60 q-14.5 26 -20.5 48.5 q-6 22.5 -6 44.5 q0 59 28.5 104.5 q28.5 45.5 77.5 71.5 q49 26 112 26 q81 0 128.5 -41.5 q47.5 -41.5 47.5 -112.5 q0 -65 -43 -118.5 q-43 -53.5 -141 -109.5 Z" /><glyph glyph-name="copyright" unicode="©" d="M388 -13 q-98 0 -173.5 43.5 q-75.5 43.5 -118 120 q-42.5 76.5 -42.5 175.5 q0 87 32 164.5 q32 77.5 87.5 137 q55.5 59.5 129 93 q73.5 33.5 155.5 33.5 q99 0 174 -43 q75 -43 117.5 -119.5 q42.5 -76.5 42.5 -176.5 q0 -87 -32 -164.5 q-32 -77.5 -87.5 -137 q-55.5 -59.5 -128.5 -93 q-73 -33.5 -156 -33.5 ZM395 75 q64 0 119.5 25.5 q55.5 25.5 97.5 71.5 q42 46 65.5 106 q23.5 60 23.5 129 q0 78 -31 136 q-31 58 -87.5 90.5 q-56.5 32.5 -131.5 32.5 q-63 0 -118.5 -25.5 q-55.5 -25.5 -97.5 -71.5 q-42 -46 -65.5 -106 q-23.5 -60 -23.5 -129 q0 -77 31 -135.5 q31 -58.5 87.5 -91 q56.5 -32.5 130.5 -32.5 ZM238 346 q0 64 27 112.5 q27 48.5 74.5 76.5 q47.5 28 108.5 28 q73 0 117 -41.5 q44 -41.5 47 -112.5 l-110 0 q-2 28 -17.5 42.5 q-15.5 14.5 -43.5 14.5 q-26 0 -47 -15 q-21 -15 -32.5 -41 q-11.5 -26 -11.5 -60 q0 -35 17.5 -56 q17.5 -21 46.5 -21 q29 0 50 15 q21 15 31 44 l110 0 q-10 -43 -39.5 -78.5 q-29.5 -35.5 -71 -56.5 q-41.5 -21 -86.5 -21 q-51 0 -89 21 q-38 21 -59.5 59.5 q-21.5 38.5 -21.5 89.5 Z" /><glyph glyph-name="bar" unicode="|" d="M63 -90 l139 878 l114 0 l-139 -878 l-114 0 Z" /><glyph glyph-name="asciicircum" unicode="^" d="M216 400 l-132 0 l184 340 l145 0 l77 -340 l-120 0 l-42 221 l-112 -221 Z" /><glyph glyph-name="grave" unicode="`" d="M345 771 l-101 0 l-82 163 l128 0 l55 -163 Z" /></font>
</defs>
</svg>
