<?xml version="1.0" standalone="no"?><!DOCTYPE svg PUBLIC "-//W3C//DTD SVG 1.1//EN" "http://www.w3.org/Graphics/SVG/1.1/DTD/svg11.dtd" ><svg xmlns="http://www.w3.org/2000/svg"><metadata></metadata><defs><font id="2.000;ITFO;Satoshi-BlackItalic" horiz-adv-x="1231"><font-face font-family="Satoshi Black Italic" font-weight="900" font-stretch="normal" units-per-em="1000" panose-1="0 0 0 0 0 0 0 0 0 0" ascent="1010" descent="-240" x-height="0" bbox="-124 -256 1174 934" underline-thickness="80" underline-position="-195" unicode-range="U+0020-2026" /><missing-glyph horiz-adv-x="500" d="M50 -240 l0 1110 l400 0 l0 -1110 l-400 0 ZM100 -190 l300 0 l0 1010 l-300 0 l0 -1010 Z" /><glyph glyph-name="space" unicode=" " d="" /><glyph glyph-name="exclam" unicode="!" d="M227 221 l-122 0 q-5 135 29 351 l26 168 l179 0 l-26 -168 q-34 -215 -86 -351 ZM129 -13 q-35 0 -55.5 20 q-20.5 20 -20.5 55 q0 42 30.5 72.5 q30.5 30.5 73.5 30.5 q35 0 56 -20.5 q21 -20.5 21 -55.5 q0 -41 -31.5 -71.5 q-31.5 -30.5 -73.5 -30.5 Z" /><glyph glyph-name="quotedbl" unicode="&quot;" d="M276 652 l-71 -226 l-74 0 l0 226 q0 45 22 70 q22 25 62 25 q39 0 56.5 -27 q17.5 -27 4.5 -68 ZM496 652 l-71 -226 l-74 0 l0 226 q0 45 22 70 q22 25 62 25 q39 0 56.5 -27 q17.5 -27 4.5 -68 Z" /><glyph glyph-name="numbersign" unicode="#" d="M77 318 l87 0 l36 102 l-101 0 l52 140 l98 0 l63 180 l148 0 l-63 -180 l98 0 l63 180 l148 0 l-63 -180 l100 0 l-52 -140 l-97 0 l-35 -102 l113 0 l-50 -140 l-112 0 l-62 -178 l-148 0 l62 178 l-99 0 l-62 -178 l-148 0 l62 178 l-89 0 l51 140 ZM312 318 l99 0 l35 102 l-98 0 l-36 -102 Z" /><glyph glyph-name="dollar" unicode="$" d="M212 -93 l11 85 q-93 16 -147 74.5 q-54 58.5 -57 148.5 l157 0 q3 -61 66 -80 l22 168 l-25 7 q-81 23 -125 74.5 q-44 51.5 -44 122.5 q0 108 68.5 174.5 q68.5 66.5 184.5 71.5 l10 80 l89 0 l-11 -87 q82 -19 134.5 -79.5 q52.5 -60.5 55.5 -140.5 l-157 0 q-6 52 -52 76 l-23 -175 l35 -10 q161 -47 161 -191 q0 -103 -68.5 -167.5 q-68.5 -64.5 -184.5 -70.5 l-11 -81 l-89 0 ZM225 530 q0 -54 58 -77 l21 159 q-79 -12 -79 -82 ZM411 210 q0 28 -14 43 q-14 15 -47 25 l-20 -148 q38 6 59.5 27 q21.5 21 21.5 53 Z" /><glyph glyph-name="percent" unicode="%" d="M472 574 q0 -86 -63 -149 q-63 -63 -149 -63 q-88 0 -136.5 47.5 q-48.5 47.5 -48.5 132.5 q0 86 62.5 149 q62.5 63 148.5 63 q88 0 137 -47.5 q49 -47.5 49 -132.5 ZM912 740 l-658 -740 l-156 0 l658 740 l156 0 ZM354 568 q0 78 -72 78 q-38 0 -63.5 -28.5 q-25.5 -28.5 -25.5 -70.5 q0 -77 71 -77 q37 0 63.5 28.5 q26.5 28.5 26.5 69.5 ZM936 199 q0 -86 -63 -149 q-63 -63 -149 -63 q-88 0 -136.5 47.5 q-48.5 47.5 -48.5 132.5 q0 86 62.5 149 q62.5 63 148.5 63 q88 0 137 -47.5 q49 -47.5 49 -132.5 ZM818 193 q0 78 -72 78 q-38 0 -63.5 -28.5 q-25.5 -28.5 -25.5 -70.5 q0 -77 71 -77 q37 0 63.5 28.5 q26.5 28.5 26.5 69.5 Z" /><glyph glyph-name="ampersand" unicode="&amp;" d="M529 0 l-32 45 q-92 -58 -212 -58 q-110 0 -179.5 54.5 q-69.5 54.5 -69.5 139.5 q0 80 47 134.5 q47 54.5 154 97.5 q-53 79 -53 137 q0 88 61.5 145 q61.5 57 156.5 57 q81 0 128.5 -41.5 q47.5 -41.5 47.5 -112.5 q0 -62 -38 -112.5 q-38 -50.5 -123 -101.5 l96 -134 q22 48 33 113 l146 0 q-21 -136 -96 -230 l94 -133 l-161 0 ZM325 561 q0 -45 35 -96 q79 43 79 123 q0 21 -13 33.5 q-13 12.5 -35 12.5 q-29 0 -47.5 -20 q-18.5 -20 -18.5 -53 ZM198 207 q0 -91 117 -91 q63 0 110 30 l-127 180 q-100 -43 -100 -119 Z" /><glyph glyph-name="quotesingle" unicode="&#39;" d="M276 652 l-71 -226 l-74 0 l0 226 q0 45 22 70 q22 25 62 25 q39 0 56.5 -27 q17.5 -27 4.5 -68 Z" /><glyph glyph-name="parenleft" unicode="(" d="M259 -212 l-114 0 q-53 67 -81.5 163.5 q-28.5 96.5 -28.5 205.5 q0 181 71 354 q71 173 189 281 l122 0 q-104 -118 -169 -294.5 q-65 -176.5 -65 -342.5 q0 -106 20.5 -205.5 q20.5 -99.5 55.5 -161.5 Z" /><glyph glyph-name="parenright" unicode=")" d="M50 -212 l-122 0 q104 118 169 294.5 q65 176.5 65 342.5 q0 106 -20.5 205.5 q-20.5 99.5 -55.5 161.5 l114 0 q53 -67 81.5 -163.5 q28.5 -96.5 28.5 -205.5 q0 -181 -71 -354 q-71 -173 -189 -281 Z" /><glyph glyph-name="asterisk" unicode="*" d="M140 568 l-64 25 l36 64 l63 -23 q36 -13 63 -33 q-4 37 3 79 l12 74 l74 0 l-12 -74 q-6 -40 -20 -79 q45 27 75 36 l70 22 l16 -70 l-73 -25 q-35 -12 -80 -16 q25 -24 43 -60 l31 -60 l-63 -42 l-32 60 q-21 38 -27 69 q-18 -38 -47 -71 l-51 -58 l-59 42 l51 62 q26 31 64 58 q-26 2 -73 20 Z" /><glyph glyph-name="plus" unicode="+" d="M109 397 l182 0 l30 190 l124 0 l-30 -190 l183 0 l-20 -120 l-182 0 l-30 -191 l-124 0 l30 191 l-183 0 l20 120 Z" /><glyph glyph-name="comma" unicode="," d="M212 75 q0 -74 -55.5 -134 q-55.5 -60 -131.5 -68 l9 54 q38 7 65 27 q27 20 33 49 q-12 -6 -28 -6 q-31 0 -50.5 19 q-19.5 19 -19.5 47 q0 41 29.5 71.5 q29.5 30.5 69.5 30.5 q36 0 57.5 -25 q21.5 -25 21.5 -65 Z" /><glyph glyph-name="hyphen" unicode="-" d="M53 204 l21 132 l334 0 l-21 -132 l-334 0 Z" /><glyph glyph-name="period" unicode="." d="M109 -13 q-35 0 -55.5 20 q-20.5 20 -20.5 55 q0 42 30.5 72.5 q30.5 30.5 73.5 30.5 q35 0 56 -20.5 q21 -20.5 21 -55.5 q0 -41 -31.5 -71.5 q-31.5 -30.5 -73.5 -30.5 Z" /><glyph glyph-name="slash" unicode="/" d="M118 0 l-158 0 l390 740 l159 0 l-391 -740 Z" /><glyph glyph-name="zero" unicode="0" d="M48 291 q0 200 104.5 331.5 q104.5 131.5 262.5 131.5 q131 0 206.5 -81 q75.5 -81 75.5 -223 q0 -200 -104.5 -331.5 q-104.5 -131.5 -262.5 -131.5 q-131 0 -206.5 81 q-75.5 81 -75.5 223 ZM204 295 q0 -169 135 -169 q87 0 144.5 91 q57.5 91 57.5 229 q0 169 -135 169 q-87 0 -144.5 -91 q-57.5 -91 -57.5 -229 Z" /><glyph glyph-name="one" unicode="1" d="M252 602 l-163 0 l23 138 l316 0 l-117 -740 l-154 0 l95 602 Z" /><glyph glyph-name="two" unicode="2" d="M522 0 l-516 0 l19 117 l288 208 q70 51 97 93.5 q27 42.5 27 101.5 q0 45 -25 71 q-25 26 -69 26 q-51 0 -83 -37 q-32 -37 -37 -100 l-157 0 q14 127 91.5 200.5 q77.5 73.5 198.5 73.5 q112 0 178 -61.5 q66 -61.5 66 -165.5 q0 -170 -205 -311 l-98 -68 l248 0 l-23 -148 Z" /><glyph glyph-name="three" unicode="3" d="M265 350 l-98 0 l16 101 l184 151 l-270 0 l22 138 l471 0 l-20 -126 l-189 -155 q72 -20 115 -77.5 q43 -57.5 43 -136.5 q0 -116 -75 -187 q-75 -71 -196 -71 q-122 0 -191.5 68 q-69.5 68 -69.5 187 l155 0 q0 -55 27.5 -85.5 q27.5 -30.5 76.5 -30.5 q51 0 80.5 31.5 q29.5 31.5 29.5 86.5 q0 50 -29 78 q-29 28 -82 28 Z" /><glyph glyph-name="four" unicode="4" d="M599 132 l-89 0 l-21 -132 l-148 0 l21 132 l-361 0 l22 138 l384 470 l199 0 l-74 -470 l89 0 l-22 -138 ZM196 270 l188 0 l45 286 l-233 -286 Z" /><glyph glyph-name="five" unicode="5" d="M293 -13 q-122 0 -191.5 68 q-69.5 68 -69.5 187 l155 0 q0 -55 27.5 -85.5 q27.5 -30.5 76.5 -30.5 q53 0 86.5 35.5 q33.5 35.5 33.5 92.5 q0 56 -28.5 90.5 q-28.5 34.5 -75.5 34.5 q-71 0 -112 -63 l-139 28 l154 396 l392 0 l-23 -146 l-280 0 l-46 -111 q39 26 99 26 q101 0 163 -66 q62 -66 62 -175 q0 -122 -80.5 -201.5 q-80.5 -79.5 -203.5 -79.5 Z" /><glyph glyph-name="six" unicode="6" d="M197 551 l170 189 l193 0 l-204 -226 q14 2 21 2 q101 0 165 -62 q64 -62 64 -156 q0 -134 -90.5 -222.5 q-90.5 -88.5 -229.5 -88.5 q-111 0 -183.5 69 q-72.5 69 -72.5 169 q0 88 44 163.5 q44 75.5 123 162.5 ZM196 240 q0 -48 30 -79 q30 -31 80 -31 q57 0 95.5 42 q38.5 42 38.5 104 q0 48 -29.5 78.5 q-29.5 30.5 -78.5 30.5 q-58 0 -97 -41 q-39 -41 -39 -104 Z" /><glyph glyph-name="seven" unicode="7" d="M83 740 l537 0 l-23 -146 l-335 -594 l-175 0 l338 594 l-365 0 l23 146 Z" /><glyph glyph-name="eight" unicode="8" d="M27 208 q0 68 41.5 123.5 q41.5 55.5 106.5 75.5 q-68 43 -68 125 q0 98 76.5 160 q76.5 62 198.5 62 q111 0 181 -53 q70 -53 70 -136 q0 -61 -33 -108.5 q-33 -47.5 -89 -67.5 q44 -20 69.5 -61 q25.5 -41 25.5 -95 q0 -110 -83.5 -177.5 q-83.5 -67.5 -219.5 -67.5 q-124 0 -200 61 q-76 61 -76 159 ZM248 528 q0 -36 33 -57 q33 -21 89 -21 q52 0 83.5 24 q31.5 24 31.5 64 q0 36 -32 58.5 q-32 22.5 -83 22.5 q-55 0 -88.5 -25 q-33.5 -25 -33.5 -66 ZM182 220 q0 -41 37 -68.5 q37 -27.5 93 -27.5 q64 0 102 28.5 q38 28.5 38 77.5 q0 42 -37.5 67.5 q-37.5 25.5 -99.5 25.5 q-61 0 -97 -28 q-36 -28 -36 -75 Z" /><glyph glyph-name="nine" unicode="9" d="M474 189 l-170 -189 l-193 0 l204 226 q-14 -2 -21 -2 q-101 0 -165 62 q-64 62 -64 156 q0 134 90.5 222.5 q90.5 88.5 229.5 88.5 q111 0 183.5 -69 q72.5 -69 72.5 -169 q0 -88 -44 -163.5 q-44 -75.5 -123 -162.5 ZM475 500 q0 48 -30 79 q-30 31 -80 31 q-57 0 -95.5 -42 q-38.5 -42 -38.5 -104 q0 -48 29.5 -78.5 q29.5 -30.5 78.5 -30.5 q58 0 97 41 q39 41 39 104 Z" /><glyph glyph-name="colon" unicode=":" d="M175 339 q-35 0 -55.5 20 q-20.5 20 -20.5 55 q0 42 30.5 72.5 q30.5 30.5 73.5 30.5 q35 0 56 -20.5 q21 -20.5 21 -55.5 q0 -41 -31.5 -71.5 q-31.5 -30.5 -73.5 -30.5 ZM119 -13 q-35 0 -55.5 20 q-20.5 20 -20.5 55 q0 42 30.5 72.5 q30.5 30.5 73.5 30.5 q35 0 56 -20.5 q21 -20.5 21 -55.5 q0 -41 -31.5 -71.5 q-31.5 -30.5 -73.5 -30.5 Z" /><glyph glyph-name="semicolon" unicode=";" d="M175 339 q-35 0 -55.5 20 q-20.5 20 -20.5 55 q0 42 30.5 72.5 q30.5 30.5 73.5 30.5 q35 0 56 -20.5 q21 -20.5 21 -55.5 q0 -41 -31.5 -71.5 q-31.5 -30.5 -73.5 -30.5 ZM218 75 q0 -74 -55.5 -134 q-55.5 -60 -131.5 -68 l9 54 q38 7 65 27 q27 20 33 49 q-12 -6 -28 -6 q-31 0 -50.5 19 q-19.5 19 -19.5 47 q0 41 29.5 71.5 q29.5 30.5 69.5 30.5 q36 0 57.5 -25 q21.5 -25 21.5 -65 Z" /><glyph glyph-name="less" unicode="&lt;" d="M557 138 l-23 -140 l-461 175 l25 159 l516 174 l-23 -152 l-363 -108 l329 -108 Z" /><glyph glyph-name="equal" unicode="=" d="M121 476 l488 0 l-19 -120 l-488 0 l19 120 ZM87 252 l488 0 l-20 -120 l-488 0 l20 120 Z" /><glyph glyph-name="greater" unicode="&gt;" d="M563 172 l-517 -174 l23 152 l364 108 l-330 108 l23 140 l462 -175 l-25 -159 Z" /><glyph glyph-name="question" unicode="?" d="M317 199 l-134 0 l3 21 q17 117 135 197 q57 39 77.5 65 q20.5 26 20.5 60 q0 34 -21.5 53 q-21.5 19 -59.5 19 q-48 0 -78 -31 q-30 -31 -35 -86 l-155 0 q16 119 92 188 q76 69 192 69 q101 0 164.5 -56.5 q63.5 -56.5 63.5 -147.5 q0 -127 -146 -209 q-60 -34 -85.5 -61.5 q-25.5 -27.5 -30.5 -59.5 l-3 -21 ZM220 -13 q-32 0 -54 21.5 q-22 21.5 -22 53.5 q0 40 32 71.5 q32 31.5 72 31.5 q32 0 54.5 -22 q22.5 -22 22.5 -54 q0 -39 -32.5 -70.5 q-32.5 -31.5 -72.5 -31.5 Z" /><glyph glyph-name="at" unicode="@" d="M256 213 q0 68 49 109 q49 41 140 48 l131 11 l0 7 q0 70 -78 70 q-81 0 -90 -64 l-112 0 q13 79 71.5 123.5 q58.5 44.5 149.5 44.5 q100 0 148.5 -54 q48.5 -54 34.5 -148 l-21 -135 q-9 -54 34 -54 q44 0 77.5 64 q33.5 64 33.5 147 q0 130 -75.5 206 q-75.5 76 -203.5 76 q-175 0 -285 -111.5 q-110 -111.5 -110 -290.5 q0 -132 78.5 -213 q78.5 -81 206.5 -81 q109 0 212 63 l27 -83 q-116 -70 -253 -70 q-161 0 -264 107 q-103 107 -103 276 q0 219 138 356 q138 137 358 137 q163 0 266.5 -104 q103.5 -104 103.5 -268 q0 -140 -59.5 -219.5 q-59.5 -79.5 -163.5 -79.5 q-52 0 -86.5 22 q-34.5 22 -41.5 60 q-19 -38 -60.5 -60 q-41.5 -22 -95.5 -22 q-69 0 -113 36.5 q-44 36.5 -44 93.5 ZM395 226 q0 -42 56 -42 q42 0 69 22 q27 22 34 60 l4 24 l-72 -6 q-51 -4 -71 -17 q-20 -13 -20 -41 Z" /><glyph glyph-name="A" unicode="A" d="M139 0 l-170 0 l376 740 l153 0 l141 -740 l-160 0 l-26 158 l-236 0 l-78 -158 ZM364 459 l-81 -169 l147 0 l-28 169 q-8 48 -8 70 q-12 -34 -30 -70 Z" /><glyph glyph-name="B" unicode="B" d="M38 0 l117 740 l301 0 q90 0 144 -50 q54 -50 54 -133 q0 -67 -33.5 -119 q-33.5 -52 -91.5 -76 q41 -16 64 -50.5 q23 -34.5 23 -83.5 q0 -107 -73.5 -167.5 q-73.5 -60.5 -203.5 -60.5 l-301 0 ZM415 602 l-126 0 l-26 -167 l129 0 q48 0 76 25.5 q28 25.5 28 68.5 q0 35 -21 54 q-21 19 -60 19 ZM365 302 l-123 0 l-26 -164 l126 0 q55 0 84 23 q29 23 29 67 q0 74 -90 74 Z" /><glyph glyph-name="C" unicode="C" d="M374 -12 q-150 0 -235.5 89.5 q-85.5 89.5 -85.5 235.5 q0 192 115.5 315.5 q115.5 123.5 291.5 123.5 q136 0 216 -74 q80 -74 85 -197 l-167 0 q-9 59 -50 88.5 q-41 29.5 -104 29.5 q-100 0 -160 -77.5 q-60 -77.5 -60 -198.5 q0 -82 42.5 -132 q42.5 -50 117.5 -50 q138 0 185 120 l172 0 q-43 -134 -135.5 -203.5 q-92.5 -69.5 -227.5 -69.5 Z" /><glyph glyph-name="D" unicode="D" d="M320 0 l-282 0 l117 740 l263 0 q137 0 227 -96 q90 -96 90 -242 q0 -178 -115.5 -290 q-115.5 -112 -299.5 -112 ZM389 594 l-101 0 l-71 -448 l111 0 q110 0 175 69.5 q65 69.5 65 186.5 q0 87 -49 139.5 q-49 52.5 -130 52.5 Z" /><glyph glyph-name="E" unicode="E" d="M498 0 l-460 0 l117 740 l460 0 l-23 -146 l-304 0 l-24 -152 l269 0 l-22 -138 l-269 0 l-25 -158 l304 0 l-23 -146 Z" /><glyph glyph-name="F" unicode="F" d="M496 290 l-256 0 l-46 -290 l-156 0 l117 740 l460 0 l-23 -146 l-304 0 l-26 -162 l256 0 l-22 -142 Z" /><glyph glyph-name="G" unicode="G" d="M440 602 q-98 0 -159 -78 q-61 -78 -61 -201 q0 -88 47.5 -137.5 q47.5 -49.5 130.5 -49.5 q79 0 129.5 39 q50.5 39 65.5 111 l-195 0 l22 138 l340 0 l-67 -424 l-134 0 l3 63 q-28 -33 -79.5 -54 q-51.5 -21 -108.5 -21 q-147 0 -234 88 q-87 88 -87 237 q0 191 115 315 q115 124 292 124 q131 0 212.5 -71 q81.5 -71 88.5 -193 l-169 0 q-22 114 -152 114 Z" /><glyph glyph-name="H" unicode="H" d="M194 0 l-156 0 l117 740 l156 0 l-47 -295 l284 0 l47 295 l156 0 l-117 -740 l-156 0 l48 300 l-284 0 l-48 -300 Z" /><glyph glyph-name="I" unicode="I" d="M311 740 l-117 -740 l-156 0 l117 740 l156 0 Z" /><glyph glyph-name="J" unicode="J" d="M17 213 l5 50 l151 0 l-5 -50 q-4 -38 16 -59 q20 -21 59 -21 q40 0 61 20 q21 20 28 64 l83 523 l156 0 l-85 -533 q-34 -220 -250 -220 q-111 0 -170.5 61 q-59.5 61 -48.5 165 Z" /><glyph glyph-name="K" unicode="K" d="M311 740 l-55 -346 l312 346 l192 0 l-286 -314 l171 -426 l-173 0 l-115 298 l-140 -155 l-23 -143 l-156 0 l117 740 l156 0 Z" /><glyph glyph-name="L" unicode="L" d="M311 740 l-94 -594 l288 0 l-23 -146 l-444 0 l117 740 l156 0 Z" /><glyph glyph-name="M" unicode="M" d="M190 0 l-152 0 l117 740 l146 0 l128 -557 l306 557 l160 0 l-117 -740 l-152 0 l34 214 q20 127 39 200 l-221 -414 l-143 0 l-90 414 q0 -74 -21 -200 l-34 -214 Z" /><glyph glyph-name="N" unicode="N" d="M193 0 l-155 0 l117 740 l155 0 l232 -476 l75 476 l155 0 l-117 -740 l-155 0 l-232 476 l-75 -476 Z" /><glyph glyph-name="O" unicode="O" d="M770 427 q0 -186 -113.5 -312.5 q-113.5 -126.5 -282.5 -126.5 q-145 0 -233.5 89.5 q-88.5 89.5 -88.5 234.5 q0 187 113 313.5 q113 126.5 282 126.5 q145 0 234 -90 q89 -90 89 -235 ZM603 411 q0 89 -44.5 139 q-44.5 50 -125.5 50 q-92 0 -153 -78 q-61 -78 -61 -193 q0 -88 45 -138 q45 -50 125 -50 q92 0 153 77.5 q61 77.5 61 192.5 Z" /><glyph glyph-name="P" unicode="P" d="M370 247 l-137 0 l-39 -247 l-156 0 l117 740 l273 0 q103 0 164.5 -59 q61.5 -59 61.5 -159 q0 -122 -79 -198.5 q-79 -76.5 -205 -76.5 ZM387 600 l-98 0 l-34 -213 l103 0 q64 0 99 31 q35 31 35 88 q0 45 -27 69.5 q-27 24.5 -78 24.5 Z" /><glyph glyph-name="Q" unicode="Q" d="M595 -63 l-61 86 q-75 -35 -160 -35 q-145 0 -233.5 89.5 q-88.5 89.5 -88.5 234.5 q0 187 113 313.5 q113 126.5 282 126.5 q145 0 234 -90 q89 -90 89 -235 q0 -200 -128 -328 l58 -82 l-105 -80 ZM603 411 q0 89 -44.5 139 q-44.5 50 -125.5 50 q-92 0 -153 -78 q-61 -78 -61 -193 q0 -88 45 -138 q45 -50 125 -50 q26 0 55 8 l-80 112 l105 80 l80 -113 q54 76 54 183 Z" /><glyph glyph-name="R" unicode="R" d="M194 0 l-156 0 l117 740 l275 0 q110 0 175 -58 q65 -58 65 -156 q0 -74 -41.5 -134 q-41.5 -60 -119.5 -97 l91 -295 l-161 0 l-79 261 l-125 0 l-41 -261 ZM289 600 l-32 -201 l121 0 q60 0 94.5 30.5 q34.5 30.5 34.5 83.5 q0 41 -27 64 q-27 23 -75 23 l-116 0 Z" /><glyph glyph-name="S" unicode="S" d="M70 507 q0 112 74.5 179.5 q74.5 67.5 198.5 67.5 q107 0 180.5 -65.5 q73.5 -65.5 77.5 -162.5 l-157 0 q-5 41 -34 64.5 q-29 23.5 -75 23.5 q-53 0 -81.5 -22 q-28.5 -22 -28.5 -62 q0 -60 74 -82 l105 -31 q161 -49 161 -191 q0 -108 -75.5 -173.5 q-75.5 -65.5 -200.5 -65.5 q-121 0 -193.5 61 q-72.5 61 -76.5 167 l157 0 q2 -41 34 -64.5 q32 -23.5 86 -23.5 q54 0 84.5 22 q30.5 22 30.5 61 q0 28 -14.5 43 q-14.5 15 -49.5 26 l-108 31 q-81 23 -125 74.5 q-44 51.5 -44 122.5 Z" /><glyph glyph-name="T" unicode="T" d="M75 594 l23 146 l567 0 l-23 -146 l-205 0 l-94 -594 l-156 0 l94 594 l-206 0 Z" /><glyph glyph-name="U" unicode="U" d="M78 287 l72 453 l156 0 l-71 -453 q-11 -70 19.5 -109 q30.5 -39 97.5 -39 q67 0 111 39 q44 39 55 109 l72 453 l156 0 l-74 -464 q-22 -136 -108.5 -212 q-86.5 -76 -226.5 -76 q-128 0 -204 84 q-76 84 -55 215 Z" /><glyph glyph-name="V" unicode="V" d="M241 0 l-154 740 l160 0 l78 -381 q15 -74 22 -155 q42 94 72 154 l197 382 l170 0 l-383 -740 l-162 0 Z" /><glyph glyph-name="W" unicode="W" d="M192 0 l-100 740 l155 0 l43 -331 q13 -99 13 -159 q22 70 61 159 l143 331 l179 0 l36 -331 q7 -60 10 -159 q23 67 63 157 l151 333 l162 0 l-338 -740 l-151 0 l-54 511 l-217 -511 l-156 0 Z" /><glyph glyph-name="X" unicode="X" d="M278 369 l-167 371 l169 0 l47 -103 q25 -54 64 -162 l185 265 l190 0 l-289 -371 l172 -369 l-176 0 l-37 83 q-35 79 -73 182 l-191 -265 l-194 0 l300 369 Z" /><glyph glyph-name="Y" unicode="Y" d="M259 282 l-171 458 l165 0 l86 -245 q12 -32 17 -59 q12 28 34 60 l164 244 l178 0 l-317 -458 l-45 -282 l-156 0 l45 282 Z" /><glyph glyph-name="Z" unicode="Z" d="M517 0 l-531 0 l23 148 l394 446 l-313 0 l23 146 l512 0 l-22 -141 l-401 -453 l338 0 l-23 -146 Z" /><glyph glyph-name="bracketleft" unicode="[" d="M173 0 l113 0 l-18 -114 l-248 0 l155 984 l248 0 l-18 -114 l-113 0 l-119 -756 Z" /><glyph glyph-name="backslash" unicode="\" d="M222 740 l169 -740 l-144 0 l-169 740 l144 0 Z" /><glyph glyph-name="bracketright" unicode="]" d="M-52 -114 l18 114 l113 0 l119 756 l-113 0 l18 114 l248 0 l-155 -984 l-248 0 Z" /><glyph glyph-name="asciicircum" unicode="^" d="M216 400 l-132 0 l184 340 l145 0 l77 -340 l-120 0 l-42 221 l-112 -221 Z" /><glyph glyph-name="underscore" unicode="_" d="M1 -123 l17 107 l431 0 l-17 -107 l-431 0 Z" /><glyph glyph-name="grave" unicode="`" d="M345 771 l-101 0 l-82 163 l128 0 l55 -163 Z" /><glyph glyph-name="a" unicode="a" d="M173 -13 q-68 0 -110.5 38.5 q-42.5 38.5 -42.5 100.5 q0 78 53 123.5 q53 45.5 153 53.5 l140 12 l1 9 q4 37 -16.5 57 q-20.5 20 -62.5 20 q-86 0 -96 -72 l-130 0 q14 89 76.5 137.5 q62.5 48.5 165.5 48.5 q110 0 165.5 -60 q55.5 -60 38.5 -162 l-47 -293 l-131 0 l1 67 q-17 -36 -61 -58 q-44 -22 -97 -22 ZM233 98 q47 0 78 24.5 q31 24.5 37 66.5 l4 27 l-80 -7 q-54 -4 -77.5 -20 q-23.5 -16 -23.5 -45 q0 -46 62 -46 Z" /><glyph glyph-name="b" unicode="b" d="M158 0 l-140 0 l119 754 l149 0 l-49 -315 q57 75 157 75 q89 0 147 -64.5 q58 -64.5 58 -165.5 q0 -131 -74 -213.5 q-74 -82.5 -187 -82.5 q-51 0 -96.5 22 q-45.5 22 -65.5 56 l-18 -66 ZM206 228 q0 -49 28 -79 q28 -30 76 -30 q58 0 99 45 q41 45 41 110 q0 49 -28 79 q-28 30 -76 30 q-58 0 -99 -45 q-41 -45 -41 -110 Z" /><glyph glyph-name="c" unicode="c" d="M28 212 q0 129 81.5 215.5 q81.5 86.5 203.5 86.5 q107 0 167.5 -56 q60.5 -56 60.5 -154 l-150 0 q-5 78 -87 78 q-53 0 -88.5 -45.5 q-35.5 -45.5 -35.5 -113.5 q0 -50 23.5 -76.5 q23.5 -26.5 66.5 -26.5 q35 0 62 21 q27 21 40 58 l152 0 q-23 -95 -94.5 -153 q-71.5 -58 -167.5 -58 q-111 0 -172.5 59 q-61.5 59 -61.5 165 Z" /><glyph glyph-name="d" unicode="d" d="M235 -12 q-89 0 -147 64.5 q-58 64.5 -58 165.5 q0 131 74 213.5 q74 82.5 187 82.5 q51 0 96.5 -22 q45.5 -22 65.5 -56 l48 318 l149 0 l-119 -754 l-140 0 l1 63 q-57 -75 -157 -75 ZM283 119 q58 0 99 45 q41 45 41 110 q0 49 -28 79 q-28 30 -76 30 q-58 0 -99 -45 q-41 -45 -41 -110 q0 -49 28 -79 q28 -30 76 -30 Z" /><glyph glyph-name="e" unicode="e" d="M262 -12 q-111 0 -172.5 59 q-61.5 59 -61.5 165 q0 129 81.5 215.5 q81.5 86.5 203.5 86.5 q117 0 176 -71.5 q59 -71.5 40 -191.5 l-6 -39 l-353 -2 q6 -100 100 -100 q72 0 102 58 l146 0 q-25 -80 -96 -130 q-71 -50 -160 -50 ZM304 393 q-39 0 -70.5 -24.5 q-31.5 -24.5 -48.5 -65.5 l204 0 q7 41 -16 65.5 q-23 24.5 -69 24.5 Z" /><glyph glyph-name="f" unicode="f" d="M51 500 l68 0 l7 42 q34 212 232 212 q33 0 66 -6 l-20 -128 l-42 0 q-77 0 -89 -78 l-7 -42 l119 0 l-20 -124 l-118 0 l-59 -376 l-148 0 l60 376 l-69 0 l20 124 Z" /><glyph glyph-name="g" unicode="g" d="M29 219 q0 123 79.5 209 q79.5 86 192.5 86 q46 0 85 -19 q39 -19 58 -50 l16 55 l140 0 l-74 -469 q-45 -286 -286 -286 q-113 0 -183.5 63.5 q-70.5 63.5 -70.5 165.5 l147 0 q3 -43 32.5 -68 q29.5 -25 77.5 -25 q109 0 129 119 l11 66 q-54 -60 -145 -60 q-91 0 -150 60 q-59 60 -59 153 ZM181 233 q0 -45 27 -73 q27 -28 70 -28 q59 0 98.5 43.5 q39.5 43.5 39.5 109.5 q0 45 -27 71.5 q-27 26.5 -73 26.5 q-57 0 -96 -43.5 q-39 -43.5 -39 -106.5 Z" /><glyph glyph-name="h" unicode="h" d="M166 0 l-148 0 l119 754 l150 0 l-49 -308 q31 37 64.5 53.5 q33.5 16.5 78.5 16.5 q83 0 133 -61 q50 -61 36 -147 l-49 -308 l-149 0 l43 272 q8 50 -13 80 q-21 30 -65 30 q-44 0 -72 -28 q-28 -28 -36 -81 l-43 -273 Z" /><glyph glyph-name="i" unicode="i" d="M183 580 q-31 0 -51.5 20.5 q-20.5 20.5 -20.5 51.5 q0 39 30 69 q30 30 70 30 q31 0 51.5 -20.5 q20.5 -20.5 20.5 -51.5 q0 -38 -30.5 -68.5 q-30.5 -30.5 -69.5 -30.5 ZM18 0 l79 500 l149 0 l-79 -500 l-149 0 Z" /><glyph glyph-name="j" unicode="j" d="M182 580 q-31 0 -51.5 20.5 q-20.5 20.5 -20.5 51.5 q0 39 30 69 q30 30 70 30 q31 0 51.5 -20.5 q20.5 -20.5 20.5 -51.5 q0 -38 -30.5 -68.5 q-30.5 -30.5 -69.5 -30.5 ZM-124 -242 l37 132 q18 -6 39 -6 q25 0 38 15 q13 15 18 51 l87 550 l149 0 l-90 -569 q-30 -187 -190 -187 q-46 0 -88 14 Z" /><glyph glyph-name="k" unicode="k" d="M168 0 l-149 0 l119 754 l149 0 l-68 -433 l186 179 l189 0 l-222 -211 l127 -289 l-161 0 l-82 190 l-68 -64 l-20 -126 Z" /><glyph glyph-name="l" unicode="l" d="M168 0 l-149 0 l119 754 l149 0 l-119 -754 Z" /><glyph glyph-name="m" unicode="m" d="M167 0 l-149 0 l79 500 l139 0 l1 -54 q55 69 150 69 q100 0 134 -85 q26 39 69.5 62 q43.5 23 94.5 23 q84 0 132.5 -54.5 q48.5 -54.5 35.5 -134.5 l-51 -326 l-149 0 l45 285 q7 44 -12.5 70.5 q-19.5 26.5 -58.5 26.5 q-83 0 -100 -112 l-43 -270 l-149 0 l45 285 q7 42 -12.5 69 q-19.5 27 -56.5 27 q-44 0 -68 -26.5 q-24 -26.5 -33 -84.5 l-43 -270 Z" /><glyph glyph-name="n" unicode="n" d="M167 0 l-149 0 l79 500 l140 0 l2 -54 q31 37 64.5 53.5 q33.5 16.5 78.5 16.5 q83 0 133 -61 q50 -61 36 -147 l-49 -308 l-149 0 l43 272 q8 50 -13 80 q-21 30 -65 30 q-44 0 -72 -28.5 q-28 -28.5 -36 -80.5 l-43 -273 Z" /><glyph glyph-name="o" unicode="o" d="M28 215 q0 126 86.5 212.5 q86.5 86.5 212.5 86.5 q112 0 180.5 -62.5 q68.5 -62.5 68.5 -164.5 q0 -126 -86.5 -212.5 q-86.5 -86.5 -212.5 -86.5 q-112 0 -180.5 62.5 q-68.5 62.5 -68.5 164.5 ZM180 228 q0 -49 28 -79 q28 -30 76 -30 q58 0 99 45 q41 45 41 110 q0 49 -28 79 q-28 30 -76 30 q-58 0 -99 -45 q-41 -45 -41 -110 Z" /><glyph glyph-name="p" unicode="p" d="M-20 -240 l117 740 l140 0 l-1 -61 q57 75 157 75 q89 0 147 -64.5 q58 -64.5 58 -165.5 q0 -131 -74 -213.5 q-74 -82.5 -187 -82.5 q-51 0 -96.5 22 q-45.5 22 -65.5 56 l-46 -306 l-149 0 ZM205 228 q0 -49 28 -79 q28 -30 76 -30 q58 0 99 45 q41 45 41 110 q0 49 -28 79 q-28 30 -76 30 q-58 0 -99 -45 q-41 -45 -41 -110 Z" /><glyph glyph-name="q" unicode="q" d="M30 218 q0 131 74 213.5 q74 82.5 187 82.5 q51 0 96.5 -22 q45.5 -22 65.5 -56 l18 64 l140 0 l-117 -740 l-149 0 l47 303 q-57 -75 -157 -75 q-89 0 -147 64.5 q-58 64.5 -58 165.5 ZM179 228 q0 -49 28 -79 q28 -30 76 -30 q58 0 99 45 q41 45 41 110 q0 49 -28 79 q-28 30 -76 30 q-58 0 -99 -45 q-41 -45 -41 -110 Z" /><glyph glyph-name="r" unicode="r" d="M432 501 l-22 -140 l-48 0 q-139 0 -160 -139 l-35 -222 l-149 0 l79 500 l140 0 l-3 -73 q46 81 141 81 q32 0 57 -7 Z" /><glyph glyph-name="s" unicode="s" d="M5 158 l142 0 q3 -59 73 -59 q32 0 52 12.5 q20 12.5 20 32.5 q0 16 -8.5 25 q-8.5 9 -31.5 16 l-88 28 q-112 36 -112 132 q0 79 56.5 124 q56.5 45 155.5 45 q83 0 135.5 -46.5 q52.5 -46.5 52.5 -120.5 l-142 0 q0 26 -16 42 q-16 16 -43 16 q-58 0 -58 -43 q0 -32 49 -48 l86 -28 q107 -34 107 -124 q0 -82 -59.5 -127.5 q-59.5 -45.5 -166.5 -45.5 q-93 0 -148.5 46 q-55.5 46 -55.5 123 Z" /><glyph glyph-name="t" unicode="t" d="M214 0 l-149 0 l59 376 l-93 0 l20 124 l93 0 l24 154 l149 0 l-24 -154 l93 0 l-20 -124 l-93 0 l-59 -376 Z" /><glyph glyph-name="u" unicode="u" d="M421 500 l149 0 l-79 -500 l-140 0 l-2 54 q-60 -67 -142 -67 q-83 0 -130.5 61 q-47.5 61 -33.5 147 l49 305 l149 0 l-43 -269 q-8 -50 12.5 -80 q20.5 -30 60.5 -30 q90 0 107 106 l43 273 Z" /><glyph glyph-name="v" unicode="v" d="M156 0 l-112 500 l150 0 l33 -183 q13 -76 25 -156 q50 109 74 156 l96 183 l165 0 l-284 -500 l-147 0 Z" /><glyph glyph-name="w" unicode="w" d="M128 0 l-79 500 l149 0 l20 -170 q8 -64 11 -140 q23 62 57 140 l75 170 l153 0 l20 -170 q7 -71 11 -140 q40 101 57 140 l75 170 l164 0 l-250 -500 l-136 0 l-25 166 q-15 108 -18 170 q-22 -57 -70 -173 l-67 -163 l-147 0 Z" /><glyph glyph-name="x" unicode="x" d="M148 0 l-178 0 l206 242 l-127 258 l162 0 l70 -155 l107 155 l176 0 l-205 -255 l120 -245 l-162 0 l-65 147 l-104 -147 Z" /><glyph glyph-name="y" unicode="y" d="M-60 -239 l20 126 l82 0 q59 0 95 70 l20 37 l-113 506 l150 0 l57 -326 l171 326 l163 0 l-344 -609 q-40 -70 -87.5 -106.5 q-47.5 -36.5 -116.5 -36.5 q-52 0 -97 13 Z" /><glyph glyph-name="z" unicode="z" d="M406 0 l-409 0 l20 124 l260 252 l-221 0 l20 124 l409 0 l-20 -124 l-265 -252 l226 0 l-20 -124 Z" /><glyph glyph-name="braceleft" unicode="{" d="M56 319 l19 117 q52 0 84 25.5 q32 25.5 39 74.5 l31 200 q21 134 163 134 l74 0 l-18 -114 l-41 0 q-22 0 -32 -11 q-10 -11 -15 -38 l-30 -191 q-10 -60 -35.5 -95 q-25.5 -35 -74.5 -54 q82 -28 66 -129 l-29 -189 q-8 -49 32 -49 l41 0 l-18 -114 l-74 0 q-61 0 -95.5 38.5 q-34.5 38.5 -25.5 96.5 l31 197 q8 49 -16 75 q-24 26 -76 26 Z" /><glyph glyph-name="bar" unicode="|" d="M63 -90 l139 878 l114 0 l-139 -878 l-114 0 Z" /><glyph glyph-name="braceright" unicode="}" d="M23 -114 l-74 0 l18 114 l41 0 q22 0 32 11 q10 11 15 38 l30 191 q10 60 35.5 95 q25.5 35 74.5 54 q-82 28 -66 129 l29 189 q8 49 -32 49 l-41 0 l18 114 l74 0 q61 0 95.5 -38.5 q34.5 -38.5 25.5 -96.5 l-31 -197 q-8 -49 16 -75 q24 -26 76 -26 l-19 -117 q-52 0 -84 -25.5 q-32 -25.5 -39 -74.5 l-31 -200 q-21 -134 -163 -134 Z" /><glyph glyph-name="asciitilde" unicode="~" d="M488 405 l112 0 q-15 -89 -57 -136 q-42 -47 -106 -47 q-39 0 -73 17 q-34 17 -62 34 q-28 17 -53 17 q-45 0 -55 -60 l-112 0 q14 87 56 133 q42 46 106 46 q39 0 72.5 -17 q33.5 -17 62 -34 q28.5 -17 54.5 -17 q45 0 55 64 Z" /><glyph glyph-name="yen" unicode="¥" d="M245 120 l-156 0 l17 109 l156 0 l8 49 l-156 0 l17 110 l113 0 l-146 352 l170 0 l98 -290 l187 290 l185 0 l-258 -352 l111 0 l-17 -110 l-156 0 l-8 -49 l156 0 l-17 -109 l-156 0 l-19 -120 l-148 0 l19 120 Z" /><glyph glyph-name="copyright" unicode="©" d="M388 -13 q-147 0 -240.5 95 q-93.5 95 -93.5 244 q0 175 119.5 301.5 q119.5 126.5 284.5 126.5 q148 0 241 -94.5 q93 -94.5 93 -244.5 q0 -175 -119.5 -301.5 q-119.5 -126.5 -284.5 -126.5 ZM395 75 q127 0 216.5 97 q89.5 97 89.5 235 q0 116 -69 187.5 q-69 71.5 -181 71.5 q-127 0 -216 -97 q-89 -97 -89 -235 q0 -116 68.5 -187.5 q68.5 -71.5 180.5 -71.5 ZM238 346 q0 95 59 156 q59 61 151 61 q73 0 117 -41.5 q44 -41.5 47 -112.5 l-110 0 q-5 57 -61 57 q-40 0 -65.5 -32.5 q-25.5 -32.5 -25.5 -83.5 q0 -35 17.5 -56 q17.5 -21 46.5 -21 q60 0 81 59 l110 0 q-15 -65 -72.5 -110.5 q-57.5 -45.5 -124.5 -45.5 q-76 0 -123 47 q-47 47 -47 123 Z" /><glyph glyph-name="periodcentered" unicode="·" d="M169 173 q-46 0 -73.5 27 q-27.5 27 -27.5 72 q0 56 40.5 96 q40.5 40 97.5 40 q46 0 73.5 -27 q27.5 -27 27.5 -72 q0 -56 -40.5 -96 q-40.5 -40 -97.5 -40 Z" /><glyph glyph-name="threequarters" unicode="¾" d="M56 491 l83 0 q0 -26 13.5 -40.5 q13.5 -14.5 37.5 -14.5 q22 0 35 13 q13 13 13 35 q0 26 -17.5 41 q-17.5 15 -47.5 15 l-38 0 l8 54 l89 71 l-132 0 l12 75 l238 0 l-10 -68 l-94 -76 q34 -12 55 -40.5 q21 -28.5 21 -65.5 q0 -58 -37.5 -93.5 q-37.5 -35.5 -98.5 -35.5 q-58 0 -94 35.5 q-36 35.5 -36 94.5 ZM762 710 l-583 -710 l-116 0 l583 710 l116 0 ZM593 68 l-175 0 l10 66 l181 238 l111 0 l-36 -230 l48 0 l-12 -74 l-48 0 l-11 -68 l-79 0 l11 68 ZM527 142 l78 0 l21 133 l-99 -133 Z" /><glyph glyph-name="aring" unicode="å" d="M338 543 q-55 0 -89.5 32.5 q-34.5 32.5 -34.5 85.5 q0 67 44 112 q44 45 109 45 q55 0 90.5 -34 q35.5 -34 35.5 -87 q0 -66 -44 -110 q-44 -44 -111 -44 ZM346 619 q29 0 47.5 20 q18.5 20 18.5 51 q0 23 -14.5 37.5 q-14.5 14.5 -37.5 14.5 q-29 0 -47 -19.5 q-18 -19.5 -18 -50.5 q0 -24 14 -38.5 q14 -14.5 37 -14.5 ZM173 -13 q-68 0 -110.5 38.5 q-42.5 38.5 -42.5 100.5 q0 78 53 123.5 q53 45.5 153 53.5 l140 12 l1 9 q4 37 -16.5 57 q-20.5 20 -62.5 20 q-86 0 -96 -72 l-130 0 q14 89 76.5 137.5 q62.5 48.5 165.5 48.5 q110 0 165.5 -60 q55.5 -60 38.5 -162 l-47 -293 l-131 0 l1 67 q-17 -36 -61 -58 q-44 -22 -97 -22 ZM233 98 q47 0 78 24.5 q31 24.5 37 66.5 l4 27 l-80 -7 q-54 -4 -77.5 -20 q-23.5 -16 -23.5 -45 q0 -46 62 -46 Z" /><glyph glyph-name="ae" unicode="æ" d="M20 126 q0 152 205 169 l140 12 l2 17 q4 37 -16.5 57 q-20.5 20 -62.5 20 q-86 0 -96 -72 l-130 0 q14 89 76.5 137.5 q62.5 48.5 165.5 48.5 q109 0 156 -61 q71 60 170 60 q117 0 176 -71.5 q59 -71.5 40 -191.5 l-6 -39 l-353 -2 q6 -100 100 -100 q72 0 102 58 l146 0 q-25 -80 -96 -130 q-71 -50 -160 -50 q-140 0 -192 95 q-66 -96 -204 -96 q-75 0 -119 38 q-44 38 -44 101 ZM621 393 q-39 0 -70.5 -24.5 q-31.5 -24.5 -48.5 -65.5 l204 0 q7 41 -16 65.5 q-23 24.5 -69 24.5 ZM171 144 q0 -46 62 -46 q46 0 77 24.5 q31 24.5 38 66.5 l3 19 l-80 -7 q-55 -4 -77.5 -17 q-22.5 -13 -22.5 -40 Z" /><glyph glyph-name="ccedilla" unicode="ç" d="M28 212 q0 129 81.5 215.5 q81.5 86.5 203.5 86.5 q107 0 167.5 -56 q60.5 -56 60.5 -154 l-150 0 q-5 78 -87 78 q-53 0 -88.5 -45.5 q-35.5 -45.5 -35.5 -113.5 q0 -50 23.5 -76.5 q23.5 -26.5 66.5 -26.5 q35 0 62 21 q27 21 40 58 l152 0 q-22 -95 -93 -153 q-71 -58 -164 -58 l-23 -35 q13 5 32 5 q29 0 52 -19.5 q23 -19.5 23 -55.5 q0 -52 -36.5 -82.5 q-36.5 -30.5 -97.5 -30.5 q-49 0 -83 19 l10 63 q38 -19 68 -19 q28 0 45 11.5 q17 11.5 17 32.5 q0 32 -38 32 q-27 0 -49 -8 l-8 38 l33 52 q-88 13 -136 70.5 q-48 57.5 -48 150.5 Z" /><glyph glyph-name="endash" unicode="&#x2013;" d="M62 202 l21 132 l849 0 l-21 -132 l-849 0 Z" /><glyph glyph-name="emdash" unicode="&#x2014;" d="M62 202 l21 132 l1091 0 l-21 -132 l-1091 0 Z" /><glyph glyph-name="quoteleft" unicode="&#x2018;" d="M283 568 q0 -41 -27.5 -70.5 q-27.5 -29.5 -67.5 -29.5 q-35 0 -54.5 23 q-19.5 23 -19.5 60 q0 76 53 135.5 q53 59.5 127 67.5 l-8 -54 q-83 -17 -92 -76 q14 6 28 6 q28 0 44.5 -17 q16.5 -17 16.5 -45 Z" /><glyph glyph-name="quoteright" unicode="&#x2019;" d="M298 671 q0 -76 -52.5 -135.5 q-52.5 -59.5 -127.5 -67.5 l9 54 q78 17 91 76 q-12 -6 -28 -6 q-28 0 -44.5 17 q-16.5 17 -16.5 45 q0 42 28 71 q28 29 68 29 q34 0 53.5 -22.5 q19.5 -22.5 19.5 -60.5 Z" /><glyph glyph-name="quotedblleft" unicode="&#x201c;" d="M283 568 q0 -41 -27.5 -70.5 q-27.5 -29.5 -67.5 -29.5 q-35 0 -54.5 23 q-19.5 23 -19.5 60 q0 76 53 135.5 q53 59.5 127 67.5 l-8 -54 q-83 -17 -92 -76 q14 6 28 6 q28 0 44.5 -17 q16.5 -17 16.5 -45 ZM503 568 q0 -41 -27.5 -70.5 q-27.5 -29.5 -67.5 -29.5 q-35 0 -54.5 23 q-19.5 23 -19.5 60 q0 76 53 135.5 q53 59.5 127 67.5 l-8 -54 q-83 -17 -92 -76 q14 6 28 6 q28 0 44.5 -17 q16.5 -17 16.5 -45 Z" /><glyph glyph-name="quotedblright" unicode="&#x201d;" d="M298 671 q0 -76 -52.5 -135.5 q-52.5 -59.5 -127.5 -67.5 l9 54 q78 17 91 76 q-12 -6 -28 -6 q-28 0 -44.5 17 q-16.5 17 -16.5 45 q0 42 28 71 q28 29 68 29 q34 0 53.5 -22.5 q19.5 -22.5 19.5 -60.5 ZM518 671 q0 -76 -52.5 -135.5 q-52.5 -59.5 -127.5 -67.5 l9 54 q78 17 91 76 q-12 -6 -28 -6 q-28 0 -44.5 17 q-16.5 17 -16.5 45 q0 42 28 71 q28 29 68 29 q34 0 53.5 -22.5 q19.5 -22.5 19.5 -60.5 Z" /><glyph glyph-name="bullet" unicode="&#x2022;" d="M209 106 q-65 0 -104.5 38.5 q-39.5 38.5 -39.5 102.5 q0 78 59 136.5 q59 58.5 138 58.5 q63 0 101.5 -39.5 q38.5 -39.5 38.5 -104.5 q0 -77 -57.5 -134.5 q-57.5 -57.5 -135.5 -57.5 Z" /><glyph glyph-name="ellipsis" unicode="&#x2026;" d="M109 -13 q-35 0 -55.5 20 q-20.5 20 -20.5 55 q0 42 30.5 72.5 q30.5 30.5 73.5 30.5 q35 0 56 -20.5 q21 -20.5 21 -55.5 q0 -41 -31.5 -71.5 q-31.5 -30.5 -73.5 -30.5 ZM379 -13 q-35 0 -55.5 20 q-20.5 20 -20.5 55 q0 42 30.5 72.5 q30.5 30.5 73.5 30.5 q35 0 56 -20.5 q21 -20.5 21 -55.5 q0 -41 -31.5 -71.5 q-31.5 -30.5 -73.5 -30.5 ZM649 -13 q-35 0 -55.5 20 q-20.5 20 -20.5 55 q0 42 30.5 72.5 q30.5 30.5 73.5 30.5 q35 0 56 -20.5 q21 -20.5 21 -55.5 q0 -41 -31.5 -71.5 q-31.5 -30.5 -73.5 -30.5 Z" /></font>
</defs>
</svg>
